<svg width="40" height="40" viewBox="0 0 40 40" fill="none" xmlns="http://www.w3.org/2000/svg">
  <rect width="40" height="40" rx="4" fill="#F8FBFF"/>
  <path fill-rule="evenodd" clip-rule="evenodd" d="M20 20C22.8403 20 25.1429 17.7614 25.1429 15C25.1429 12.2386 22.8403 10 20 10C17.1597 10 14.8571 12.2386 14.8571 15C14.8571 17.7614 17.1597 20 20 20ZM11 27.5C11 24.0482 15.0294 21.25 20 21.25C24.9706 21.25 29 24.0482 29 27.5V28C29 29.1046 28.1046 30 27 30H13C11.8954 30 11 29.1046 11 28V27.5Z" fill="#A3B3C0"/>
</svg>
