<svg width="28" height="28" viewBox="0 0 28 28" fill="none" xmlns="http://www.w3.org/2000/svg">
  <path d="M0.751226 6.14332C0.751226 6.35192 0.583059 6.52102 0.375613 6.52102C0.168168 6.52102 0 6.35192 0 6.14332C0 5.93473 0.168168 5.76562 0.375613 5.76562C0.583059 5.76562 0.751226 5.93473 0.751226 6.14332Z" fill="url(#paint0_linear_72_40094)"/>
  <path d="M3.6493 3.8777C3.6493 4.0863 3.48113 4.2554 3.27368 4.2554C3.06624 4.2554 2.89807 4.0863 2.89807 3.8777C2.89807 3.6691 3.06624 3.5 3.27368 3.5C3.48113 3.5 3.6493 3.6691 3.6493 3.8777Z" fill="url(#paint1_linear_72_40094)"/>
  <path d="M6.54261 3.8777C6.54261 4.0863 6.37444 4.2554 6.167 4.2554C5.95955 4.2554 5.79138 4.0863 5.79138 3.8777C5.79138 3.6691 5.95955 3.5 6.167 3.5C6.37444 3.5 6.54261 3.6691 6.54261 3.8777Z" fill="url(#paint2_linear_72_40094)"/>
  <path d="M9.44068 6.14332C9.44068 6.35192 9.27251 6.52102 9.06507 6.52102C8.85762 6.52102 8.68945 6.35192 8.68945 6.14332C8.68945 5.93473 8.85762 5.76562 9.06507 5.76562C9.27251 5.76562 9.44068 5.93473 9.44068 6.14332Z" fill="url(#paint3_linear_72_40094)"/>
  <path d="M0.751226 8.41286C0.751226 8.62145 0.583059 8.79055 0.375613 8.79055C0.168168 8.79055 0 8.62145 0 8.41286C0 8.20426 0.168168 8.03516 0.375613 8.03516C0.583059 8.03516 0.751226 8.20426 0.751226 8.41286Z" fill="url(#paint4_linear_72_40094)"/>
  <path d="M3.6493 6.14332C3.6493 6.35192 3.48113 6.52102 3.27368 6.52102C3.06624 6.52102 2.89807 6.35192 2.89807 6.14332C2.89807 5.93473 3.06624 5.76562 3.27368 5.76562C3.48113 5.76562 3.6493 5.93473 3.6493 6.14332Z" fill="url(#paint5_linear_72_40094)"/>
  <path d="M6.54261 6.14332C6.54261 6.35192 6.37444 6.52102 6.167 6.52102C5.95955 6.52102 5.79138 6.35192 5.79138 6.14332C5.79138 5.93473 5.95955 5.76562 6.167 5.76562C6.37444 5.76562 6.54261 5.93473 6.54261 6.14332Z" fill="url(#paint6_linear_72_40094)"/>
  <path d="M9.44068 8.41286C9.44068 8.62145 9.27251 8.79055 9.06507 8.79055C8.85762 8.79055 8.68945 8.62145 8.68945 8.41286C8.68945 8.20426 8.85762 8.03516 9.06507 8.03516C9.27251 8.03516 9.44068 8.20426 9.44068 8.41286Z" fill="url(#paint7_linear_72_40094)"/>
  <path d="M0.751226 10.6765C0.751226 10.8851 0.583059 11.0542 0.375613 11.0542C0.168168 11.0542 0 10.8851 0 10.6765C0 10.4679 0.168168 10.2988 0.375613 10.2988C0.583059 10.2988 0.751226 10.4679 0.751226 10.6765Z" fill="url(#paint8_linear_72_40094)"/>
  <path d="M3.6493 8.41286C3.6493 8.62145 3.48113 8.79055 3.27368 8.79055C3.06624 8.79055 2.89807 8.62145 2.89807 8.41286C2.89807 8.20426 3.06624 8.03516 3.27368 8.03516C3.48113 8.03516 3.6493 8.20426 3.6493 8.41286Z" fill="url(#paint9_linear_72_40094)"/>
  <path d="M3.6493 12.9422C3.6493 13.1508 3.48113 13.3199 3.27368 13.3199C3.06624 13.3199 2.89807 13.1508 2.89807 12.9422C2.89807 12.7336 3.06624 12.5645 3.27368 12.5645C3.48113 12.5645 3.6493 12.7336 3.6493 12.9422Z" fill="url(#paint10_linear_72_40094)"/>
  <path d="M6.54261 8.41286C6.54261 8.62145 6.37444 8.79055 6.167 8.79055C5.95955 8.79055 5.79138 8.62145 5.79138 8.41286C5.79138 8.20426 5.95955 8.03516 6.167 8.03516C6.37444 8.03516 6.54261 8.20426 6.54261 8.41286Z" fill="url(#paint11_linear_72_40094)"/>
  <path d="M6.54261 12.9422C6.54261 13.1508 6.37444 13.3199 6.167 13.3199C5.95955 13.3199 5.79138 13.1508 5.79138 12.9422C5.79138 12.7336 5.95955 12.5645 6.167 12.5645C6.37444 12.5645 6.54261 12.7336 6.54261 12.9422Z" fill="url(#paint12_linear_72_40094)"/>
  <path d="M9.44068 10.6765C9.44068 10.8851 9.27251 11.0542 9.06507 11.0542C8.85762 11.0542 8.68945 10.8851 8.68945 10.6765C8.68945 10.4679 8.85762 10.2988 9.06507 10.2988C9.27251 10.2988 9.44068 10.4679 9.44068 10.6765Z" fill="url(#paint13_linear_72_40094)"/>
  <path d="M0.751226 12.9422C0.751226 13.1508 0.583059 13.3199 0.375613 13.3199C0.168168 13.3199 0 13.1508 0 12.9422C0 12.7336 0.168168 12.5645 0.375613 12.5645C0.583059 12.5645 0.751226 12.7336 0.751226 12.9422Z" fill="url(#paint14_linear_72_40094)"/>
  <path d="M3.6493 10.6765C3.6493 10.8851 3.48113 11.0542 3.27368 11.0542C3.06624 11.0542 2.89807 10.8851 2.89807 10.6765C2.89807 10.4679 3.06624 10.2988 3.27368 10.2988C3.48113 10.2988 3.6493 10.4679 3.6493 10.6765Z" fill="url(#paint15_linear_72_40094)"/>
  <path d="M3.6493 15.2068C3.6493 15.4154 3.48113 15.5845 3.27368 15.5845C3.06624 15.5845 2.89807 15.4154 2.89807 15.2068C2.89807 14.9982 3.06624 14.8291 3.27368 14.8291C3.48113 14.8291 3.6493 14.9982 3.6493 15.2068Z" fill="url(#paint16_linear_72_40094)"/>
  <path d="M6.54261 10.6765C6.54261 10.8851 6.37444 11.0542 6.167 11.0542C5.95955 11.0542 5.79138 10.8851 5.79138 10.6765C5.79138 10.4679 5.95955 10.2988 6.167 10.2988C6.37444 10.2988 6.54261 10.4679 6.54261 10.6765Z" fill="url(#paint17_linear_72_40094)"/>
  <path d="M6.54261 15.2068C6.54261 15.4154 6.37444 15.5845 6.167 15.5845C5.95955 15.5845 5.79138 15.4154 5.79138 15.2068C5.79138 14.9982 5.95955 14.8291 6.167 14.8291C6.37444 14.8291 6.54261 14.9982 6.54261 15.2068Z" fill="url(#paint18_linear_72_40094)"/>
  <path d="M9.44068 12.9422C9.44068 13.1508 9.27251 13.3199 9.06507 13.3199C8.85762 13.3199 8.68945 13.1508 8.68945 12.9422C8.68945 12.7336 8.85762 12.5645 9.06507 12.5645C9.27251 12.5645 9.44068 12.7336 9.44068 12.9422Z" fill="url(#paint19_linear_72_40094)"/>
  <path d="M24.86 19.7513C24.86 22.7426 22.435 25.1676 19.4437 25.1676C16.4523 25.1676 14.0273 22.7426 14.0273 19.7513C14.0273 16.7599 16.4523 14.335 19.4437 14.335C22.435 14.335 24.86 16.7599 24.86 19.7513Z" fill="url(#paint20_linear_72_40094)"/>
  <g filter="url(#filter0_b_72_40094)">
    <path d="M5.83334 12.5427C5.83334 11.9845 6.06662 11.4517 6.47678 11.073L12.0601 5.9192C12.8262 5.21201 14.0071 5.21201 14.7732 5.9192L20.3566 11.073C20.7667 11.4517 21 11.9845 21 12.5427V20.167C21 21.2716 20.1046 22.167 19 22.167H7.83335C6.72878 22.167 5.83334 21.2716 5.83334 20.167V12.5427Z" fill="white" fill-opacity="0.15"/>
  </g>
  <path fill-rule="evenodd" clip-rule="evenodd" d="M15.3751 12.5416C14.8451 12.5416 14.4167 12.971 14.4167 13.5C14.4167 14.557 13.5571 15.4166 12.5001 15.4166C11.443 15.4166 10.5834 14.557 10.5834 13.5C10.5834 12.971 10.155 12.5416 9.62507 12.5416C9.09511 12.5416 8.66673 12.971 8.66673 13.5C8.66673 15.6141 10.386 17.3333 12.5001 17.3333C14.6142 17.3333 16.3334 15.6141 16.3334 13.5C16.3334 12.971 15.905 12.5416 15.3751 12.5416ZM18.2501 20.2083H6.75006C6.22106 20.2083 5.79173 19.778 5.79173 19.25V10.625H19.2084V19.25C19.2084 19.778 18.7791 20.2083 18.2501 20.2083ZM8.78265 7.07243C8.96186 6.89418 9.20815 6.79163 9.46019 6.79163H15.5399C15.7919 6.79163 16.0382 6.89418 16.2174 7.07243L17.8533 8.7083H7.14678L8.78265 7.07243ZM20.2826 8.42754L17.5725 5.71737C17.03 5.174 16.3075 4.875 15.5398 4.875H9.46017C8.69254 4.875 7.96996 5.174 7.42754 5.71737L4.71737 8.42754C4.174 8.96996 3.875 9.69254 3.875 10.4611V19.25C3.875 20.8351 5.16492 22.125 6.75 22.125H18.25C19.8351 22.125 21.125 20.8351 21.125 19.25V10.4611C21.125 9.69254 20.826 8.96996 20.2826 8.42754Z" fill="url(#paint21_linear_72_40094)"/>
  <mask id="mask0_72_40094" style="mask-type:alpha" maskUnits="userSpaceOnUse" x="3" y="4" width="19" height="19">
    <path fill-rule="evenodd" clip-rule="evenodd" d="M15.3751 12.5416C14.8451 12.5416 14.4167 12.971 14.4167 13.5C14.4167 14.557 13.5571 15.4166 12.5001 15.4166C11.443 15.4166 10.5834 14.557 10.5834 13.5C10.5834 12.971 10.155 12.5416 9.62507 12.5416C9.09511 12.5416 8.66673 12.971 8.66673 13.5C8.66673 15.6141 10.386 17.3333 12.5001 17.3333C14.6142 17.3333 16.3334 15.6141 16.3334 13.5C16.3334 12.971 15.905 12.5416 15.3751 12.5416ZM18.2501 20.2083H6.75006C6.22106 20.2083 5.79173 19.778 5.79173 19.25V10.625H19.2084V19.25C19.2084 19.778 18.7791 20.2083 18.2501 20.2083ZM8.78265 7.07243C8.96186 6.89418 9.20815 6.79163 9.46019 6.79163H15.5399C15.7919 6.79163 16.0382 6.89418 16.2174 7.07243L17.8533 8.7083H7.14678L8.78265 7.07243ZM20.2826 8.42754L17.5725 5.71737C17.03 5.174 16.3075 4.875 15.5398 4.875H9.46017C8.69254 4.875 7.96996 5.174 7.42754 5.71737L4.71737 8.42754C4.174 8.96996 3.875 9.69254 3.875 10.4611V19.25C3.875 20.8351 5.16492 22.125 6.75 22.125H18.25C19.8351 22.125 21.125 20.8351 21.125 19.25V10.4611C21.125 9.69254 20.826 8.96996 20.2826 8.42754Z" fill="white"/>
  </mask>
  <g mask="url(#mask0_72_40094)">
  </g>
  <defs>
    <filter id="filter0_b_72_40094" x="1.83334" y="1.38867" width="23.1667" height="24.7783" filterUnits="userSpaceOnUse" color-interpolation-filters="sRGB">
      <feFlood flood-opacity="0" result="BackgroundImageFix"/>
      <feGaussianBlur in="BackgroundImage" stdDeviation="2"/>
      <feComposite in2="SourceAlpha" operator="in" result="effect1_backgroundBlur_72_40094"/>
      <feBlend mode="normal" in="SourceGraphic" in2="effect1_backgroundBlur_72_40094" result="shape"/>
    </filter>
    <linearGradient id="paint0_linear_72_40094" x1="1.67624e-08" y1="6.51816" x2="0.839803" y2="5.88168" gradientUnits="userSpaceOnUse">
      <stop stop-color="#CD9542"/>
      <stop offset="0.583333" stop-color="#FCE8A0"/>
      <stop offset="1" stop-color="#CD9542"/>
    </linearGradient>
    <linearGradient id="paint1_linear_72_40094" x1="2.89807" y1="4.25254" x2="3.73787" y2="3.61606" gradientUnits="userSpaceOnUse">
      <stop stop-color="#CD9542"/>
      <stop offset="0.583333" stop-color="#FCE8A0"/>
      <stop offset="1" stop-color="#CD9542"/>
    </linearGradient>
    <linearGradient id="paint2_linear_72_40094" x1="5.79138" y1="4.25254" x2="6.63118" y2="3.61606" gradientUnits="userSpaceOnUse">
      <stop stop-color="#CD9542"/>
      <stop offset="0.583333" stop-color="#FCE8A0"/>
      <stop offset="1" stop-color="#CD9542"/>
    </linearGradient>
    <linearGradient id="paint3_linear_72_40094" x1="8.68945" y1="6.51816" x2="9.52926" y2="5.88168" gradientUnits="userSpaceOnUse">
      <stop stop-color="#CD9542"/>
      <stop offset="0.583333" stop-color="#FCE8A0"/>
      <stop offset="1" stop-color="#CD9542"/>
    </linearGradient>
    <linearGradient id="paint4_linear_72_40094" x1="1.67624e-08" y1="8.78769" x2="0.839802" y2="8.15121" gradientUnits="userSpaceOnUse">
      <stop stop-color="#CD9542"/>
      <stop offset="0.583333" stop-color="#FCE8A0"/>
      <stop offset="1" stop-color="#CD9542"/>
    </linearGradient>
    <linearGradient id="paint5_linear_72_40094" x1="2.89807" y1="6.51816" x2="3.73787" y2="5.88168" gradientUnits="userSpaceOnUse">
      <stop stop-color="#CD9542"/>
      <stop offset="0.583333" stop-color="#FCE8A0"/>
      <stop offset="1" stop-color="#CD9542"/>
    </linearGradient>
    <linearGradient id="paint6_linear_72_40094" x1="5.79138" y1="6.51816" x2="6.63119" y2="5.88168" gradientUnits="userSpaceOnUse">
      <stop stop-color="#CD9542"/>
      <stop offset="0.583333" stop-color="#FCE8A0"/>
      <stop offset="1" stop-color="#CD9542"/>
    </linearGradient>
    <linearGradient id="paint7_linear_72_40094" x1="8.68945" y1="8.78769" x2="9.52926" y2="8.15121" gradientUnits="userSpaceOnUse">
      <stop stop-color="#CD9542"/>
      <stop offset="0.583333" stop-color="#FCE8A0"/>
      <stop offset="1" stop-color="#CD9542"/>
    </linearGradient>
    <linearGradient id="paint8_linear_72_40094" x1="1.67624e-08" y1="11.0514" x2="0.839804" y2="10.4149" gradientUnits="userSpaceOnUse">
      <stop stop-color="#CD9542"/>
      <stop offset="0.583333" stop-color="#FCE8A0"/>
      <stop offset="1" stop-color="#CD9542"/>
    </linearGradient>
    <linearGradient id="paint9_linear_72_40094" x1="2.89807" y1="8.78769" x2="3.73787" y2="8.15121" gradientUnits="userSpaceOnUse">
      <stop stop-color="#CD9542"/>
      <stop offset="0.583333" stop-color="#FCE8A0"/>
      <stop offset="1" stop-color="#CD9542"/>
    </linearGradient>
    <linearGradient id="paint10_linear_72_40094" x1="2.89807" y1="13.317" x2="3.73787" y2="12.6805" gradientUnits="userSpaceOnUse">
      <stop stop-color="#CD9542"/>
      <stop offset="0.583333" stop-color="#FCE8A0"/>
      <stop offset="1" stop-color="#CD9542"/>
    </linearGradient>
    <linearGradient id="paint11_linear_72_40094" x1="5.79138" y1="8.78769" x2="6.63118" y2="8.15121" gradientUnits="userSpaceOnUse">
      <stop stop-color="#CD9542"/>
      <stop offset="0.583333" stop-color="#FCE8A0"/>
      <stop offset="1" stop-color="#CD9542"/>
    </linearGradient>
    <linearGradient id="paint12_linear_72_40094" x1="5.79138" y1="13.317" x2="6.63118" y2="12.6805" gradientUnits="userSpaceOnUse">
      <stop stop-color="#CD9542"/>
      <stop offset="0.583333" stop-color="#FCE8A0"/>
      <stop offset="1" stop-color="#CD9542"/>
    </linearGradient>
    <linearGradient id="paint13_linear_72_40094" x1="8.68945" y1="11.0514" x2="9.52926" y2="10.4149" gradientUnits="userSpaceOnUse">
      <stop stop-color="#CD9542"/>
      <stop offset="0.583333" stop-color="#FCE8A0"/>
      <stop offset="1" stop-color="#CD9542"/>
    </linearGradient>
    <linearGradient id="paint14_linear_72_40094" x1="1.67624e-08" y1="13.317" x2="0.839803" y2="12.6805" gradientUnits="userSpaceOnUse">
      <stop stop-color="#CD9542"/>
      <stop offset="0.583333" stop-color="#FCE8A0"/>
      <stop offset="1" stop-color="#CD9542"/>
    </linearGradient>
    <linearGradient id="paint15_linear_72_40094" x1="2.89807" y1="11.0514" x2="3.73787" y2="10.4149" gradientUnits="userSpaceOnUse">
      <stop stop-color="#CD9542"/>
      <stop offset="0.583333" stop-color="#FCE8A0"/>
      <stop offset="1" stop-color="#CD9542"/>
    </linearGradient>
    <linearGradient id="paint16_linear_72_40094" x1="2.89807" y1="15.5816" x2="3.73787" y2="14.9452" gradientUnits="userSpaceOnUse">
      <stop stop-color="#CD9542"/>
      <stop offset="0.583333" stop-color="#FCE8A0"/>
      <stop offset="1" stop-color="#CD9542"/>
    </linearGradient>
    <linearGradient id="paint17_linear_72_40094" x1="5.79138" y1="11.0514" x2="6.63119" y2="10.4149" gradientUnits="userSpaceOnUse">
      <stop stop-color="#CD9542"/>
      <stop offset="0.583333" stop-color="#FCE8A0"/>
      <stop offset="1" stop-color="#CD9542"/>
    </linearGradient>
    <linearGradient id="paint18_linear_72_40094" x1="5.79138" y1="15.5816" x2="6.63118" y2="14.9452" gradientUnits="userSpaceOnUse">
      <stop stop-color="#CD9542"/>
      <stop offset="0.583333" stop-color="#FCE8A0"/>
      <stop offset="1" stop-color="#CD9542"/>
    </linearGradient>
    <linearGradient id="paint19_linear_72_40094" x1="8.68945" y1="13.317" x2="9.52926" y2="12.6805" gradientUnits="userSpaceOnUse">
      <stop stop-color="#CD9542"/>
      <stop offset="0.583333" stop-color="#FCE8A0"/>
      <stop offset="1" stop-color="#CD9542"/>
    </linearGradient>
    <linearGradient id="paint20_linear_72_40094" x1="14.0273" y1="25.1265" x2="26.0882" y2="15.935" gradientUnits="userSpaceOnUse">
      <stop stop-color="#CD9542"/>
      <stop offset="0.583333" stop-color="#FCE8A0"/>
      <stop offset="1" stop-color="#CD9542"/>
    </linearGradient>
    <linearGradient id="paint21_linear_72_40094" x1="3.875" y1="13.4673" x2="21.1392" y2="13.4673" gradientUnits="userSpaceOnUse">
      <stop stop-color="#007067"/>
      <stop offset="1" stop-color="#00978C"/>
    </linearGradient>
  </defs>
</svg>
