<svg width="24" height="25" viewBox="0 0 24 25" fill="none" xmlns="http://www.w3.org/2000/svg">
  <path fill-rule="evenodd" clip-rule="evenodd" d="M16 11.9004H10.336L11.586 10.5904C11.967 10.1914 11.952 9.55839 11.553 9.17639C11.153 8.79639 10.521 8.81039 10.139 9.21039L7.276 12.2104C7.238 12.2504 7.221 12.3004 7.19 12.3454C7.149 12.4044 7.103 12.4584 7.076 12.5264C7.039 12.6174 7.027 12.7124 7.019 12.8094C7.016 12.8404 7 12.8684 7 12.9004C7 12.9024 7.001 12.9034 7.001 12.9054C7.002 13.0354 7.027 13.1644 7.078 13.2864C7.128 13.4074 7.202 13.5164 7.293 13.6084L10.293 16.6074C10.488 16.8024 10.744 16.9004 11 16.9004C11.256 16.9004 11.512 16.8024 11.707 16.6074C12.098 16.2164 12.098 15.5844 11.707 15.1934L10.414 13.9004H16C16.552 13.9004 17 13.4524 17 12.9004C17 12.3484 16.552 11.9004 16 11.9004ZM12 20.9004C7.589 20.9004 4 17.3114 4 12.9004C4 8.48939 7.589 4.90039 12 4.90039C16.411 4.90039 20 8.48939 20 12.9004C20 17.3114 16.411 20.9004 12 20.9004ZM12 2.90039C6.486 2.90039 2 7.38639 2 12.9004C2 18.4144 6.486 22.9004 12 22.9004C17.514 22.9004 22 18.4144 22 12.9004C22 7.38639 17.514 2.90039 12 2.90039Z" fill="#242525"/>
  <mask id="mask0_71_19687" style="mask-type:alpha" maskUnits="userSpaceOnUse" x="2" y="2" width="20" height="21">
    <path fill-rule="evenodd" clip-rule="evenodd" d="M16 11.9004H10.336L11.586 10.5904C11.967 10.1914 11.952 9.55839 11.553 9.17639C11.153 8.79639 10.521 8.81039 10.139 9.21039L7.276 12.2104C7.238 12.2504 7.221 12.3004 7.19 12.3454C7.149 12.4044 7.103 12.4584 7.076 12.5264C7.039 12.6174 7.027 12.7124 7.019 12.8094C7.016 12.8404 7 12.8684 7 12.9004C7 12.9024 7.001 12.9034 7.001 12.9054C7.002 13.0354 7.027 13.1644 7.078 13.2864C7.128 13.4074 7.202 13.5164 7.293 13.6084L10.293 16.6074C10.488 16.8024 10.744 16.9004 11 16.9004C11.256 16.9004 11.512 16.8024 11.707 16.6074C12.098 16.2164 12.098 15.5844 11.707 15.1934L10.414 13.9004H16C16.552 13.9004 17 13.4524 17 12.9004C17 12.3484 16.552 11.9004 16 11.9004ZM12 20.9004C7.589 20.9004 4 17.3114 4 12.9004C4 8.48939 7.589 4.90039 12 4.90039C16.411 4.90039 20 8.48939 20 12.9004C20 17.3114 16.411 20.9004 12 20.9004ZM12 2.90039C6.486 2.90039 2 7.38639 2 12.9004C2 18.4144 6.486 22.9004 12 22.9004C17.514 22.9004 22 18.4144 22 12.9004C22 7.38639 17.514 2.90039 12 2.90039Z" fill="white"/>
  </mask>
  <g mask="url(#mask0_71_19687)">
    <rect y="0.900391" width="24" height="24" fill="#00978C"/>
  </g>
</svg>
