<svg width="24" height="24" viewBox="0 0 24 24" fill="none" xmlns="http://www.w3.org/2000/svg">
  <path fill-rule="evenodd" clip-rule="evenodd" d="M12 7.99953C12.228 7.99953 12.455 8.07653 12.64 8.23153L18.64 13.2315C19.064 13.5845 19.122 14.2155 18.768 14.6395C18.415 15.0635 17.785 15.1205 17.36 14.7675L11.989 10.2915L6.62697 14.6065C6.19697 14.9525 5.56697 14.8845 5.22097 14.4545C4.87497 14.0245 4.94297 13.3955 5.37297 13.0485L11.373 8.22053C11.556 8.07353 11.778 7.99953 12 7.99953Z" fill="white"/>
  <mask id="mask0_71_19717" style="mask-type:alpha" maskUnits="userSpaceOnUse" x="5" y="8" width="14" height="7">
    <path fill-rule="evenodd" clip-rule="evenodd" d="M12 7.99953C12.228 7.99953 12.455 8.07653 12.64 8.23153L18.64 13.2315C19.064 13.5845 19.122 14.2155 18.768 14.6395C18.415 15.0635 17.785 15.1205 17.36 14.7675L11.989 10.2915L6.62697 14.6065C6.19697 14.9525 5.56697 14.8845 5.22097 14.4545C4.87497 14.0245 4.94297 13.3955 5.37297 13.0485L11.373 8.22053C11.556 8.07353 11.778 7.99953 12 7.99953Z" fill="white"/>
  </mask>
  <g mask="url(#mask0_71_19717)">
    <rect x="24" y="24" width="24" height="24" transform="rotate(180 24 24)" fill="white"/>
  </g>
</svg>
