<svg width="20" height="20" viewBox="0 0 20 20" fill="none" xmlns="http://www.w3.org/2000/svg">
  <path fill-rule="evenodd" clip-rule="evenodd" d="M13.3333 9.99975C13.3333 10.1898 13.2691 10.3789 13.1399 10.5331L8.97328 15.5331C8.67911 15.8864 8.15328 15.9348 7.79995 15.6398C7.44661 15.3456 7.39911 14.8206 7.69328 14.4664L11.4233 9.99058L7.82745 5.52225C7.53911 5.16392 7.59578 4.63892 7.95411 4.35058C8.31245 4.06225 8.83661 4.11892 9.12578 4.47725L13.1491 9.47725C13.2716 9.62975 13.3333 9.81475 13.3333 9.99975Z" fill="#242525"/>
  <mask id="mask0_72_16068" style="mask-type:alpha" maskUnits="userSpaceOnUse" x="7" y="4" width="7" height="12">
    <path fill-rule="evenodd" clip-rule="evenodd" d="M13.3333 9.99975C13.3333 10.1898 13.2691 10.3789 13.1399 10.5331L8.97328 15.5331C8.67911 15.8864 8.15328 15.9348 7.79995 15.6398C7.44661 15.3456 7.39911 14.8206 7.69328 14.4664L11.4233 9.99058L7.82745 5.52225C7.53911 5.16392 7.59578 4.63892 7.95411 4.35058C8.31245 4.06225 8.83661 4.11892 9.12578 4.47725L13.1491 9.47725C13.2716 9.62975 13.3333 9.81475 13.3333 9.99975Z" fill="white"/>
  </mask>
  <g mask="url(#mask0_72_16068)">
    <rect y="20" width="20" height="20" transform="rotate(-90 0 20)" fill="#242525"/>
  </g>
</svg>
