<svg width="24" height="24" viewBox="0 0 24 24" fill="none" xmlns="http://www.w3.org/2000/svg">
  <mask id="mask0_71_23234" style="mask-type:alpha" maskUnits="userSpaceOnUse" x="5" y="5" width="14" height="14">
    <path fill-rule="evenodd" clip-rule="evenodd" d="M18.7685 6.63982L14.2925 12.0108L18.6075 17.3728C18.9535 17.8028 18.8855 18.4318 18.4555 18.7788C18.2705 18.9278 18.0485 18.9998 17.8285 18.9998C17.5365 18.9998 17.2465 18.8718 17.0485 18.6268L12.2205 12.6268C11.9225 12.2558 11.9265 11.7248 12.2315 11.3598L17.2315 5.35982C17.5855 4.93482 18.2155 4.87882 18.6405 5.23182C19.0645 5.58482 19.1215 6.21582 18.7685 6.63982ZM10.2321 5.35952C10.5851 4.93552 11.2151 4.87852 11.6401 5.23152C12.0641 5.58552 12.1211 6.21552 11.7681 6.63952L7.2921 12.0105L11.6071 17.3725C11.9531 17.8025 11.8851 18.4325 11.4551 18.7785C11.2701 18.9275 11.0491 18.9995 10.8281 18.9995C10.5361 18.9995 10.2461 18.8725 10.0491 18.6265L5.2211 12.6265C4.9221 12.2555 4.9271 11.7255 5.2321 11.3595L10.2321 5.35952Z" fill="white"/>
  </mask>
  <g mask="url(#mask0_71_23234)">
    <rect width="24" height="24" fill="#949BA1"/>
  </g>
</svg>
