<svg width="36" height="43" viewBox="0 0 36 43" fill="none" xmlns="http://www.w3.org/2000/svg">
  <path d="M22.246 37.5395C22.246 37.946 22.2832 38.3412 22.2403 38.7307C22.0456 40.5017 21.0979 41.7838 19.5147 42.5599C18.4897 43.0631 17.3617 43.1284 16.2623 42.7987C14.4614 42.2614 13.3248 41.0504 12.8953 39.2338C12.7922 38.8017 12.8295 38.3298 12.838 37.8778C12.8438 37.6078 12.8037 37.5054 12.4888 37.5083C9.55699 37.5253 6.62522 37.5253 3.69346 37.5225C2.27625 37.5196 1.16825 36.9425 0.455349 35.7088C-0.606843 33.878 0.295018 31.4958 2.11306 30.8277C2.49098 30.6884 2.62554 30.5065 2.62268 30.0886C2.61123 26.8023 2.59405 23.5161 2.65417 20.2326C2.68853 18.3735 3.20101 16.6024 3.99694 14.9138C4.65258 13.5237 5.47141 12.2359 6.53074 11.1243C7.73036 9.865 9.076 8.75915 10.6621 8.00013C11.6356 7.53391 12.6519 7.15298 13.6798 6.71803C12.944 5.46152 12.8409 4.09414 13.425 2.69833C13.7657 1.88245 14.3211 1.20587 15.0712 0.736805C16.8921 -0.403152 19.0079 -0.189943 20.5368 1.16607C21.9053 2.37709 22.601 4.4836 21.3757 6.78341C21.954 6.99094 22.5295 7.19562 23.1049 7.40598C24.2187 7.8125 25.2351 8.39527 26.1999 9.0747C27.3594 9.89058 28.373 10.8628 29.2491 11.9601C30.7292 13.8136 31.6855 15.923 32.1894 18.2398C32.4528 19.4509 32.4872 20.6733 32.49 21.9014C32.4986 24.6645 32.4958 27.4277 32.4843 30.1909C32.4843 30.4525 32.5816 30.5093 32.8164 30.5406C34.2909 30.7481 35.3244 31.5128 35.8255 32.9342C36.4181 34.6086 35.4561 36.6753 33.7526 37.2524C33.243 37.4258 32.6818 37.5111 32.1436 37.5139C28.8912 37.5338 25.6387 37.5168 22.3892 37.5139C22.3434 37.5111 22.3004 37.5282 22.246 37.5395ZM15.8815 4.46086C15.8672 5.31653 16.6087 6.09546 17.4647 6.1182C18.3695 6.14379 19.194 5.37623 19.2112 4.49781C19.2284 3.57106 18.5069 2.85468 17.5392 2.83478C16.6087 2.81773 15.8958 3.51705 15.8815 4.46086Z" fill="url(#paint0_linear_169_6304)"/>
  <defs>
    <linearGradient id="paint0_linear_169_6304" x1="-0.0964499" y1="24.7911" x2="35.9332" y2="24.6847" gradientUnits="userSpaceOnUse">
      <stop stop-color="#CD9542"/>
      <stop offset="0.583333" stop-color="#FCE8A0"/>
      <stop offset="1" stop-color="#CD9542"/>
    </linearGradient>
  </defs>
</svg>
