<svg width="28" height="28" viewBox="0 0 28 28" fill="none" xmlns="http://www.w3.org/2000/svg">
  <mask id="mask0_169_6527" style="mask-type:alpha" maskUnits="userSpaceOnUse" x="6" y="7" width="16" height="14">
    <path fill-rule="evenodd" clip-rule="evenodd" d="M15.6498 14.0003L20.6583 8.99179C21.1145 8.53563 21.1145 7.79829 20.6583 7.34213C20.2021 6.88596 19.4648 6.88596 19.0086 7.34213L14.0001 12.3506L8.99164 7.34213C8.53547 6.88596 7.79814 6.88596 7.34197 7.34213C6.88581 7.79829 6.88581 8.53563 7.34197 8.99179L12.3505 14.0003L7.34197 19.0088C6.88581 19.465 6.88581 20.2023 7.34197 20.6585C7.56947 20.886 7.86814 21.0003 8.16681 21.0003C8.46547 21.0003 8.76414 20.886 8.99164 20.6585L14.0001 15.65L19.0086 20.6585C19.2361 20.886 19.5348 21.0003 19.8335 21.0003C20.1321 21.0003 20.4308 20.886 20.6583 20.6585C21.1145 20.2023 21.1145 19.465 20.6583 19.0088L15.6498 14.0003Z" fill="white"/>
  </mask>
  <g mask="url(#mask0_169_6527)">
    <rect width="28" height="28" fill="white"/>
  </g>
</svg>
