<svg width="25" height="24" viewBox="0 0 25 24" fill="none" xmlns="http://www.w3.org/2000/svg">
  <path d="M1.05513 2.86643C1.05513 3.06611 0.893256 3.22798 0.693579 3.22798C0.493902 3.22798 0.332031 3.06611 0.332031 2.86643C0.332031 2.66675 0.493902 2.50488 0.693579 2.50488C0.893256 2.50488 1.05513 2.66675 1.05513 2.86643Z" fill="url(#paint0_linear_118_4593)"/>
  <path d="M3.84346 0.695532C3.84346 0.89521 3.68159 1.05708 3.48191 1.05708C3.28223 1.05708 3.12036 0.89521 3.12036 0.695532C3.12036 0.495855 3.28223 0.333984 3.48191 0.333984C3.68159 0.333984 3.84346 0.495855 3.84346 0.695532Z" fill="url(#paint1_linear_118_4593)"/>
  <path d="M6.63643 0.695532C6.63643 0.89521 6.47456 1.05708 6.27488 1.05708C6.0752 1.05708 5.91333 0.89521 5.91333 0.695532C5.91333 0.495855 6.0752 0.333984 6.27488 0.333984C6.47456 0.333984 6.63643 0.495855 6.63643 0.695532Z" fill="url(#paint2_linear_118_4593)"/>
  <path d="M9.42402 2.86643C9.42402 3.06611 9.26215 3.22798 9.06248 3.22798C8.8628 3.22798 8.70093 3.06611 8.70093 2.86643C8.70093 2.66675 8.8628 2.50488 9.06248 2.50488C9.26215 2.50488 9.42402 2.66675 9.42402 2.86643Z" fill="url(#paint3_linear_118_4593)"/>
  <path d="M1.05513 5.03342C1.05513 5.2331 0.893256 5.39497 0.693579 5.39497C0.493902 5.39497 0.332031 5.2331 0.332031 5.03342C0.332031 4.83375 0.493902 4.67188 0.693579 4.67188C0.893256 4.67188 1.05513 4.83375 1.05513 5.03342Z" fill="url(#paint4_linear_118_4593)"/>
  <path d="M3.84346 2.86643C3.84346 3.06611 3.68159 3.22798 3.48191 3.22798C3.28223 3.22798 3.12036 3.06611 3.12036 2.86643C3.12036 2.66675 3.28223 2.50488 3.48191 2.50488C3.68159 2.50488 3.84346 2.66675 3.84346 2.86643Z" fill="url(#paint5_linear_118_4593)"/>
  <path d="M6.63643 2.86643C6.63643 3.06611 6.47456 3.22798 6.27488 3.22798C6.0752 3.22798 5.91333 3.06611 5.91333 2.86643C5.91333 2.66675 6.0752 2.50488 6.27488 2.50488C6.47456 2.50488 6.63643 2.66675 6.63643 2.86643Z" fill="url(#paint6_linear_118_4593)"/>
  <path d="M9.42402 5.03342C9.42402 5.2331 9.26215 5.39497 9.06248 5.39497C8.8628 5.39497 8.70093 5.2331 8.70093 5.03342C8.70093 4.83375 8.8628 4.67188 9.06248 4.67188C9.26215 4.67188 9.42402 4.83375 9.42402 5.03342Z" fill="url(#paint7_linear_118_4593)"/>
  <path d="M1.05513 7.20334C1.05513 7.40302 0.893256 7.56489 0.693579 7.56489C0.493902 7.56489 0.332031 7.40302 0.332031 7.20334C0.332031 7.00367 0.493902 6.8418 0.693579 6.8418C0.893256 6.8418 1.05513 7.00367 1.05513 7.20334Z" fill="url(#paint8_linear_118_4593)"/>
  <path d="M3.84346 5.03342C3.84346 5.2331 3.68159 5.39497 3.48191 5.39497C3.28223 5.39497 3.12036 5.2331 3.12036 5.03342C3.12036 4.83375 3.28223 4.67188 3.48191 4.67188C3.68159 4.67188 3.84346 4.83375 3.84346 5.03342Z" fill="url(#paint9_linear_118_4593)"/>
  <path d="M3.84346 9.37327C3.84346 9.57294 3.68159 9.73482 3.48191 9.73482C3.28223 9.73482 3.12036 9.57294 3.12036 9.37327C3.12036 9.17359 3.28223 9.01172 3.48191 9.01172C3.68159 9.01172 3.84346 9.17359 3.84346 9.37327Z" fill="url(#paint10_linear_118_4593)"/>
  <path d="M6.63643 5.03342C6.63643 5.2331 6.47456 5.39497 6.27488 5.39497C6.0752 5.39497 5.91333 5.2331 5.91333 5.03342C5.91333 4.83375 6.0752 4.67188 6.27488 4.67188C6.47456 4.67188 6.63643 4.83375 6.63643 5.03342Z" fill="url(#paint11_linear_118_4593)"/>
  <path d="M6.63643 9.37327C6.63643 9.57294 6.47456 9.73482 6.27488 9.73482C6.0752 9.73482 5.91333 9.57294 5.91333 9.37327C5.91333 9.17359 6.0752 9.01172 6.27488 9.01172C6.47456 9.01172 6.63643 9.17359 6.63643 9.37327Z" fill="url(#paint12_linear_118_4593)"/>
  <path d="M9.42402 7.20334C9.42402 7.40302 9.26215 7.56489 9.06248 7.56489C8.8628 7.56489 8.70093 7.40302 8.70093 7.20334C8.70093 7.00367 8.8628 6.8418 9.06248 6.8418C9.26215 6.8418 9.42402 7.00367 9.42402 7.20334Z" fill="url(#paint13_linear_118_4593)"/>
  <path d="M1.05513 9.37327C1.05513 9.57294 0.893256 9.73482 0.693579 9.73482C0.493902 9.73482 0.332031 9.57294 0.332031 9.37327C0.332031 9.17359 0.493902 9.01172 0.693579 9.01172C0.893256 9.01172 1.05513 9.17359 1.05513 9.37327Z" fill="url(#paint14_linear_118_4593)"/>
  <path d="M3.84346 7.20334C3.84346 7.40302 3.68159 7.56489 3.48191 7.56489C3.28223 7.56489 3.12036 7.40302 3.12036 7.20334C3.12036 7.00367 3.28223 6.8418 3.48191 6.8418C3.68159 6.8418 3.84346 7.00367 3.84346 7.20334Z" fill="url(#paint15_linear_118_4593)"/>
  <path d="M3.84346 11.5403C3.84346 11.7399 3.68159 11.9018 3.48191 11.9018C3.28223 11.9018 3.12036 11.7399 3.12036 11.5403C3.12036 11.3406 3.28223 11.1787 3.48191 11.1787C3.68159 11.1787 3.84346 11.3406 3.84346 11.5403Z" fill="url(#paint16_linear_118_4593)"/>
  <path d="M6.63643 7.20334C6.63643 7.40302 6.47456 7.56489 6.27488 7.56489C6.0752 7.56489 5.91333 7.40302 5.91333 7.20334C5.91333 7.00367 6.0752 6.8418 6.27488 6.8418C6.47456 6.8418 6.63643 7.00367 6.63643 7.20334Z" fill="url(#paint17_linear_118_4593)"/>
  <path d="M6.63643 11.5403C6.63643 11.7399 6.47456 11.9018 6.27488 11.9018C6.0752 11.9018 5.91333 11.7399 5.91333 11.5403C5.91333 11.3406 6.0752 11.1787 6.27488 11.1787C6.47456 11.1787 6.63643 11.3406 6.63643 11.5403Z" fill="url(#paint18_linear_118_4593)"/>
  <path d="M9.42402 9.37327C9.42402 9.57294 9.26215 9.73482 9.06248 9.73482C8.8628 9.73482 8.70093 9.57294 8.70093 9.37327C8.70093 9.17359 8.8628 9.01172 9.06248 9.01172C9.26215 9.01172 9.42402 9.17359 9.42402 9.37327Z" fill="url(#paint19_linear_118_4593)"/>
  <path d="M24.2612 18.3694C24.2612 21.3608 21.8363 23.7858 18.8449 23.7858C15.8536 23.7858 13.4286 21.3608 13.4286 18.3694C13.4286 15.3781 15.8536 12.9531 18.8449 12.9531C21.8363 12.9531 24.2612 15.3781 24.2612 18.3694Z" fill="url(#paint20_linear_118_4593)"/>
  <g filter="url(#filter0_b_118_4593)">
    <path d="M4.9989 10.835L12.5822 3.83496L20.1656 10.835V21.335H4.9989V10.835Z" fill="white" fill-opacity="0.15"/>
  </g>
  <path fill-rule="evenodd" clip-rule="evenodd" d="M19.3783 20.1559H16.4714V13.3503C16.4714 12.8127 16.0358 12.3781 15.4992 12.3781H9.66583C9.12819 12.3781 8.6936 12.8127 8.6936 13.3503V20.1559H5.77694L5.78277 11.9727L12.5805 5.02034L19.388 12.0126L19.3783 20.1559ZM10.6376 20.156H14.5265V14.3227H10.6376V20.156ZM20.7723 10.6137L13.2774 2.9487C12.9109 2.57439 12.2537 2.57439 11.8871 2.9487L4.3913 10.6147C4.03644 10.9793 3.83228 11.4887 3.83228 12.0127V20.1561C3.83228 21.2284 4.65575 22.1005 5.66783 22.1005H9.66561H15.4989H19.4957C20.5078 22.1005 21.3323 21.2284 21.3323 20.1561V12.0127C21.3323 11.4887 21.1281 10.9793 20.7723 10.6137Z" fill="url(#paint21_linear_118_4593)"/>
  <defs>
    <filter id="filter0_b_118_4593" x="0.998901" y="-0.165039" width="23.1666" height="25.5" filterUnits="userSpaceOnUse" color-interpolation-filters="sRGB">
      <feFlood flood-opacity="0" result="BackgroundImageFix"/>
      <feGaussianBlur in="BackgroundImage" stdDeviation="2"/>
      <feComposite in2="SourceAlpha" operator="in" result="effect1_backgroundBlur_118_4593"/>
      <feBlend mode="normal" in="SourceGraphic" in2="effect1_backgroundBlur_118_4593" result="shape"/>
    </filter>
    <linearGradient id="paint0_linear_118_4593" x1="0.332031" y1="3.22524" x2="1.13711" y2="2.61169" gradientUnits="userSpaceOnUse">
      <stop stop-color="#CD9542"/>
      <stop offset="0.583333" stop-color="#FCE8A0"/>
      <stop offset="1" stop-color="#CD9542"/>
    </linearGradient>
    <linearGradient id="paint1_linear_118_4593" x1="3.12036" y1="1.05434" x2="3.92545" y2="0.440786" gradientUnits="userSpaceOnUse">
      <stop stop-color="#CD9542"/>
      <stop offset="0.583333" stop-color="#FCE8A0"/>
      <stop offset="1" stop-color="#CD9542"/>
    </linearGradient>
    <linearGradient id="paint2_linear_118_4593" x1="5.91333" y1="1.05434" x2="6.71841" y2="0.440786" gradientUnits="userSpaceOnUse">
      <stop stop-color="#CD9542"/>
      <stop offset="0.583333" stop-color="#FCE8A0"/>
      <stop offset="1" stop-color="#CD9542"/>
    </linearGradient>
    <linearGradient id="paint3_linear_118_4593" x1="8.70093" y1="3.22524" x2="9.50601" y2="2.61169" gradientUnits="userSpaceOnUse">
      <stop stop-color="#CD9542"/>
      <stop offset="0.583333" stop-color="#FCE8A0"/>
      <stop offset="1" stop-color="#CD9542"/>
    </linearGradient>
    <linearGradient id="paint4_linear_118_4593" x1="0.332031" y1="5.39223" x2="1.13711" y2="4.77868" gradientUnits="userSpaceOnUse">
      <stop stop-color="#CD9542"/>
      <stop offset="0.583333" stop-color="#FCE8A0"/>
      <stop offset="1" stop-color="#CD9542"/>
    </linearGradient>
    <linearGradient id="paint5_linear_118_4593" x1="3.12036" y1="3.22524" x2="3.92545" y2="2.61169" gradientUnits="userSpaceOnUse">
      <stop stop-color="#CD9542"/>
      <stop offset="0.583333" stop-color="#FCE8A0"/>
      <stop offset="1" stop-color="#CD9542"/>
    </linearGradient>
    <linearGradient id="paint6_linear_118_4593" x1="5.91333" y1="3.22524" x2="6.71841" y2="2.61169" gradientUnits="userSpaceOnUse">
      <stop stop-color="#CD9542"/>
      <stop offset="0.583333" stop-color="#FCE8A0"/>
      <stop offset="1" stop-color="#CD9542"/>
    </linearGradient>
    <linearGradient id="paint7_linear_118_4593" x1="8.70093" y1="5.39223" x2="9.50601" y2="4.77868" gradientUnits="userSpaceOnUse">
      <stop stop-color="#CD9542"/>
      <stop offset="0.583333" stop-color="#FCE8A0"/>
      <stop offset="1" stop-color="#CD9542"/>
    </linearGradient>
    <linearGradient id="paint8_linear_118_4593" x1="0.332031" y1="7.56215" x2="1.13711" y2="6.9486" gradientUnits="userSpaceOnUse">
      <stop stop-color="#CD9542"/>
      <stop offset="0.583333" stop-color="#FCE8A0"/>
      <stop offset="1" stop-color="#CD9542"/>
    </linearGradient>
    <linearGradient id="paint9_linear_118_4593" x1="3.12036" y1="5.39223" x2="3.92545" y2="4.77868" gradientUnits="userSpaceOnUse">
      <stop stop-color="#CD9542"/>
      <stop offset="0.583333" stop-color="#FCE8A0"/>
      <stop offset="1" stop-color="#CD9542"/>
    </linearGradient>
    <linearGradient id="paint10_linear_118_4593" x1="3.12036" y1="9.73207" x2="3.92545" y2="9.11852" gradientUnits="userSpaceOnUse">
      <stop stop-color="#CD9542"/>
      <stop offset="0.583333" stop-color="#FCE8A0"/>
      <stop offset="1" stop-color="#CD9542"/>
    </linearGradient>
    <linearGradient id="paint11_linear_118_4593" x1="5.91333" y1="5.39223" x2="6.71841" y2="4.77868" gradientUnits="userSpaceOnUse">
      <stop stop-color="#CD9542"/>
      <stop offset="0.583333" stop-color="#FCE8A0"/>
      <stop offset="1" stop-color="#CD9542"/>
    </linearGradient>
    <linearGradient id="paint12_linear_118_4593" x1="5.91333" y1="9.73207" x2="6.71841" y2="9.11852" gradientUnits="userSpaceOnUse">
      <stop stop-color="#CD9542"/>
      <stop offset="0.583333" stop-color="#FCE8A0"/>
      <stop offset="1" stop-color="#CD9542"/>
    </linearGradient>
    <linearGradient id="paint13_linear_118_4593" x1="8.70093" y1="7.56215" x2="9.50601" y2="6.9486" gradientUnits="userSpaceOnUse">
      <stop stop-color="#CD9542"/>
      <stop offset="0.583333" stop-color="#FCE8A0"/>
      <stop offset="1" stop-color="#CD9542"/>
    </linearGradient>
    <linearGradient id="paint14_linear_118_4593" x1="0.332031" y1="9.73207" x2="1.13712" y2="9.11852" gradientUnits="userSpaceOnUse">
      <stop stop-color="#CD9542"/>
      <stop offset="0.583333" stop-color="#FCE8A0"/>
      <stop offset="1" stop-color="#CD9542"/>
    </linearGradient>
    <linearGradient id="paint15_linear_118_4593" x1="3.12036" y1="7.56215" x2="3.92544" y2="6.9486" gradientUnits="userSpaceOnUse">
      <stop stop-color="#CD9542"/>
      <stop offset="0.583333" stop-color="#FCE8A0"/>
      <stop offset="1" stop-color="#CD9542"/>
    </linearGradient>
    <linearGradient id="paint16_linear_118_4593" x1="3.12036" y1="11.8991" x2="3.92545" y2="11.2855" gradientUnits="userSpaceOnUse">
      <stop stop-color="#CD9542"/>
      <stop offset="0.583333" stop-color="#FCE8A0"/>
      <stop offset="1" stop-color="#CD9542"/>
    </linearGradient>
    <linearGradient id="paint17_linear_118_4593" x1="5.91333" y1="7.56215" x2="6.71841" y2="6.9486" gradientUnits="userSpaceOnUse">
      <stop stop-color="#CD9542"/>
      <stop offset="0.583333" stop-color="#FCE8A0"/>
      <stop offset="1" stop-color="#CD9542"/>
    </linearGradient>
    <linearGradient id="paint18_linear_118_4593" x1="5.91333" y1="11.8991" x2="6.71841" y2="11.2855" gradientUnits="userSpaceOnUse">
      <stop stop-color="#CD9542"/>
      <stop offset="0.583333" stop-color="#FCE8A0"/>
      <stop offset="1" stop-color="#CD9542"/>
    </linearGradient>
    <linearGradient id="paint19_linear_118_4593" x1="8.70093" y1="9.73207" x2="9.50601" y2="9.11852" gradientUnits="userSpaceOnUse">
      <stop stop-color="#CD9542"/>
      <stop offset="0.583333" stop-color="#FCE8A0"/>
      <stop offset="1" stop-color="#CD9542"/>
    </linearGradient>
    <linearGradient id="paint20_linear_118_4593" x1="13.4286" y1="23.7447" x2="25.4895" y2="14.5531" gradientUnits="userSpaceOnUse">
      <stop stop-color="#CD9542"/>
      <stop offset="0.583333" stop-color="#FCE8A0"/>
      <stop offset="1" stop-color="#CD9542"/>
    </linearGradient>
    <linearGradient id="paint21_linear_118_4593" x1="3.83228" y1="12.3474" x2="21.3466" y2="12.3474" gradientUnits="userSpaceOnUse">
      <stop stop-color="#007067"/>
      <stop offset="1" stop-color="#00978C"/>
    </linearGradient>
  </defs>
</svg>
