<svg width="20" height="20" viewBox="0 0 20 20" fill="none" xmlns="http://www.w3.org/2000/svg">
  <path fill-rule="evenodd" clip-rule="evenodd" d="M8.33332 13.3337C8.33332 13.7921 7.95832 14.1671 7.49999 14.1671C7.04166 14.1671 6.66666 13.7921 6.66666 13.3337V10.0004C6.66666 9.54205 7.04166 9.16705 7.49999 9.16705C7.95832 9.16705 8.33332 9.54205 8.33332 10.0004V13.3337ZM13.3333 13.3337C13.3333 13.7921 12.9583 14.1671 12.5 14.1671C12.0417 14.1671 11.6667 13.7921 11.6667 13.3337V10.0004C11.6667 9.54205 12.0417 9.16705 12.5 9.16705C12.9583 9.16705 13.3333 9.54205 13.3333 10.0004V13.3337ZM15 15.8336C15 16.2927 14.6267 16.6669 14.1667 16.6669H5.83332C5.37332 16.6669 4.99999 16.2927 4.99999 15.8336V6.66691H15V15.8336ZM8.33332 3.60704C8.33332 3.47787 8.51166 3.33371 8.74999 3.33371H11.25C11.4883 3.33371 11.6667 3.47787 11.6667 3.60704V5.00037H8.33332V3.60704ZM17.5 5.00033H16.6667H13.3333V3.60699C13.3333 2.53699 12.3992 1.66699 11.25 1.66699H8.74999C7.60082 1.66699 6.66666 2.53699 6.66666 3.60699V5.00033H3.33332H2.49999C2.04166 5.00033 1.66666 5.37533 1.66666 5.83366C1.66666 6.29199 2.04166 6.66699 2.49999 6.66699H3.33332V15.8337C3.33332 17.212 4.45499 18.3337 5.83332 18.3337H14.1667C15.545 18.3337 16.6667 17.212 16.6667 15.8337V6.66699H17.5C17.9583 6.66699 18.3333 6.29199 18.3333 5.83366C18.3333 5.37533 17.9583 5.00033 17.5 5.00033Z" fill="#242525"/>
  <mask id="mask0_72_15104" style="mask-type:alpha" maskUnits="userSpaceOnUse" x="1" y="1" width="18" height="18">
    <path fill-rule="evenodd" clip-rule="evenodd" d="M8.33332 13.3337C8.33332 13.7921 7.95832 14.1671 7.49999 14.1671C7.04166 14.1671 6.66666 13.7921 6.66666 13.3337V10.0004C6.66666 9.54205 7.04166 9.16705 7.49999 9.16705C7.95832 9.16705 8.33332 9.54205 8.33332 10.0004V13.3337ZM13.3333 13.3337C13.3333 13.7921 12.9583 14.1671 12.5 14.1671C12.0417 14.1671 11.6667 13.7921 11.6667 13.3337V10.0004C11.6667 9.54205 12.0417 9.16705 12.5 9.16705C12.9583 9.16705 13.3333 9.54205 13.3333 10.0004V13.3337ZM15 15.8336C15 16.2927 14.6267 16.6669 14.1667 16.6669H5.83332C5.37332 16.6669 4.99999 16.2927 4.99999 15.8336V6.66691H15V15.8336ZM8.33332 3.60704C8.33332 3.47787 8.51166 3.33371 8.74999 3.33371H11.25C11.4883 3.33371 11.6667 3.47787 11.6667 3.60704V5.00037H8.33332V3.60704ZM17.5 5.00033H16.6667H13.3333V3.60699C13.3333 2.53699 12.3992 1.66699 11.25 1.66699H8.74999C7.60082 1.66699 6.66666 2.53699 6.66666 3.60699V5.00033H3.33332H2.49999C2.04166 5.00033 1.66666 5.37533 1.66666 5.83366C1.66666 6.29199 2.04166 6.66699 2.49999 6.66699H3.33332V15.8337C3.33332 17.212 4.45499 18.3337 5.83332 18.3337H14.1667C15.545 18.3337 16.6667 17.212 16.6667 15.8337V6.66699H17.5C17.9583 6.66699 18.3333 6.29199 18.3333 5.83366C18.3333 5.37533 17.9583 5.00033 17.5 5.00033Z" fill="white"/>
  </mask>
  <g mask="url(#mask0_72_15104)">
    <rect width="20" height="20" fill="#DF0019"/>
  </g>
</svg>
