<svg width="20" height="20" viewBox="0 0 20 20" fill="none" xmlns="http://www.w3.org/2000/svg">
  <path fill-rule="evenodd" clip-rule="evenodd" d="M13.3488 8.89914L11.103 6.65331L12.7263 5.02914L14.9713 7.27414L13.3488 8.89914ZM7.56633 14.687L5.0855 14.9128L5.3055 12.4495L9.98633 7.76866L12.233 10.0153L7.56633 14.687ZM16.1697 6.11465L16.1688 6.11381L13.8871 3.83215C13.2696 3.21631 12.2088 3.18715 11.6238 3.77465L4.12715 11.2713C3.85548 11.5421 3.68715 11.9021 3.65215 12.283L3.33632 15.758C3.31465 16.0038 3.40215 16.2471 3.57715 16.4221C3.73465 16.5796 3.94715 16.6663 4.16632 16.6663C4.19215 16.6663 4.21715 16.6655 4.24215 16.663L7.71715 16.3471C8.09882 16.3121 8.45798 16.1446 8.72882 15.8738L16.2263 8.37631C16.833 7.76798 16.8071 6.75298 16.1697 6.11465Z" fill="#242525"/>
  <mask id="mask0_72_15113" style="mask-type:alpha" maskUnits="userSpaceOnUse" x="3" y="3" width="14" height="14">
    <path fill-rule="evenodd" clip-rule="evenodd" d="M13.3488 8.89914L11.103 6.65331L12.7263 5.02914L14.9713 7.27414L13.3488 8.89914ZM7.56633 14.687L5.0855 14.9128L5.3055 12.4495L9.98633 7.76866L12.233 10.0153L7.56633 14.687ZM16.1697 6.11465L16.1688 6.11381L13.8871 3.83215C13.2696 3.21631 12.2088 3.18715 11.6238 3.77465L4.12715 11.2713C3.85548 11.5421 3.68715 11.9021 3.65215 12.283L3.33632 15.758C3.31465 16.0038 3.40215 16.2471 3.57715 16.4221C3.73465 16.5796 3.94715 16.6663 4.16632 16.6663C4.19215 16.6663 4.21715 16.6655 4.24215 16.663L7.71715 16.3471C8.09882 16.3121 8.45798 16.1446 8.72882 15.8738L16.2263 8.37631C16.833 7.76798 16.8071 6.75298 16.1697 6.11465Z" fill="white"/>
  </mask>
  <g mask="url(#mask0_72_15113)">
    <rect width="20" height="20" fill="#FFCB05"/>
  </g>
</svg>
