<svg width="16" height="16" viewBox="0 0 16 16" fill="none" xmlns="http://www.w3.org/2000/svg">
  <path fill-rule="evenodd" clip-rule="evenodd" d="M7.33333 5.99967C7.33333 5.63167 7.632 5.33301 8 5.33301C8.368 5.33301 8.66667 5.63167 8.66667 5.99967V8.66634C8.66667 9.03434 8.368 9.33301 8 9.33301C7.632 9.33301 7.33333 9.03434 7.33333 8.66634V5.99967ZM7.33333 10.6663C7.33333 10.2983 7.632 9.99967 8 9.99967C8.368 9.99967 8.66667 10.2983 8.66667 10.6663C8.66667 11.0343 8.368 11.333 8 11.333C7.632 11.333 7.33333 11.0343 7.33333 10.6663ZM13.9098 12.235C13.7571 12.505 13.4598 12.6663 13.1144 12.6663H2.8851C2.53976 12.6663 2.24243 12.505 2.09043 12.235C2.01843 12.1083 1.92376 11.8503 2.10176 11.557L7.21576 3.07834C7.5271 2.56234 8.47243 2.56234 8.78376 3.07834L13.8984 11.557C14.0758 11.8503 13.9818 12.1083 13.9098 12.235ZM15.0405 10.8683L9.9258 2.38901C9.52647 1.72767 8.80647 1.33301 7.9998 1.33301C7.19313 1.33301 6.47313 1.72767 6.07447 2.38901L0.959799 10.8683C0.580466 11.497 0.569133 12.253 0.929133 12.8903C1.31513 13.575 2.06513 13.9997 2.88513 13.9997H13.1145C13.9351 13.9997 14.6845 13.575 15.0711 12.8903C15.4311 12.253 15.4198 11.497 15.0405 10.8683Z" fill="#231F20"/>
  <mask id="mask0_72_38724" style="mask-type:alpha" maskUnits="userSpaceOnUse" x="0" y="1" width="16" height="13">
    <path fill-rule="evenodd" clip-rule="evenodd" d="M7.33333 5.99967C7.33333 5.63167 7.632 5.33301 8 5.33301C8.368 5.33301 8.66667 5.63167 8.66667 5.99967V8.66634C8.66667 9.03434 8.368 9.33301 8 9.33301C7.632 9.33301 7.33333 9.03434 7.33333 8.66634V5.99967ZM7.33333 10.6663C7.33333 10.2983 7.632 9.99967 8 9.99967C8.368 9.99967 8.66667 10.2983 8.66667 10.6663C8.66667 11.0343 8.368 11.333 8 11.333C7.632 11.333 7.33333 11.0343 7.33333 10.6663ZM13.9098 12.235C13.7571 12.505 13.4598 12.6663 13.1144 12.6663H2.8851C2.53976 12.6663 2.24243 12.505 2.09043 12.235C2.01843 12.1083 1.92376 11.8503 2.10176 11.557L7.21576 3.07834C7.5271 2.56234 8.47243 2.56234 8.78376 3.07834L13.8984 11.557C14.0758 11.8503 13.9818 12.1083 13.9098 12.235ZM15.0405 10.8683L9.9258 2.38901C9.52647 1.72767 8.80647 1.33301 7.9998 1.33301C7.19313 1.33301 6.47313 1.72767 6.07447 2.38901L0.959799 10.8683C0.580466 11.497 0.569133 12.253 0.929133 12.8903C1.31513 13.575 2.06513 13.9997 2.88513 13.9997H13.1145C13.9351 13.9997 14.6845 13.575 15.0711 12.8903C15.4311 12.253 15.4198 11.497 15.0405 10.8683Z" fill="white"/>
  </mask>
  <g mask="url(#mask0_72_38724)">
    <rect width="16" height="16" fill="#ED4F4F"/>
  </g>
</svg>
