<svg width="28" height="28" viewBox="0 0 28 28" fill="none" xmlns="http://www.w3.org/2000/svg">
  <path d="M24.8613 19.7503C24.8613 22.7416 22.4363 25.1666 19.445 25.1666C16.4536 25.1666 14.0287 22.7416 14.0287 19.7503C14.0287 16.759 16.4536 14.334 19.445 14.334C22.4363 14.334 24.8613 16.759 24.8613 19.7503Z" fill="url(#paint0_linear_72_40106)"/>
  <g filter="url(#filter0_b_72_40106)">
    <path d="M23.5253 13.511C23.5253 19.0405 19.0428 23.523 13.5133 23.523C7.98383 23.523 3.50131 19.0405 3.50131 13.511C3.50131 7.98154 7.98383 3.49902 13.5133 3.49902C19.0428 3.49902 23.5253 7.98154 23.5253 13.511Z" fill="white" fill-opacity="0.15"/>
  </g>
  <path d="M1.9192 4.97633C1.9192 5.18493 1.75103 5.35403 1.54358 5.35403C1.33614 5.35403 1.16797 5.18493 1.16797 4.97633C1.16797 4.76773 1.33614 4.59863 1.54358 4.59863C1.75103 4.59863 1.9192 4.76773 1.9192 4.97633Z" fill="url(#paint1_linear_72_40106)"/>
  <path d="M4.81727 2.71071C4.81727 2.9193 4.6491 3.08841 4.44165 3.08841C4.23421 3.08841 4.06604 2.9193 4.06604 2.71071C4.06604 2.50211 4.23421 2.33301 4.44165 2.33301C4.6491 2.33301 4.81727 2.50211 4.81727 2.71071Z" fill="url(#paint2_linear_72_40106)"/>
  <path d="M7.71058 2.71071C7.71058 2.9193 7.54241 3.08841 7.33496 3.08841C7.12752 3.08841 6.95935 2.9193 6.95935 2.71071C6.95935 2.50211 7.12752 2.33301 7.33496 2.33301C7.54241 2.33301 7.71058 2.50211 7.71058 2.71071Z" fill="url(#paint3_linear_72_40106)"/>
  <path d="M10.6086 4.97633C10.6086 5.18493 10.4405 5.35403 10.233 5.35403C10.0256 5.35403 9.85742 5.18493 9.85742 4.97633C9.85742 4.76773 10.0256 4.59863 10.233 4.59863C10.4405 4.59863 10.6086 4.76773 10.6086 4.97633Z" fill="url(#paint4_linear_72_40106)"/>
  <path d="M1.9192 7.24586C1.9192 7.45446 1.75103 7.62356 1.54358 7.62356C1.33614 7.62356 1.16797 7.45446 1.16797 7.24586C1.16797 7.03727 1.33614 6.86816 1.54358 6.86816C1.75103 6.86816 1.9192 7.03727 1.9192 7.24586Z" fill="url(#paint5_linear_72_40106)"/>
  <path d="M4.81727 4.97633C4.81727 5.18493 4.6491 5.35403 4.44165 5.35403C4.23421 5.35403 4.06604 5.18493 4.06604 4.97633C4.06604 4.76773 4.23421 4.59863 4.44165 4.59863C4.6491 4.59863 4.81727 4.76773 4.81727 4.97633Z" fill="url(#paint6_linear_72_40106)"/>
  <path d="M7.71058 4.97633C7.71058 5.18493 7.54241 5.35403 7.33496 5.35403C7.12752 5.35403 6.95935 5.18493 6.95935 4.97633C6.95935 4.76773 7.12752 4.59863 7.33496 4.59863C7.54241 4.59863 7.71058 4.76773 7.71058 4.97633Z" fill="url(#paint7_linear_72_40106)"/>
  <path d="M10.6086 7.24586C10.6086 7.45446 10.4405 7.62356 10.233 7.62356C10.0256 7.62356 9.85742 7.45446 9.85742 7.24586C9.85742 7.03727 10.0256 6.86816 10.233 6.86816C10.4405 6.86816 10.6086 7.03727 10.6086 7.24586Z" fill="url(#paint8_linear_72_40106)"/>
  <path d="M1.9192 9.50954C1.9192 9.71813 1.75103 9.88723 1.54358 9.88723C1.33614 9.88723 1.16797 9.71813 1.16797 9.50954C1.16797 9.30094 1.33614 9.13184 1.54358 9.13184C1.75103 9.13184 1.9192 9.30094 1.9192 9.50954Z" fill="url(#paint9_linear_72_40106)"/>
  <path d="M4.81727 7.24586C4.81727 7.45446 4.6491 7.62356 4.44165 7.62356C4.23421 7.62356 4.06604 7.45446 4.06604 7.24586C4.06604 7.03727 4.23421 6.86816 4.44165 6.86816C4.6491 6.86816 4.81727 7.03727 4.81727 7.24586Z" fill="url(#paint10_linear_72_40106)"/>
  <path d="M4.81727 11.7752C4.81727 11.9838 4.6491 12.1529 4.44165 12.1529C4.23421 12.1529 4.06604 11.9838 4.06604 11.7752C4.06604 11.5666 4.23421 11.3975 4.44165 11.3975C4.6491 11.3975 4.81727 11.5666 4.81727 11.7752Z" fill="url(#paint11_linear_72_40106)"/>
  <path d="M7.71058 7.24586C7.71058 7.45446 7.54241 7.62356 7.33496 7.62356C7.12752 7.62356 6.95935 7.45446 6.95935 7.24586C6.95935 7.03727 7.12752 6.86816 7.33496 6.86816C7.54241 6.86816 7.71058 7.03727 7.71058 7.24586Z" fill="url(#paint12_linear_72_40106)"/>
  <path d="M7.71058 11.7752C7.71058 11.9838 7.54241 12.1529 7.33496 12.1529C7.12752 12.1529 6.95935 11.9838 6.95935 11.7752C6.95935 11.5666 7.12752 11.3975 7.33496 11.3975C7.54241 11.3975 7.71058 11.5666 7.71058 11.7752Z" fill="url(#paint13_linear_72_40106)"/>
  <path d="M10.6086 9.50954C10.6086 9.71813 10.4405 9.88723 10.233 9.88723C10.0256 9.88723 9.85742 9.71813 9.85742 9.50954C9.85742 9.30094 10.0256 9.13184 10.233 9.13184C10.4405 9.13184 10.6086 9.30094 10.6086 9.50954Z" fill="url(#paint14_linear_72_40106)"/>
  <path d="M1.9192 11.7752C1.9192 11.9838 1.75103 12.1529 1.54358 12.1529C1.33614 12.1529 1.16797 11.9838 1.16797 11.7752C1.16797 11.5666 1.33614 11.3975 1.54358 11.3975C1.75103 11.3975 1.9192 11.5666 1.9192 11.7752Z" fill="url(#paint15_linear_72_40106)"/>
  <path d="M4.81727 9.50954C4.81727 9.71813 4.6491 9.88723 4.44165 9.88723C4.23421 9.88723 4.06604 9.71813 4.06604 9.50954C4.06604 9.30094 4.23421 9.13184 4.44165 9.13184C4.6491 9.13184 4.81727 9.30094 4.81727 9.50954Z" fill="url(#paint16_linear_72_40106)"/>
  <path d="M4.81727 14.0398C4.81727 14.2484 4.6491 14.4175 4.44165 14.4175C4.23421 14.4175 4.06604 14.2484 4.06604 14.0398C4.06604 13.8312 4.23421 13.6621 4.44165 13.6621C4.6491 13.6621 4.81727 13.8312 4.81727 14.0398Z" fill="url(#paint17_linear_72_40106)"/>
  <path d="M7.71058 9.50954C7.71058 9.71813 7.54241 9.88723 7.33496 9.88723C7.12752 9.88723 6.95935 9.71813 6.95935 9.50954C6.95935 9.30094 7.12752 9.13184 7.33496 9.13184C7.54241 9.13184 7.71058 9.30094 7.71058 9.50954Z" fill="url(#paint18_linear_72_40106)"/>
  <path d="M7.71058 14.0398C7.71058 14.2484 7.54241 14.4175 7.33496 14.4175C7.12752 14.4175 6.95935 14.2484 6.95935 14.0398C6.95935 13.8312 7.12752 13.6621 7.33496 13.6621C7.54241 13.6621 7.71058 13.8312 7.71058 14.0398Z" fill="url(#paint19_linear_72_40106)"/>
  <path d="M10.6086 11.7752C10.6086 11.9838 10.4405 12.1529 10.233 12.1529C10.0256 12.1529 9.85742 11.9838 9.85742 11.7752C9.85742 11.5666 10.0256 11.3975 10.233 11.3975C10.4405 11.3975 10.6086 11.5666 10.6086 11.7752Z" fill="url(#paint20_linear_72_40106)"/>
  <path fill-rule="evenodd" clip-rule="evenodd" d="M13.2236 6.0274C14.296 6.0274 15.1681 6.89948 15.1681 7.97184C15.1681 9.04421 14.296 9.91629 13.2236 9.91629C12.1513 9.91629 11.2792 9.04421 11.2792 7.97184C11.2792 6.89948 12.1513 6.0274 13.2236 6.0274ZM13.2235 11.8608C15.3682 11.8608 17.1124 10.1166 17.1124 7.9719C17.1124 5.82717 15.3682 4.08301 13.2235 4.08301C11.0788 4.08301 9.33464 5.82717 9.33464 7.9719C9.33464 10.1166 11.0788 11.8608 13.2235 11.8608ZM24.5558 5.29406C24.1504 4.94212 23.537 4.98392 23.184 5.38934L21.3699 7.47476L20.7535 6.78545C20.3967 6.3849 19.7822 6.35087 19.3807 6.70962C18.9811 7.06739 18.9461 7.68281 19.3049 8.08239L20.6553 9.59226C20.84 9.79837 21.1035 9.91601 21.3796 9.91601H21.3864C21.6654 9.91406 21.9308 9.79253 22.1136 9.58253L24.6521 6.66587C25.004 6.26045 24.9613 5.64601 24.5558 5.29406ZM6.41797 20.6108C6.41797 16.8581 9.47172 13.8053 13.2235 13.8053C16.9753 13.8053 20.0291 16.8581 20.0291 20.6108C20.0291 21.1475 19.5945 21.5831 19.0569 21.5831C18.5192 21.5831 18.0846 21.1475 18.0846 20.6108C18.0846 17.9304 15.9039 15.7497 13.2235 15.7497C10.5431 15.7497 8.36241 17.9304 8.36241 20.6108C8.36241 21.1475 7.92783 21.5831 7.39019 21.5831C6.85255 21.5831 6.41797 21.1475 6.41797 20.6108Z" fill="url(#paint21_linear_72_40106)"/>
  <mask id="mask0_72_40106" style="mask-type:alpha" maskUnits="userSpaceOnUse" x="6" y="4" width="19" height="18">
    <path fill-rule="evenodd" clip-rule="evenodd" d="M13.2236 6.0274C14.296 6.0274 15.1681 6.89948 15.1681 7.97184C15.1681 9.04421 14.296 9.91629 13.2236 9.91629C12.1513 9.91629 11.2792 9.04421 11.2792 7.97184C11.2792 6.89948 12.1513 6.0274 13.2236 6.0274ZM13.2235 11.8608C15.3682 11.8608 17.1124 10.1166 17.1124 7.9719C17.1124 5.82717 15.3682 4.08301 13.2235 4.08301C11.0788 4.08301 9.33464 5.82717 9.33464 7.9719C9.33464 10.1166 11.0788 11.8608 13.2235 11.8608ZM24.5558 5.29406C24.1504 4.94212 23.537 4.98392 23.184 5.38934L21.3699 7.47476L20.7535 6.78545C20.3967 6.3849 19.7822 6.35087 19.3807 6.70962C18.9811 7.06739 18.9461 7.68281 19.3049 8.08239L20.6553 9.59226C20.84 9.79837 21.1035 9.91601 21.3796 9.91601H21.3864C21.6654 9.91406 21.9308 9.79253 22.1136 9.58253L24.6521 6.66587C25.004 6.26045 24.9613 5.64601 24.5558 5.29406ZM6.41797 20.6108C6.41797 16.8581 9.47172 13.8053 13.2235 13.8053C16.9753 13.8053 20.0291 16.8581 20.0291 20.6108C20.0291 21.1475 19.5945 21.5831 19.0569 21.5831C18.5192 21.5831 18.0846 21.1475 18.0846 20.6108C18.0846 17.9304 15.9039 15.7497 13.2235 15.7497C10.5431 15.7497 8.36241 17.9304 8.36241 20.6108C8.36241 21.1475 7.92783 21.5831 7.39019 21.5831C6.85255 21.5831 6.41797 21.1475 6.41797 20.6108Z" fill="white"/>
  </mask>
  <g mask="url(#mask0_72_40106)">
    <rect x="3.50131" y="1.16602" width="23.3333" height="23.3333" fill="url(#paint22_linear_72_40106)"/>
  </g>
  <defs>
    <filter id="filter0_b_72_40106" x="-0.498688" y="-0.500977" width="28.024" height="28.0244" filterUnits="userSpaceOnUse" color-interpolation-filters="sRGB">
      <feFlood flood-opacity="0" result="BackgroundImageFix"/>
      <feGaussianBlur in="BackgroundImage" stdDeviation="2"/>
      <feComposite in2="SourceAlpha" operator="in" result="effect1_backgroundBlur_72_40106"/>
      <feBlend mode="normal" in="SourceGraphic" in2="effect1_backgroundBlur_72_40106" result="shape"/>
    </filter>
    <linearGradient id="paint0_linear_72_40106" x1="14.0287" y1="25.1255" x2="26.0895" y2="15.934" gradientUnits="userSpaceOnUse">
      <stop stop-color="#CD9542"/>
      <stop offset="0.583333" stop-color="#FCE8A0"/>
      <stop offset="1" stop-color="#CD9542"/>
    </linearGradient>
    <linearGradient id="paint1_linear_72_40106" x1="1.16797" y1="5.35117" x2="2.00777" y2="4.71469" gradientUnits="userSpaceOnUse">
      <stop stop-color="#CD9542"/>
      <stop offset="0.583333" stop-color="#FCE8A0"/>
      <stop offset="1" stop-color="#CD9542"/>
    </linearGradient>
    <linearGradient id="paint2_linear_72_40106" x1="4.06604" y1="3.08554" x2="4.90584" y2="2.44907" gradientUnits="userSpaceOnUse">
      <stop stop-color="#CD9542"/>
      <stop offset="0.583333" stop-color="#FCE8A0"/>
      <stop offset="1" stop-color="#CD9542"/>
    </linearGradient>
    <linearGradient id="paint3_linear_72_40106" x1="6.95935" y1="3.08554" x2="7.79915" y2="2.44907" gradientUnits="userSpaceOnUse">
      <stop stop-color="#CD9542"/>
      <stop offset="0.583333" stop-color="#FCE8A0"/>
      <stop offset="1" stop-color="#CD9542"/>
    </linearGradient>
    <linearGradient id="paint4_linear_72_40106" x1="9.85742" y1="5.35117" x2="10.6972" y2="4.71469" gradientUnits="userSpaceOnUse">
      <stop stop-color="#CD9542"/>
      <stop offset="0.583333" stop-color="#FCE8A0"/>
      <stop offset="1" stop-color="#CD9542"/>
    </linearGradient>
    <linearGradient id="paint5_linear_72_40106" x1="1.16797" y1="7.6207" x2="2.00777" y2="6.98422" gradientUnits="userSpaceOnUse">
      <stop stop-color="#CD9542"/>
      <stop offset="0.583333" stop-color="#FCE8A0"/>
      <stop offset="1" stop-color="#CD9542"/>
    </linearGradient>
    <linearGradient id="paint6_linear_72_40106" x1="4.06604" y1="5.35117" x2="4.90584" y2="4.71469" gradientUnits="userSpaceOnUse">
      <stop stop-color="#CD9542"/>
      <stop offset="0.583333" stop-color="#FCE8A0"/>
      <stop offset="1" stop-color="#CD9542"/>
    </linearGradient>
    <linearGradient id="paint7_linear_72_40106" x1="6.95935" y1="5.35117" x2="7.79915" y2="4.71469" gradientUnits="userSpaceOnUse">
      <stop stop-color="#CD9542"/>
      <stop offset="0.583333" stop-color="#FCE8A0"/>
      <stop offset="1" stop-color="#CD9542"/>
    </linearGradient>
    <linearGradient id="paint8_linear_72_40106" x1="9.85742" y1="7.6207" x2="10.6972" y2="6.98422" gradientUnits="userSpaceOnUse">
      <stop stop-color="#CD9542"/>
      <stop offset="0.583333" stop-color="#FCE8A0"/>
      <stop offset="1" stop-color="#CD9542"/>
    </linearGradient>
    <linearGradient id="paint9_linear_72_40106" x1="1.16797" y1="9.88437" x2="2.00777" y2="9.24789" gradientUnits="userSpaceOnUse">
      <stop stop-color="#CD9542"/>
      <stop offset="0.583333" stop-color="#FCE8A0"/>
      <stop offset="1" stop-color="#CD9542"/>
    </linearGradient>
    <linearGradient id="paint10_linear_72_40106" x1="4.06604" y1="7.6207" x2="4.90584" y2="6.98422" gradientUnits="userSpaceOnUse">
      <stop stop-color="#CD9542"/>
      <stop offset="0.583333" stop-color="#FCE8A0"/>
      <stop offset="1" stop-color="#CD9542"/>
    </linearGradient>
    <linearGradient id="paint11_linear_72_40106" x1="4.06604" y1="12.15" x2="4.90584" y2="11.5135" gradientUnits="userSpaceOnUse">
      <stop stop-color="#CD9542"/>
      <stop offset="0.583333" stop-color="#FCE8A0"/>
      <stop offset="1" stop-color="#CD9542"/>
    </linearGradient>
    <linearGradient id="paint12_linear_72_40106" x1="6.95935" y1="7.6207" x2="7.79915" y2="6.98422" gradientUnits="userSpaceOnUse">
      <stop stop-color="#CD9542"/>
      <stop offset="0.583333" stop-color="#FCE8A0"/>
      <stop offset="1" stop-color="#CD9542"/>
    </linearGradient>
    <linearGradient id="paint13_linear_72_40106" x1="6.95935" y1="12.15" x2="7.79915" y2="11.5135" gradientUnits="userSpaceOnUse">
      <stop stop-color="#CD9542"/>
      <stop offset="0.583333" stop-color="#FCE8A0"/>
      <stop offset="1" stop-color="#CD9542"/>
    </linearGradient>
    <linearGradient id="paint14_linear_72_40106" x1="9.85742" y1="9.88437" x2="10.6972" y2="9.24789" gradientUnits="userSpaceOnUse">
      <stop stop-color="#CD9542"/>
      <stop offset="0.583333" stop-color="#FCE8A0"/>
      <stop offset="1" stop-color="#CD9542"/>
    </linearGradient>
    <linearGradient id="paint15_linear_72_40106" x1="1.16797" y1="12.15" x2="2.00777" y2="11.5135" gradientUnits="userSpaceOnUse">
      <stop stop-color="#CD9542"/>
      <stop offset="0.583333" stop-color="#FCE8A0"/>
      <stop offset="1" stop-color="#CD9542"/>
    </linearGradient>
    <linearGradient id="paint16_linear_72_40106" x1="4.06604" y1="9.88437" x2="4.90584" y2="9.2479" gradientUnits="userSpaceOnUse">
      <stop stop-color="#CD9542"/>
      <stop offset="0.583333" stop-color="#FCE8A0"/>
      <stop offset="1" stop-color="#CD9542"/>
    </linearGradient>
    <linearGradient id="paint17_linear_72_40106" x1="4.06604" y1="14.4146" x2="4.90584" y2="13.7782" gradientUnits="userSpaceOnUse">
      <stop stop-color="#CD9542"/>
      <stop offset="0.583333" stop-color="#FCE8A0"/>
      <stop offset="1" stop-color="#CD9542"/>
    </linearGradient>
    <linearGradient id="paint18_linear_72_40106" x1="6.95935" y1="9.88437" x2="7.79915" y2="9.24789" gradientUnits="userSpaceOnUse">
      <stop stop-color="#CD9542"/>
      <stop offset="0.583333" stop-color="#FCE8A0"/>
      <stop offset="1" stop-color="#CD9542"/>
    </linearGradient>
    <linearGradient id="paint19_linear_72_40106" x1="6.95935" y1="14.4146" x2="7.79915" y2="13.7782" gradientUnits="userSpaceOnUse">
      <stop stop-color="#CD9542"/>
      <stop offset="0.583333" stop-color="#FCE8A0"/>
      <stop offset="1" stop-color="#CD9542"/>
    </linearGradient>
    <linearGradient id="paint20_linear_72_40106" x1="9.85742" y1="12.15" x2="10.6972" y2="11.5135" gradientUnits="userSpaceOnUse">
      <stop stop-color="#CD9542"/>
      <stop offset="0.583333" stop-color="#FCE8A0"/>
      <stop offset="1" stop-color="#CD9542"/>
    </linearGradient>
    <linearGradient id="paint21_linear_72_40106" x1="6.41797" y1="12.7999" x2="24.9055" y2="12.7999" gradientUnits="userSpaceOnUse">
      <stop stop-color="#007067"/>
      <stop offset="1" stop-color="#00978C"/>
    </linearGradient>
    <linearGradient id="paint22_linear_72_40106" x1="3.50131" y1="12.7885" x2="26.8538" y2="12.7885" gradientUnits="userSpaceOnUse">
      <stop stop-color="#007067"/>
      <stop offset="1" stop-color="#00978C"/>
    </linearGradient>
  </defs>
</svg>
