<svg width="28" height="28" viewBox="0 0 28 28" fill="none" xmlns="http://www.w3.org/2000/svg">
  <path d="M1.9192 3.80934C1.9192 4.01794 1.75103 4.18704 1.54358 4.18704C1.33614 4.18704 1.16797 4.01794 1.16797 3.80934C1.16797 3.60074 1.33614 3.43164 1.54358 3.43164C1.75103 3.43164 1.9192 3.60074 1.9192 3.80934Z" fill="url(#paint0_linear_72_40100)"/>
  <path d="M4.81727 1.54372C4.81727 1.75231 4.6491 1.92141 4.44165 1.92141C4.23421 1.92141 4.06604 1.75231 4.06604 1.54372C4.06604 1.33512 4.23421 1.16602 4.44165 1.16602C4.6491 1.16602 4.81727 1.33512 4.81727 1.54372Z" fill="url(#paint1_linear_72_40100)"/>
  <path d="M7.71058 1.54372C7.71058 1.75231 7.54241 1.92141 7.33496 1.92141C7.12752 1.92141 6.95935 1.75231 6.95935 1.54372C6.95935 1.33512 7.12752 1.16602 7.33496 1.16602C7.54241 1.16602 7.71058 1.33512 7.71058 1.54372Z" fill="url(#paint2_linear_72_40100)"/>
  <path d="M10.6086 3.80934C10.6086 4.01794 10.4405 4.18704 10.233 4.18704C10.0256 4.18704 9.85742 4.01794 9.85742 3.80934C9.85742 3.60074 10.0256 3.43164 10.233 3.43164C10.4405 3.43164 10.6086 3.60074 10.6086 3.80934Z" fill="url(#paint3_linear_72_40100)"/>
  <path d="M1.9192 6.07887C1.9192 6.28747 1.75103 6.45657 1.54358 6.45657C1.33614 6.45657 1.16797 6.28747 1.16797 6.07887C1.16797 5.87027 1.33614 5.70117 1.54358 5.70117C1.75103 5.70117 1.9192 5.87027 1.9192 6.07887Z" fill="url(#paint4_linear_72_40100)"/>
  <path d="M4.81727 3.80934C4.81727 4.01794 4.6491 4.18704 4.44165 4.18704C4.23421 4.18704 4.06604 4.01794 4.06604 3.80934C4.06604 3.60074 4.23421 3.43164 4.44165 3.43164C4.6491 3.43164 4.81727 3.60074 4.81727 3.80934Z" fill="url(#paint5_linear_72_40100)"/>
  <path d="M7.71058 3.80934C7.71058 4.01794 7.54241 4.18704 7.33496 4.18704C7.12752 4.18704 6.95935 4.01794 6.95935 3.80934C6.95935 3.60074 7.12752 3.43164 7.33496 3.43164C7.54241 3.43164 7.71058 3.60074 7.71058 3.80934Z" fill="url(#paint6_linear_72_40100)"/>
  <path d="M10.6086 6.07887C10.6086 6.28747 10.4405 6.45657 10.233 6.45657C10.0256 6.45657 9.85742 6.28747 9.85742 6.07887C9.85742 5.87027 10.0256 5.70117 10.233 5.70117C10.4405 5.70117 10.6086 5.87027 10.6086 6.07887Z" fill="url(#paint7_linear_72_40100)"/>
  <path d="M1.9192 8.34254C1.9192 8.55114 1.75103 8.72024 1.54358 8.72024C1.33614 8.72024 1.16797 8.55114 1.16797 8.34254C1.16797 8.13395 1.33614 7.96484 1.54358 7.96484C1.75103 7.96484 1.9192 8.13395 1.9192 8.34254Z" fill="url(#paint8_linear_72_40100)"/>
  <path d="M4.81727 6.07887C4.81727 6.28747 4.6491 6.45657 4.44165 6.45657C4.23421 6.45657 4.06604 6.28747 4.06604 6.07887C4.06604 5.87027 4.23421 5.70117 4.44165 5.70117C4.6491 5.70117 4.81727 5.87027 4.81727 6.07887Z" fill="url(#paint9_linear_72_40100)"/>
  <path d="M4.81727 10.6082C4.81727 10.8168 4.6491 10.9859 4.44165 10.9859C4.23421 10.9859 4.06604 10.8168 4.06604 10.6082C4.06604 10.3996 4.23421 10.2305 4.44165 10.2305C4.6491 10.2305 4.81727 10.3996 4.81727 10.6082Z" fill="url(#paint10_linear_72_40100)"/>
  <path d="M7.71058 6.07887C7.71058 6.28747 7.54241 6.45657 7.33496 6.45657C7.12752 6.45657 6.95935 6.28747 6.95935 6.07887C6.95935 5.87027 7.12752 5.70117 7.33496 5.70117C7.54241 5.70117 7.71058 5.87027 7.71058 6.07887Z" fill="url(#paint11_linear_72_40100)"/>
  <path d="M7.71058 10.6082C7.71058 10.8168 7.54241 10.9859 7.33496 10.9859C7.12752 10.9859 6.95935 10.8168 6.95935 10.6082C6.95935 10.3996 7.12752 10.2305 7.33496 10.2305C7.54241 10.2305 7.71058 10.3996 7.71058 10.6082Z" fill="url(#paint12_linear_72_40100)"/>
  <path d="M10.6086 8.34254C10.6086 8.55114 10.4405 8.72024 10.233 8.72024C10.0256 8.72024 9.85742 8.55114 9.85742 8.34254C9.85742 8.13395 10.0256 7.96484 10.233 7.96484C10.4405 7.96484 10.6086 8.13395 10.6086 8.34254Z" fill="url(#paint13_linear_72_40100)"/>
  <path d="M1.9192 10.6082C1.9192 10.8168 1.75103 10.9859 1.54358 10.9859C1.33614 10.9859 1.16797 10.8168 1.16797 10.6082C1.16797 10.3996 1.33614 10.2305 1.54358 10.2305C1.75103 10.2305 1.9192 10.3996 1.9192 10.6082Z" fill="url(#paint14_linear_72_40100)"/>
  <path d="M4.81727 8.34254C4.81727 8.55114 4.6491 8.72024 4.44165 8.72024C4.23421 8.72024 4.06604 8.55114 4.06604 8.34254C4.06604 8.13395 4.23421 7.96484 4.44165 7.96484C4.6491 7.96484 4.81727 8.13395 4.81727 8.34254Z" fill="url(#paint15_linear_72_40100)"/>
  <path d="M4.81727 12.8728C4.81727 13.0814 4.6491 13.2505 4.44165 13.2505C4.23421 13.2505 4.06604 13.0814 4.06604 12.8728C4.06604 12.6642 4.23421 12.4951 4.44165 12.4951C4.6491 12.4951 4.81727 12.6642 4.81727 12.8728Z" fill="url(#paint16_linear_72_40100)"/>
  <path d="M7.71058 8.34254C7.71058 8.55114 7.54241 8.72024 7.33496 8.72024C7.12752 8.72024 6.95935 8.55114 6.95935 8.34254C6.95935 8.13395 7.12752 7.96484 7.33496 7.96484C7.54241 7.96484 7.71058 8.13395 7.71058 8.34254Z" fill="url(#paint17_linear_72_40100)"/>
  <path d="M7.71058 12.8728C7.71058 13.0814 7.54241 13.2505 7.33496 13.2505C7.12752 13.2505 6.95935 13.0814 6.95935 12.8728C6.95935 12.6642 7.12752 12.4951 7.33496 12.4951C7.54241 12.4951 7.71058 12.6642 7.71058 12.8728Z" fill="url(#paint18_linear_72_40100)"/>
  <path d="M10.6086 10.6082C10.6086 10.8168 10.4405 10.9859 10.233 10.9859C10.0256 10.9859 9.85742 10.8168 9.85742 10.6082C9.85742 10.3996 10.0256 10.2305 10.233 10.2305C10.4405 10.2305 10.6086 10.3996 10.6086 10.6082Z" fill="url(#paint19_linear_72_40100)"/>
  <path d="M26.6153 20.9084C26.6153 24.1268 24.0207 26.7358 20.8201 26.7358C17.6195 26.7358 15.0249 24.1268 15.0249 20.9084C15.0249 17.6901 17.6195 15.0811 20.8201 15.0811C24.0207 15.0811 26.6153 17.6901 26.6153 20.9084Z" fill="url(#paint20_linear_72_40100)"/>
  <g filter="url(#filter0_b_72_40100)">
    <path d="M5.02289 13.9999C5.02289 12.3124 7.36835 10.9443 10.2616 10.9443H17.2466C20.1399 10.9443 22.4854 12.3124 22.4854 13.9999V20.111C22.4854 21.7985 20.1399 23.1666 17.2466 23.1666H10.2616C7.36835 23.1666 5.02289 21.7985 5.02289 20.111V13.9999Z" fill="white" fill-opacity="0.15"/>
  </g>
  <path fill-rule="evenodd" clip-rule="evenodd" d="M20.7232 21.7397H8.50094C7.93974 21.7397 7.48242 21.2834 7.48242 20.7212V15.6286H9.51946V18.6842C9.51946 19.2474 9.97575 19.7027 10.538 19.7027H18.6861C19.2483 19.7027 19.7046 19.2474 19.7046 18.6842V15.6286H21.7417V20.7212C21.7417 21.2834 21.2844 21.7397 20.7232 21.7397ZM10.8864 8.04362C11.0595 7.6963 11.4089 7.48038 11.797 7.48038H17.4273C17.8154 7.48038 18.1647 7.6963 18.3379 8.04362L21.1123 13.5915H18.6862C18.124 13.5915 17.6677 14.0468 17.6677 14.61V17.6656H11.5566V14.61C11.5566 14.0468 11.1003 13.5915 10.5381 13.5915H8.11195L10.8864 8.04362ZM23.5637 13.9398L20.1598 7.13206C19.6394 6.09114 18.5923 5.44336 17.4272 5.44336H11.7968C10.6316 5.44336 9.58457 6.09114 9.06411 7.13206L5.66022 13.9398C5.51966 14.221 5.44531 14.5367 5.44531 14.8504V20.7211C5.44531 22.4058 6.81624 23.7767 8.50087 23.7767H20.7231C22.4077 23.7767 23.7786 22.4058 23.7786 20.7211V14.8504C23.7786 14.5367 23.7043 14.221 23.5637 13.9398Z" fill="url(#paint21_linear_72_40100)"/>
  <mask id="mask0_72_40100" style="mask-type:alpha" maskUnits="userSpaceOnUse" x="5" y="5" width="19" height="19">
    <path fill-rule="evenodd" clip-rule="evenodd" d="M20.7232 21.7397H8.50094C7.93974 21.7397 7.48242 21.2834 7.48242 20.7212V15.6286H9.51946V18.6842C9.51946 19.2474 9.97575 19.7027 10.538 19.7027H18.6861C19.2483 19.7027 19.7046 19.2474 19.7046 18.6842V15.6286H21.7417V20.7212C21.7417 21.2834 21.2844 21.7397 20.7232 21.7397ZM10.8864 8.04362C11.0595 7.6963 11.4089 7.48038 11.797 7.48038H17.4273C17.8154 7.48038 18.1647 7.6963 18.3379 8.04362L21.1123 13.5915H18.6862C18.124 13.5915 17.6677 14.0468 17.6677 14.61V17.6656H11.5566V14.61C11.5566 14.0468 11.1003 13.5915 10.5381 13.5915H8.11195L10.8864 8.04362ZM23.5637 13.9398L20.1598 7.13206C19.6394 6.09114 18.5923 5.44336 17.4272 5.44336H11.7968C10.6316 5.44336 9.58457 6.09114 9.06411 7.13206L5.66022 13.9398C5.51966 14.221 5.44531 14.5367 5.44531 14.8504V20.7211C5.44531 22.4058 6.81624 23.7767 8.50087 23.7767H20.7231C22.4077 23.7767 23.7786 22.4058 23.7786 20.7211V14.8504C23.7786 14.5367 23.7043 14.221 23.5637 13.9398Z" fill="white"/>
  </mask>
  <g mask="url(#mask0_72_40100)">
  </g>
  <defs>
    <filter id="filter0_b_72_40100" x="1.02289" y="6.94434" width="25.4625" height="20.2227" filterUnits="userSpaceOnUse" color-interpolation-filters="sRGB">
      <feFlood flood-opacity="0" result="BackgroundImageFix"/>
      <feGaussianBlur in="BackgroundImage" stdDeviation="2"/>
      <feComposite in2="SourceAlpha" operator="in" result="effect1_backgroundBlur_72_40100"/>
      <feBlend mode="normal" in="SourceGraphic" in2="effect1_backgroundBlur_72_40100" result="shape"/>
    </filter>
    <linearGradient id="paint0_linear_72_40100" x1="1.16797" y1="4.18418" x2="2.00777" y2="3.5477" gradientUnits="userSpaceOnUse">
      <stop stop-color="#CD9542"/>
      <stop offset="0.583333" stop-color="#FCE8A0"/>
      <stop offset="1" stop-color="#CD9542"/>
    </linearGradient>
    <linearGradient id="paint1_linear_72_40100" x1="4.06604" y1="1.91855" x2="4.90584" y2="1.28208" gradientUnits="userSpaceOnUse">
      <stop stop-color="#CD9542"/>
      <stop offset="0.583333" stop-color="#FCE8A0"/>
      <stop offset="1" stop-color="#CD9542"/>
    </linearGradient>
    <linearGradient id="paint2_linear_72_40100" x1="6.95935" y1="1.91855" x2="7.79915" y2="1.28207" gradientUnits="userSpaceOnUse">
      <stop stop-color="#CD9542"/>
      <stop offset="0.583333" stop-color="#FCE8A0"/>
      <stop offset="1" stop-color="#CD9542"/>
    </linearGradient>
    <linearGradient id="paint3_linear_72_40100" x1="9.85742" y1="4.18418" x2="10.6972" y2="3.5477" gradientUnits="userSpaceOnUse">
      <stop stop-color="#CD9542"/>
      <stop offset="0.583333" stop-color="#FCE8A0"/>
      <stop offset="1" stop-color="#CD9542"/>
    </linearGradient>
    <linearGradient id="paint4_linear_72_40100" x1="1.16797" y1="6.45371" x2="2.00777" y2="5.81723" gradientUnits="userSpaceOnUse">
      <stop stop-color="#CD9542"/>
      <stop offset="0.583333" stop-color="#FCE8A0"/>
      <stop offset="1" stop-color="#CD9542"/>
    </linearGradient>
    <linearGradient id="paint5_linear_72_40100" x1="4.06604" y1="4.18418" x2="4.90584" y2="3.5477" gradientUnits="userSpaceOnUse">
      <stop stop-color="#CD9542"/>
      <stop offset="0.583333" stop-color="#FCE8A0"/>
      <stop offset="1" stop-color="#CD9542"/>
    </linearGradient>
    <linearGradient id="paint6_linear_72_40100" x1="6.95935" y1="4.18418" x2="7.79915" y2="3.5477" gradientUnits="userSpaceOnUse">
      <stop stop-color="#CD9542"/>
      <stop offset="0.583333" stop-color="#FCE8A0"/>
      <stop offset="1" stop-color="#CD9542"/>
    </linearGradient>
    <linearGradient id="paint7_linear_72_40100" x1="9.85742" y1="6.45371" x2="10.6972" y2="5.81723" gradientUnits="userSpaceOnUse">
      <stop stop-color="#CD9542"/>
      <stop offset="0.583333" stop-color="#FCE8A0"/>
      <stop offset="1" stop-color="#CD9542"/>
    </linearGradient>
    <linearGradient id="paint8_linear_72_40100" x1="1.16797" y1="8.71738" x2="2.00777" y2="8.0809" gradientUnits="userSpaceOnUse">
      <stop stop-color="#CD9542"/>
      <stop offset="0.583333" stop-color="#FCE8A0"/>
      <stop offset="1" stop-color="#CD9542"/>
    </linearGradient>
    <linearGradient id="paint9_linear_72_40100" x1="4.06604" y1="6.45371" x2="4.90584" y2="5.81723" gradientUnits="userSpaceOnUse">
      <stop stop-color="#CD9542"/>
      <stop offset="0.583333" stop-color="#FCE8A0"/>
      <stop offset="1" stop-color="#CD9542"/>
    </linearGradient>
    <linearGradient id="paint10_linear_72_40100" x1="4.06604" y1="10.983" x2="4.90584" y2="10.3465" gradientUnits="userSpaceOnUse">
      <stop stop-color="#CD9542"/>
      <stop offset="0.583333" stop-color="#FCE8A0"/>
      <stop offset="1" stop-color="#CD9542"/>
    </linearGradient>
    <linearGradient id="paint11_linear_72_40100" x1="6.95935" y1="6.45371" x2="7.79915" y2="5.81723" gradientUnits="userSpaceOnUse">
      <stop stop-color="#CD9542"/>
      <stop offset="0.583333" stop-color="#FCE8A0"/>
      <stop offset="1" stop-color="#CD9542"/>
    </linearGradient>
    <linearGradient id="paint12_linear_72_40100" x1="6.95935" y1="10.983" x2="7.79915" y2="10.3465" gradientUnits="userSpaceOnUse">
      <stop stop-color="#CD9542"/>
      <stop offset="0.583333" stop-color="#FCE8A0"/>
      <stop offset="1" stop-color="#CD9542"/>
    </linearGradient>
    <linearGradient id="paint13_linear_72_40100" x1="9.85742" y1="8.71738" x2="10.6972" y2="8.0809" gradientUnits="userSpaceOnUse">
      <stop stop-color="#CD9542"/>
      <stop offset="0.583333" stop-color="#FCE8A0"/>
      <stop offset="1" stop-color="#CD9542"/>
    </linearGradient>
    <linearGradient id="paint14_linear_72_40100" x1="1.16797" y1="10.983" x2="2.00777" y2="10.3465" gradientUnits="userSpaceOnUse">
      <stop stop-color="#CD9542"/>
      <stop offset="0.583333" stop-color="#FCE8A0"/>
      <stop offset="1" stop-color="#CD9542"/>
    </linearGradient>
    <linearGradient id="paint15_linear_72_40100" x1="4.06604" y1="8.71738" x2="4.90584" y2="8.0809" gradientUnits="userSpaceOnUse">
      <stop stop-color="#CD9542"/>
      <stop offset="0.583333" stop-color="#FCE8A0"/>
      <stop offset="1" stop-color="#CD9542"/>
    </linearGradient>
    <linearGradient id="paint16_linear_72_40100" x1="4.06604" y1="13.2477" x2="4.90584" y2="12.6112" gradientUnits="userSpaceOnUse">
      <stop stop-color="#CD9542"/>
      <stop offset="0.583333" stop-color="#FCE8A0"/>
      <stop offset="1" stop-color="#CD9542"/>
    </linearGradient>
    <linearGradient id="paint17_linear_72_40100" x1="6.95935" y1="8.71738" x2="7.79915" y2="8.0809" gradientUnits="userSpaceOnUse">
      <stop stop-color="#CD9542"/>
      <stop offset="0.583333" stop-color="#FCE8A0"/>
      <stop offset="1" stop-color="#CD9542"/>
    </linearGradient>
    <linearGradient id="paint18_linear_72_40100" x1="6.95935" y1="13.2477" x2="7.79915" y2="12.6112" gradientUnits="userSpaceOnUse">
      <stop stop-color="#CD9542"/>
      <stop offset="0.583333" stop-color="#FCE8A0"/>
      <stop offset="1" stop-color="#CD9542"/>
    </linearGradient>
    <linearGradient id="paint19_linear_72_40100" x1="9.85742" y1="10.983" x2="10.6972" y2="10.3465" gradientUnits="userSpaceOnUse">
      <stop stop-color="#CD9542"/>
      <stop offset="0.583333" stop-color="#FCE8A0"/>
      <stop offset="1" stop-color="#CD9542"/>
    </linearGradient>
    <linearGradient id="paint20_linear_72_40100" x1="15.0249" y1="26.6916" x2="27.9819" y2="16.8717" gradientUnits="userSpaceOnUse">
      <stop stop-color="#CD9542"/>
      <stop offset="0.583333" stop-color="#FCE8A0"/>
      <stop offset="1" stop-color="#CD9542"/>
    </linearGradient>
    <linearGradient id="paint21_linear_72_40100" x1="5.44531" y1="14.5753" x2="23.7937" y2="14.5753" gradientUnits="userSpaceOnUse">
      <stop stop-color="#007067"/>
      <stop offset="1" stop-color="#00978C"/>
    </linearGradient>
  </defs>
</svg>
