<svg width="27" height="25" viewBox="0 0 27 25" fill="none" xmlns="http://www.w3.org/2000/svg">
  <path d="M0.889722 2.69944C0.889722 2.89912 0.727851 3.06099 0.528174 3.06099C0.328496 3.06099 0.166626 2.89912 0.166626 2.69944C0.166626 2.49976 0.328496 2.33789 0.528174 2.33789C0.727851 2.33789 0.889722 2.49976 0.889722 2.69944Z" fill="url(#paint0_linear_118_1895)"/>
  <path d="M3.67805 0.52854C3.67805 0.728217 3.51618 0.890088 3.3165 0.890088C3.11683 0.890088 2.95496 0.728217 2.95496 0.52854C2.95496 0.328863 3.11683 0.166992 3.3165 0.166992C3.51618 0.166992 3.67805 0.328863 3.67805 0.52854Z" fill="url(#paint1_linear_118_1895)"/>
  <path d="M6.47102 0.52854C6.47102 0.728217 6.30915 0.890088 6.10947 0.890088C5.9098 0.890088 5.74792 0.728217 5.74792 0.52854C5.74792 0.328863 5.9098 0.166992 6.10947 0.166992C6.30915 0.166992 6.47102 0.328863 6.47102 0.52854Z" fill="url(#paint2_linear_118_1895)"/>
  <path d="M9.25862 2.69944C9.25862 2.89912 9.09675 3.06099 8.89707 3.06099C8.69739 3.06099 8.53552 2.89912 8.53552 2.69944C8.53552 2.49976 8.69739 2.33789 8.89707 2.33789C9.09675 2.33789 9.25862 2.49976 9.25862 2.69944Z" fill="url(#paint3_linear_118_1895)"/>
  <path d="M0.889722 4.86643C0.889722 5.06611 0.727851 5.22798 0.528174 5.22798C0.328496 5.22798 0.166626 5.06611 0.166626 4.86643C0.166626 4.66675 0.328496 4.50488 0.528174 4.50488C0.727851 4.50488 0.889722 4.66675 0.889722 4.86643Z" fill="url(#paint4_linear_118_1895)"/>
  <path d="M3.67805 2.69944C3.67805 2.89912 3.51618 3.06099 3.3165 3.06099C3.11683 3.06099 2.95496 2.89912 2.95496 2.69944C2.95496 2.49976 3.11683 2.33789 3.3165 2.33789C3.51618 2.33789 3.67805 2.49976 3.67805 2.69944Z" fill="url(#paint5_linear_118_1895)"/>
  <path d="M6.47102 2.69944C6.47102 2.89912 6.30915 3.06099 6.10947 3.06099C5.9098 3.06099 5.74792 2.89912 5.74792 2.69944C5.74792 2.49976 5.9098 2.33789 6.10947 2.33789C6.30915 2.33789 6.47102 2.49976 6.47102 2.69944Z" fill="url(#paint6_linear_118_1895)"/>
  <path d="M9.25862 4.86643C9.25862 5.06611 9.09675 5.22798 8.89707 5.22798C8.69739 5.22798 8.53552 5.06611 8.53552 4.86643C8.53552 4.66675 8.69739 4.50488 8.89707 4.50488C9.09675 4.50488 9.25862 4.66675 9.25862 4.86643Z" fill="url(#paint7_linear_118_1895)"/>
  <path d="M0.889722 7.03635C0.889722 7.23603 0.727851 7.3979 0.528174 7.3979C0.328496 7.3979 0.166626 7.23603 0.166626 7.03635C0.166626 6.83668 0.328496 6.6748 0.528174 6.6748C0.727851 6.6748 0.889722 6.83668 0.889722 7.03635Z" fill="url(#paint8_linear_118_1895)"/>
  <path d="M3.67805 4.86643C3.67805 5.06611 3.51618 5.22798 3.3165 5.22798C3.11683 5.22798 2.95496 5.06611 2.95496 4.86643C2.95496 4.66675 3.11683 4.50488 3.3165 4.50488C3.51618 4.50488 3.67805 4.66675 3.67805 4.86643Z" fill="url(#paint9_linear_118_1895)"/>
  <path d="M3.67805 9.20627C3.67805 9.40595 3.51618 9.56782 3.3165 9.56782C3.11683 9.56782 2.95496 9.40595 2.95496 9.20627C2.95496 9.0066 3.11683 8.84473 3.3165 8.84473C3.51618 8.84473 3.67805 9.0066 3.67805 9.20627Z" fill="url(#paint10_linear_118_1895)"/>
  <path d="M6.47102 4.86643C6.47102 5.06611 6.30915 5.22798 6.10947 5.22798C5.9098 5.22798 5.74792 5.06611 5.74792 4.86643C5.74792 4.66675 5.9098 4.50488 6.10947 4.50488C6.30915 4.50488 6.47102 4.66675 6.47102 4.86643Z" fill="url(#paint11_linear_118_1895)"/>
  <path d="M6.47102 9.20627C6.47102 9.40595 6.30915 9.56782 6.10947 9.56782C5.9098 9.56782 5.74792 9.40595 5.74792 9.20627C5.74792 9.0066 5.9098 8.84473 6.10947 8.84473C6.30915 8.84473 6.47102 9.0066 6.47102 9.20627Z" fill="url(#paint12_linear_118_1895)"/>
  <path d="M9.25862 7.03635C9.25862 7.23603 9.09675 7.3979 8.89707 7.3979C8.69739 7.3979 8.53552 7.23603 8.53552 7.03635C8.53552 6.83668 8.69739 6.6748 8.89707 6.6748C9.09675 6.6748 9.25862 6.83668 9.25862 7.03635Z" fill="url(#paint13_linear_118_1895)"/>
  <path d="M0.889722 9.20627C0.889722 9.40595 0.727851 9.56782 0.528174 9.56782C0.328496 9.56782 0.166626 9.40595 0.166626 9.20627C0.166626 9.0066 0.328496 8.84473 0.528174 8.84473C0.727851 8.84473 0.889722 9.0066 0.889722 9.20627Z" fill="url(#paint14_linear_118_1895)"/>
  <path d="M3.67805 7.03635C3.67805 7.23603 3.51618 7.3979 3.3165 7.3979C3.11683 7.3979 2.95496 7.23603 2.95496 7.03635C2.95496 6.83668 3.11683 6.6748 3.3165 6.6748C3.51618 6.6748 3.67805 6.83668 3.67805 7.03635Z" fill="url(#paint15_linear_118_1895)"/>
  <path d="M3.67805 11.3733C3.67805 11.5729 3.51618 11.7348 3.3165 11.7348C3.11683 11.7348 2.95496 11.5729 2.95496 11.3733C2.95496 11.1736 3.11683 11.0117 3.3165 11.0117C3.51618 11.0117 3.67805 11.1736 3.67805 11.3733Z" fill="url(#paint16_linear_118_1895)"/>
  <path d="M6.47102 7.03635C6.47102 7.23603 6.30915 7.3979 6.10947 7.3979C5.9098 7.3979 5.74792 7.23603 5.74792 7.03635C5.74792 6.83668 5.9098 6.6748 6.10947 6.6748C6.30915 6.6748 6.47102 6.83668 6.47102 7.03635Z" fill="url(#paint17_linear_118_1895)"/>
  <path d="M6.47102 11.3733C6.47102 11.5729 6.30915 11.7348 6.10947 11.7348C5.9098 11.7348 5.74792 11.5729 5.74792 11.3733C5.74792 11.1736 5.9098 11.0117 6.10947 11.0117C6.30915 11.0117 6.47102 11.1736 6.47102 11.3733Z" fill="url(#paint18_linear_118_1895)"/>
  <path d="M9.25862 9.20627C9.25862 9.40595 9.09675 9.56782 8.89707 9.56782C8.69739 9.56782 8.53552 9.40595 8.53552 9.20627C8.53552 9.0066 8.69739 8.84473 8.89707 8.84473C9.09675 8.84473 9.25862 9.0066 9.25862 9.20627Z" fill="url(#paint19_linear_118_1895)"/>
  <path d="M26.4303 19.3694C26.4303 22.3608 24.0053 24.7858 21.014 24.7858C18.0226 24.7858 15.5977 22.3608 15.5977 19.3694C15.5977 16.3781 18.0226 13.9531 21.014 13.9531C24.0053 13.9531 26.4303 16.3781 26.4303 19.3694Z" fill="url(#paint20_linear_118_1895)"/>
  <g filter="url(#filter0_b_118_1895)">
    <path d="M25.0945 13.1311C25.0945 18.6606 20.612 23.1431 15.0825 23.1431C9.55307 23.1431 5.07056 18.6606 5.07056 13.1311C5.07056 7.60166 9.55307 3.11914 15.0825 3.11914C20.612 3.11914 25.0945 7.60166 25.0945 13.1311Z" fill="white" fill-opacity="0.15"/>
  </g>
  <path d="M24.2029 20.3415C24.1988 20.3247 24.1652 20.2994 24.1401 20.2783C24.1233 20.2615 24.1024 20.2446 24.0814 20.2278L22.9919 19.1287L23.0422 19.0571C23.0673 19.0192 23.0883 18.9897 23.1134 18.956C23.1553 18.8971 23.193 18.8423 23.2265 18.7918C24.8022 16.4293 25.326 13.8732 24.7812 11.1949C24.1317 8.00284 22.3382 5.64881 19.4509 4.19596C17.1042 3.01263 14.6569 2.80629 12.1593 3.5685L12.1509 3.57271H12.1468L11.5726 3.77064C11.1829 3.90539 10.9441 4.28019 10.965 4.67603C10.9692 4.75605 10.986 4.83606 11.0111 4.91607V4.92028C11.0656 5.0803 11.162 5.21506 11.2793 5.31613C11.4972 5.50142 11.7947 5.57722 12.0839 5.50142C12.1048 5.49721 12.1258 5.48879 12.1509 5.48036L12.7334 5.27823C14.1205 4.86975 15.5411 4.83606 16.9743 5.18979C19.3126 5.76251 21.2612 7.3459 22.3298 9.53149C23.3942 11.7129 23.4445 14.2311 22.4681 16.4336C22.334 16.7325 22.1789 17.0189 22.0113 17.3179C21.9359 17.4569 21.8562 17.6 21.7808 17.7432L21.7138 17.8696L21.6132 17.7685C21.5084 17.6632 21.4079 17.5621 21.3115 17.4611C21.0558 17.2 20.817 16.9515 20.5656 16.7199C20.5111 16.6694 20.4105 16.6399 20.3435 16.6399C20.3267 16.6399 20.3141 16.6399 20.3015 16.6441C20.2429 16.6652 20.1549 16.7915 20.1549 16.8589C20.1381 18.1012 20.1423 19.3435 20.1465 20.5394C20.1465 20.6952 20.2303 20.7795 20.3854 20.7795C21.3827 20.7837 22.3926 20.7837 23.369 20.7837H24.0479C24.1066 20.7837 24.2407 20.771 24.2616 20.6531C24.2742 20.5731 24.2323 20.4594 24.1946 20.3626L24.2029 20.3415Z" fill="white"/>
  <path d="M13.103 11.8316C13.2337 12.851 13.9891 13.529 15.0591 13.5884C15.6982 13.623 16.1873 14.1328 16.1873 14.7761C16.1873 15.4095 15.7031 15.939 15.0882 15.9638C14.4393 15.9935 13.9213 15.5233 13.8632 14.8553C13.8341 14.5385 13.6889 14.3752 13.4468 14.395C13.1998 14.4148 13.0691 14.5979 13.0933 14.9097C13.1466 15.5283 13.408 16.033 13.9067 16.3844C14.1198 16.5329 14.3716 16.6318 14.633 16.7654C14.633 16.9832 14.633 17.2306 14.633 17.4731C14.6379 17.775 14.7734 17.9383 15.0155 17.9383C15.2625 17.9383 15.398 17.7799 15.4029 17.4781C15.4077 17.2257 15.4029 16.9733 15.4029 16.7259C15.4997 16.6962 15.5675 16.6714 15.6353 16.6516C16.5649 16.3201 17.1024 15.365 16.9087 14.3752C16.7344 13.4795 15.9791 12.8412 15.0446 12.8016C14.3716 12.7719 13.8874 12.3166 13.8583 11.6782C13.8293 11.025 14.3086 10.4707 14.9429 10.4262C15.5965 10.3817 16.1291 10.8765 16.1824 11.5743C16.2066 11.8762 16.3422 12.0197 16.594 12.0098C16.8409 11.9999 16.9716 11.8316 16.9523 11.5298C16.9038 10.8023 16.5746 10.248 15.95 9.88679C15.7854 9.79277 15.5965 9.73338 15.4077 9.64925C15.4077 9.39192 15.4126 9.12964 15.4077 8.86736C15.398 8.59519 15.2431 8.43683 15.0058 8.44673C14.7783 8.45662 14.6427 8.60508 14.6379 8.87726C14.633 9.13954 14.6379 9.40182 14.6379 9.6641C14.5943 9.6839 14.5652 9.69379 14.5313 9.70369C13.5581 10.0353 12.982 10.8914 13.103 11.8316Z" fill="white" stroke="white" stroke-width="0.8"/>
  <path d="M19.2098 21.2513C19.1805 21.1713 19.1386 21.1039 19.0925 21.0365C18.9793 20.8807 18.8201 20.7712 18.6399 20.7165C18.4764 20.6659 18.3004 20.6617 18.1286 20.7122C18.0993 20.7207 18.0742 20.7291 18.049 20.7375L17.7389 20.8596C16.0375 21.4618 14.3027 21.4913 12.5762 20.9439C10.4516 20.2701 8.73344 18.8004 7.74028 16.8001C6.74293 14.7956 6.60464 12.5258 7.35056 10.4076C7.58523 9.73379 7.89533 9.12317 8.29762 8.54624L8.36886 8.44097L8.74601 8.82418C8.98068 9.06422 9.21116 9.29583 9.43745 9.53165C9.56316 9.6622 9.64278 9.69168 9.74755 9.64535C9.86069 9.59903 9.89841 9.51902 9.89841 9.32952C9.89841 8.57151 9.89841 7.79666 9.89841 7.05129C9.89841 6.64702 9.89841 6.23854 9.89841 5.83427C9.89841 5.56054 9.83555 5.49316 9.56736 5.49316C9.17344 5.49316 8.77953 5.49316 8.38981 5.49316C7.63552 5.49316 6.85607 5.49316 6.08921 5.49316H6.08501C5.88806 5.49316 5.81682 5.52685 5.77072 5.63634C5.72463 5.75004 5.75396 5.82584 5.89225 5.96481C6.15625 6.2259 6.41188 6.48278 6.68426 6.75651C6.78903 6.86179 6.89379 6.96707 7.00274 7.07656L7.06141 7.13551L7.01532 7.2071C7.00274 7.22816 6.99436 7.245 6.98179 7.25763C6.96503 7.28711 6.94827 7.31238 6.9315 7.33765C5.36005 9.60324 4.77757 12.071 5.20919 14.6819C5.77072 18.1013 7.65228 20.6238 10.7994 22.1819C12.3834 22.9652 14.1392 23.2726 16.0166 23.0915C16.7374 23.02 17.4456 22.8726 18.1244 22.6452L18.1538 22.6325H18.158L18.7027 22.4178C18.7237 22.4093 18.7446 22.4009 18.7656 22.3883C18.9877 22.283 19.1469 22.0935 19.2224 21.8745C19.2391 21.824 19.2517 21.7777 19.2601 21.7271C19.2852 21.5797 19.2726 21.4113 19.2098 21.2513Z" fill="white"/>
  <defs>
    <filter id="filter0_b_118_1895" x="1.07056" y="-0.880859" width="28.0239" height="28.0244" filterUnits="userSpaceOnUse" color-interpolation-filters="sRGB">
      <feFlood flood-opacity="0" result="BackgroundImageFix"/>
      <feGaussianBlur in="BackgroundImage" stdDeviation="2"/>
      <feComposite in2="SourceAlpha" operator="in" result="effect1_backgroundBlur_118_1895"/>
      <feBlend mode="normal" in="SourceGraphic" in2="effect1_backgroundBlur_118_1895" result="shape"/>
    </filter>
    <linearGradient id="paint0_linear_118_1895" x1="0.166626" y1="3.05825" x2="0.97171" y2="2.44469" gradientUnits="userSpaceOnUse">
      <stop stop-color="#CD9542"/>
      <stop offset="0.583333" stop-color="#FCE8A0"/>
      <stop offset="1" stop-color="#CD9542"/>
    </linearGradient>
    <linearGradient id="paint1_linear_118_1895" x1="2.95496" y1="0.887347" x2="3.76004" y2="0.273795" gradientUnits="userSpaceOnUse">
      <stop stop-color="#CD9542"/>
      <stop offset="0.583333" stop-color="#FCE8A0"/>
      <stop offset="1" stop-color="#CD9542"/>
    </linearGradient>
    <linearGradient id="paint2_linear_118_1895" x1="5.74792" y1="0.887347" x2="6.55301" y2="0.273795" gradientUnits="userSpaceOnUse">
      <stop stop-color="#CD9542"/>
      <stop offset="0.583333" stop-color="#FCE8A0"/>
      <stop offset="1" stop-color="#CD9542"/>
    </linearGradient>
    <linearGradient id="paint3_linear_118_1895" x1="8.53552" y1="3.05825" x2="9.34061" y2="2.44469" gradientUnits="userSpaceOnUse">
      <stop stop-color="#CD9542"/>
      <stop offset="0.583333" stop-color="#FCE8A0"/>
      <stop offset="1" stop-color="#CD9542"/>
    </linearGradient>
    <linearGradient id="paint4_linear_118_1895" x1="0.166626" y1="5.22524" x2="0.97171" y2="4.61169" gradientUnits="userSpaceOnUse">
      <stop stop-color="#CD9542"/>
      <stop offset="0.583333" stop-color="#FCE8A0"/>
      <stop offset="1" stop-color="#CD9542"/>
    </linearGradient>
    <linearGradient id="paint5_linear_118_1895" x1="2.95496" y1="3.05825" x2="3.76004" y2="2.44469" gradientUnits="userSpaceOnUse">
      <stop stop-color="#CD9542"/>
      <stop offset="0.583333" stop-color="#FCE8A0"/>
      <stop offset="1" stop-color="#CD9542"/>
    </linearGradient>
    <linearGradient id="paint6_linear_118_1895" x1="5.74792" y1="3.05825" x2="6.55301" y2="2.44469" gradientUnits="userSpaceOnUse">
      <stop stop-color="#CD9542"/>
      <stop offset="0.583333" stop-color="#FCE8A0"/>
      <stop offset="1" stop-color="#CD9542"/>
    </linearGradient>
    <linearGradient id="paint7_linear_118_1895" x1="8.53552" y1="5.22524" x2="9.34061" y2="4.61168" gradientUnits="userSpaceOnUse">
      <stop stop-color="#CD9542"/>
      <stop offset="0.583333" stop-color="#FCE8A0"/>
      <stop offset="1" stop-color="#CD9542"/>
    </linearGradient>
    <linearGradient id="paint8_linear_118_1895" x1="0.166626" y1="7.39516" x2="0.97171" y2="6.78161" gradientUnits="userSpaceOnUse">
      <stop stop-color="#CD9542"/>
      <stop offset="0.583333" stop-color="#FCE8A0"/>
      <stop offset="1" stop-color="#CD9542"/>
    </linearGradient>
    <linearGradient id="paint9_linear_118_1895" x1="2.95496" y1="5.22524" x2="3.76004" y2="4.61169" gradientUnits="userSpaceOnUse">
      <stop stop-color="#CD9542"/>
      <stop offset="0.583333" stop-color="#FCE8A0"/>
      <stop offset="1" stop-color="#CD9542"/>
    </linearGradient>
    <linearGradient id="paint10_linear_118_1895" x1="2.95496" y1="9.56508" x2="3.76004" y2="8.95153" gradientUnits="userSpaceOnUse">
      <stop stop-color="#CD9542"/>
      <stop offset="0.583333" stop-color="#FCE8A0"/>
      <stop offset="1" stop-color="#CD9542"/>
    </linearGradient>
    <linearGradient id="paint11_linear_118_1895" x1="5.74792" y1="5.22524" x2="6.55301" y2="4.61169" gradientUnits="userSpaceOnUse">
      <stop stop-color="#CD9542"/>
      <stop offset="0.583333" stop-color="#FCE8A0"/>
      <stop offset="1" stop-color="#CD9542"/>
    </linearGradient>
    <linearGradient id="paint12_linear_118_1895" x1="5.74792" y1="9.56508" x2="6.55301" y2="8.95153" gradientUnits="userSpaceOnUse">
      <stop stop-color="#CD9542"/>
      <stop offset="0.583333" stop-color="#FCE8A0"/>
      <stop offset="1" stop-color="#CD9542"/>
    </linearGradient>
    <linearGradient id="paint13_linear_118_1895" x1="8.53552" y1="7.39516" x2="9.34061" y2="6.78161" gradientUnits="userSpaceOnUse">
      <stop stop-color="#CD9542"/>
      <stop offset="0.583333" stop-color="#FCE8A0"/>
      <stop offset="1" stop-color="#CD9542"/>
    </linearGradient>
    <linearGradient id="paint14_linear_118_1895" x1="0.166626" y1="9.56508" x2="0.97171" y2="8.95153" gradientUnits="userSpaceOnUse">
      <stop stop-color="#CD9542"/>
      <stop offset="0.583333" stop-color="#FCE8A0"/>
      <stop offset="1" stop-color="#CD9542"/>
    </linearGradient>
    <linearGradient id="paint15_linear_118_1895" x1="2.95496" y1="7.39516" x2="3.76004" y2="6.78161" gradientUnits="userSpaceOnUse">
      <stop stop-color="#CD9542"/>
      <stop offset="0.583333" stop-color="#FCE8A0"/>
      <stop offset="1" stop-color="#CD9542"/>
    </linearGradient>
    <linearGradient id="paint16_linear_118_1895" x1="2.95496" y1="11.7321" x2="3.76004" y2="11.1185" gradientUnits="userSpaceOnUse">
      <stop stop-color="#CD9542"/>
      <stop offset="0.583333" stop-color="#FCE8A0"/>
      <stop offset="1" stop-color="#CD9542"/>
    </linearGradient>
    <linearGradient id="paint17_linear_118_1895" x1="5.74792" y1="7.39516" x2="6.55301" y2="6.78161" gradientUnits="userSpaceOnUse">
      <stop stop-color="#CD9542"/>
      <stop offset="0.583333" stop-color="#FCE8A0"/>
      <stop offset="1" stop-color="#CD9542"/>
    </linearGradient>
    <linearGradient id="paint18_linear_118_1895" x1="5.74792" y1="11.7321" x2="6.55301" y2="11.1185" gradientUnits="userSpaceOnUse">
      <stop stop-color="#CD9542"/>
      <stop offset="0.583333" stop-color="#FCE8A0"/>
      <stop offset="1" stop-color="#CD9542"/>
    </linearGradient>
    <linearGradient id="paint19_linear_118_1895" x1="8.53552" y1="9.56508" x2="9.34061" y2="8.95153" gradientUnits="userSpaceOnUse">
      <stop stop-color="#CD9542"/>
      <stop offset="0.583333" stop-color="#FCE8A0"/>
      <stop offset="1" stop-color="#CD9542"/>
    </linearGradient>
    <linearGradient id="paint20_linear_118_1895" x1="15.5977" y1="24.7447" x2="27.6585" y2="15.5531" gradientUnits="userSpaceOnUse">
      <stop stop-color="#CD9542"/>
      <stop offset="0.583333" stop-color="#FCE8A0"/>
      <stop offset="1" stop-color="#CD9542"/>
    </linearGradient>
  </defs>
</svg>
