<svg width="26" height="25" viewBox="0 0 26 25" fill="none" xmlns="http://www.w3.org/2000/svg">
  <path d="M25.5563 19.2787C25.5563 22.3596 23.0587 24.8572 19.9778 24.8572C16.8969 24.8572 14.3993 22.3596 14.3993 19.2787C14.3993 16.1978 16.8969 13.7002 19.9778 13.7002C23.0587 13.7002 25.5563 16.1978 25.5563 19.2787Z" fill="url(#paint0_linear_169_11410)"/>
  <path d="M0.889797 2.69946C0.889797 2.89915 0.727917 3.06103 0.528227 3.06103C0.328537 3.06103 0.166656 2.89915 0.166656 2.69946C0.166656 2.49977 0.328537 2.33789 0.528227 2.33789C0.727917 2.33789 0.889797 2.49977 0.889797 2.69946Z" fill="url(#paint1_linear_169_11410)"/>
  <path d="M3.6781 0.528563C3.6781 0.728252 3.51622 0.890133 3.31653 0.890133C3.11684 0.890133 2.95496 0.728252 2.95496 0.528563C2.95496 0.328873 3.11684 0.166992 3.31653 0.166992C3.51622 0.166992 3.6781 0.328873 3.6781 0.528563Z" fill="url(#paint2_linear_169_11410)"/>
  <path d="M6.4711 0.528563C6.4711 0.728252 6.30922 0.890133 6.10953 0.890133C5.90984 0.890133 5.74796 0.728252 5.74796 0.528563C5.74796 0.328873 5.90984 0.166992 6.10953 0.166992C6.30922 0.166992 6.4711 0.328873 6.4711 0.528563Z" fill="url(#paint3_linear_169_11410)"/>
  <path d="M9.25876 2.69946C9.25876 2.89915 9.09687 3.06103 8.89718 3.06103C8.69749 3.06103 8.53561 2.89915 8.53561 2.69946C8.53561 2.49977 8.69749 2.33789 8.89718 2.33789C9.09687 2.33789 9.25876 2.49977 9.25876 2.69946Z" fill="url(#paint4_linear_169_11410)"/>
  <path d="M0.889797 4.86743C0.889797 5.06712 0.727917 5.229 0.528227 5.229C0.328537 5.229 0.166656 5.06712 0.166656 4.86743C0.166656 4.66774 0.328537 4.50586 0.528227 4.50586C0.727917 4.50586 0.889797 4.66774 0.889797 4.86743Z" fill="url(#paint5_linear_169_11410)"/>
  <path d="M3.6781 2.69946C3.6781 2.89915 3.51622 3.06103 3.31653 3.06103C3.11684 3.06103 2.95496 2.89915 2.95496 2.69946C2.95496 2.49977 3.11684 2.33789 3.31653 2.33789C3.51622 2.33789 3.6781 2.49977 3.6781 2.69946Z" fill="url(#paint6_linear_169_11410)"/>
  <path d="M6.4711 2.69946C6.4711 2.89915 6.30922 3.06103 6.10953 3.06103C5.90984 3.06103 5.74796 2.89915 5.74796 2.69946C5.74796 2.49977 5.90984 2.33789 6.10953 2.33789C6.30922 2.33789 6.4711 2.49977 6.4711 2.69946Z" fill="url(#paint7_linear_169_11410)"/>
  <path d="M9.25876 4.86743C9.25876 5.06712 9.09687 5.229 8.89718 5.229C8.69749 5.229 8.53561 5.06712 8.53561 4.86743C8.53561 4.66774 8.69749 4.50586 8.89718 4.50586C9.09687 4.50586 9.25876 4.66774 9.25876 4.86743Z" fill="url(#paint8_linear_169_11410)"/>
  <path d="M0.889797 7.03638C0.889797 7.23606 0.727917 7.39795 0.528227 7.39795C0.328537 7.39795 0.166656 7.23606 0.166656 7.03638C0.166656 6.83669 0.328537 6.6748 0.528227 6.6748C0.727917 6.6748 0.889797 6.83669 0.889797 7.03638Z" fill="url(#paint9_linear_169_11410)"/>
  <path d="M3.6781 4.86743C3.6781 5.06712 3.51622 5.229 3.31653 5.229C3.11684 5.229 2.95496 5.06712 2.95496 4.86743C2.95496 4.66774 3.11684 4.50586 3.31653 4.50586C3.51622 4.50586 3.6781 4.66774 3.6781 4.86743Z" fill="url(#paint10_linear_169_11410)"/>
  <path d="M3.6781 9.2063C3.6781 9.40599 3.51622 9.56787 3.31653 9.56787C3.11684 9.56787 2.95496 9.40599 2.95496 9.2063C2.95496 9.00661 3.11684 8.84473 3.31653 8.84473C3.51622 8.84473 3.6781 9.00661 3.6781 9.2063Z" fill="url(#paint11_linear_169_11410)"/>
  <path d="M6.4711 4.86743C6.4711 5.06712 6.30922 5.229 6.10953 5.229C5.90984 5.229 5.74796 5.06712 5.74796 4.86743C5.74796 4.66774 5.90984 4.50586 6.10953 4.50586C6.30922 4.50586 6.4711 4.66774 6.4711 4.86743Z" fill="url(#paint12_linear_169_11410)"/>
  <path d="M6.4711 9.2063C6.4711 9.40599 6.30922 9.56787 6.10953 9.56787C5.90984 9.56787 5.74796 9.40599 5.74796 9.2063C5.74796 9.00661 5.90984 8.84473 6.10953 8.84473C6.30922 8.84473 6.4711 9.00661 6.4711 9.2063Z" fill="url(#paint13_linear_169_11410)"/>
  <path d="M9.25876 7.03638C9.25876 7.23606 9.09687 7.39795 8.89718 7.39795C8.69749 7.39795 8.53561 7.23606 8.53561 7.03638C8.53561 6.83669 8.69749 6.6748 8.89718 6.6748C9.09687 6.6748 9.25876 6.83669 9.25876 7.03638Z" fill="url(#paint14_linear_169_11410)"/>
  <path d="M0.889797 9.2063C0.889797 9.40599 0.727917 9.56787 0.528227 9.56787C0.328537 9.56787 0.166656 9.40599 0.166656 9.2063C0.166656 9.00661 0.328537 8.84473 0.528227 8.84473C0.727917 8.84473 0.889797 9.00661 0.889797 9.2063Z" fill="url(#paint15_linear_169_11410)"/>
  <path d="M3.6781 7.03638C3.6781 7.23606 3.51622 7.39795 3.31653 7.39795C3.11684 7.39795 2.95496 7.23606 2.95496 7.03638C2.95496 6.83669 3.11684 6.6748 3.31653 6.6748C3.51622 6.6748 3.6781 6.83669 3.6781 7.03638Z" fill="url(#paint16_linear_169_11410)"/>
  <path d="M3.6781 11.3752C3.6781 11.5749 3.51622 11.7368 3.31653 11.7368C3.11684 11.7368 2.95496 11.5749 2.95496 11.3752C2.95496 11.1756 3.11684 11.0137 3.31653 11.0137C3.51622 11.0137 3.6781 11.1756 3.6781 11.3752Z" fill="url(#paint17_linear_169_11410)"/>
  <path d="M6.4711 7.03638C6.4711 7.23606 6.30922 7.39795 6.10953 7.39795C5.90984 7.39795 5.74796 7.23606 5.74796 7.03638C5.74796 6.83669 5.90984 6.6748 6.10953 6.6748C6.30922 6.6748 6.4711 6.83669 6.4711 7.03638Z" fill="url(#paint18_linear_169_11410)"/>
  <path d="M6.4711 11.3752C6.4711 11.5749 6.30922 11.7368 6.10953 11.7368C5.90984 11.7368 5.74796 11.5749 5.74796 11.3752C5.74796 11.1756 5.90984 11.0137 6.10953 11.0137C6.30922 11.0137 6.4711 11.1756 6.4711 11.3752Z" fill="url(#paint19_linear_169_11410)"/>
  <path d="M9.25876 9.2063C9.25876 9.40599 9.09687 9.56787 8.89718 9.56787C8.69749 9.56787 8.53561 9.40599 8.53561 9.2063C8.53561 9.00661 8.69749 8.84473 8.89718 8.84473C9.09687 8.84473 9.25876 9.00661 9.25876 9.2063Z" fill="url(#paint20_linear_169_11410)"/>
  <g filter="url(#filter0_b_169_11410)">
    <path d="M17.5509 6.07617C20.2782 6.07617 22.4892 8.2871 22.4892 11.0144L22.4892 18.3644C22.4892 21.0917 20.2782 23.3026 17.5509 23.3026L6.87053 23.3026C4.14321 23.3026 1.93228 21.0917 1.93228 18.3644L1.93228 11.0144C1.93228 8.2871 4.14321 6.07617 6.87053 6.07617L17.5509 6.07617Z" fill="white" fill-opacity="0.15"/>
  </g>
  <path fill-rule="evenodd" clip-rule="evenodd" d="M20.7665 18.3644L20.7665 11.0144C20.7665 9.23849 19.3268 7.79882 17.5509 7.79882L6.87053 7.79882C5.0946 7.79882 3.65493 9.23849 3.65493 11.0144L3.65493 18.3644C3.65493 20.1403 5.0946 21.58 6.87053 21.58L17.5509 21.58C19.3268 21.58 20.7665 20.1403 20.7665 18.3644ZM22.4892 11.0144C22.4892 8.2871 20.2782 6.07617 17.5509 6.07617L6.87053 6.07617C4.14321 6.07617 1.93228 8.2871 1.93228 11.0144L1.93228 18.3644C1.93228 21.0917 4.14321 23.3026 6.87053 23.3026L17.5509 23.3026C20.2782 23.3026 22.4892 21.0917 22.4892 18.3644L22.4892 11.0144Z" fill="url(#paint21_linear_169_11410)"/>
  <path d="M9.31559 15.154H9.94023C10.1183 17.0364 11.682 18.588 13.56 18.767V19.3658C13.56 19.4657 13.5996 19.5614 13.67 19.632C13.7405 19.7026 13.836 19.7423 13.9356 19.7423C14.0353 19.7423 14.1308 19.7026 14.2012 19.632C14.2717 19.5614 14.3113 19.4657 14.3113 19.3658V18.767C16.2519 18.588 17.7765 17.0364 17.9547 15.154H18.5557C18.6553 15.154 18.7509 15.1143 18.8213 15.0437C18.8917 14.9731 18.9313 14.8774 18.9313 14.7775C18.9313 14.6777 18.8917 14.5819 18.8213 14.5113C18.7509 14.4407 18.6553 14.401 18.5557 14.401H17.9547C17.8711 13.4592 17.4608 12.5766 16.7951 11.9065C16.1294 11.2365 15.2505 10.8216 14.3113 10.7338V10.1275C14.3113 10.0276 14.2717 9.93185 14.2012 9.86125C14.1308 9.79064 14.0353 9.75098 13.9356 9.75098C13.836 9.75098 13.7405 9.79064 13.67 9.86125C13.5996 9.93185 13.56 10.0276 13.56 10.1275V10.7338C11.682 10.9128 10.119 12.4559 9.94011 14.401H9.31559C9.21597 14.401 9.12043 14.4407 9.04999 14.5113C8.97955 14.5819 8.93997 14.6777 8.93997 14.7775C8.93997 14.8774 8.97955 14.9731 9.04999 15.0437C9.12043 15.1143 9.21597 15.154 9.31559 15.154ZM13.9476 11.4686C14.5952 11.4686 15.2282 11.6611 15.7666 12.0217C16.305 12.3823 16.7247 12.8948 16.9725 13.4944C17.2203 14.0941 17.2851 14.7539 17.1588 15.3905C17.0325 16.0271 16.7206 16.6118 16.2627 17.0708C15.8048 17.5297 15.2215 17.8423 14.5863 17.9689C13.9512 18.0955 13.2929 18.0305 12.6947 17.7822C12.0964 17.5338 11.585 17.1131 11.2253 16.5735C10.8655 16.0338 10.6735 15.3993 10.6735 14.7503C10.6745 13.8803 11.0198 13.0462 11.6335 12.431C12.2473 11.8158 13.0794 11.4697 13.9474 11.4686H13.9476Z" fill="url(#paint22_linear_169_11410)"/>
  <path fill-rule="evenodd" clip-rule="evenodd" d="M13.424 9.61673C13.559 9.48143 13.7422 9.40527 13.9335 9.40527C14.1247 9.40527 14.308 9.48143 14.443 9.61673C14.578 9.75201 14.6536 9.93532 14.6536 10.1263V10.4302C15.5547 10.5805 16.3892 11.0102 17.0373 11.6626C17.6853 12.3147 18.1102 13.1523 18.2564 14.0553H18.5535C18.7448 14.0553 18.928 14.1315 19.063 14.2668C19.198 14.4021 19.2737 14.5854 19.2737 14.7763C19.2737 14.9673 19.198 15.1506 19.063 15.2859C18.928 15.4212 18.7448 15.4974 18.5535 15.4974H18.2543C17.9478 17.3004 16.5033 18.7626 14.6536 19.0686V19.3647C14.6536 19.5556 14.578 19.7389 14.443 19.8742C14.308 20.0095 14.1247 20.0857 13.9335 20.0857C13.7422 20.0857 13.559 20.0095 13.424 19.8742C13.289 19.7389 13.2133 19.5556 13.2133 19.3647V19.0671C11.4163 18.7581 9.94592 17.2988 9.63659 15.4974H9.31343C9.12219 15.4974 8.93893 15.4212 8.80394 15.2859C8.66897 15.1506 8.59329 14.9673 8.59329 14.7763C8.59329 14.5854 8.66897 14.4021 8.80394 14.2668C8.93893 14.1315 9.12219 14.0553 9.31343 14.0553H9.63506C9.94147 12.201 11.412 10.7403 13.2133 10.4312V10.1263C13.2133 9.93532 13.289 9.75201 13.424 9.61673ZM13.9335 10.0943C13.9255 10.0943 13.9177 10.0975 13.9118 10.1034C13.9059 10.1093 13.9024 10.1176 13.9024 10.1263V11.0459L13.5906 11.0756C11.8779 11.2388 10.4448 12.6506 10.281 14.4314L10.2523 14.7444H9.31343C9.30545 14.7444 9.29763 14.7476 9.29173 14.7535C9.28582 14.7594 9.28235 14.7676 9.28235 14.7763C9.28235 14.7851 9.28582 14.7933 9.29173 14.7992C9.29763 14.8051 9.30545 14.8083 9.31343 14.8083H10.2516L10.2811 15.1204C10.4435 16.837 11.8757 18.2594 13.5906 18.4228L13.9024 18.4525V19.3647C13.9024 19.3734 13.9059 19.3816 13.9118 19.3875C13.9177 19.3934 13.9255 19.3966 13.9335 19.3966C13.9415 19.3966 13.9493 19.3934 13.9552 19.3875C13.9611 19.3816 13.9646 19.3734 13.9646 19.3647V18.4516L14.2775 18.4227C16.0527 18.259 17.4469 16.8384 17.6096 15.1203L17.6391 14.8083H18.5535C18.5615 14.8083 18.5693 14.8051 18.5752 14.7992C18.5812 14.7933 18.5846 14.7851 18.5846 14.7763C18.5846 14.7676 18.5812 14.7594 18.5752 14.7535C18.5693 14.7476 18.5615 14.7444 18.5535 14.7444H17.6373L17.6094 14.4303C17.5329 13.5686 17.1574 12.7611 16.5485 12.1482C15.9397 11.5354 15.1359 11.1559 14.277 11.0756L13.9646 11.0464V10.1263C13.9646 10.1176 13.9611 10.1093 13.9552 10.1034C13.9493 10.0975 13.9415 10.0943 13.9335 10.0943ZM13.9448 11.1229L13.9453 11.1229L13.9454 11.1229C14.6613 11.1229 15.3611 11.3357 15.9562 11.7342C16.5512 12.1328 17.0149 12.6992 17.2887 13.3617C17.5625 14.0242 17.6341 14.7531 17.4946 15.4564C17.355 16.1597 17.0105 16.8058 16.5045 17.3129C15.9985 17.8201 15.3537 18.1656 14.6516 18.3056C13.9495 18.4456 13.2217 18.3737 12.5604 18.0992C11.8991 17.8246 11.334 17.3597 10.9365 16.7634C10.5389 16.1671 10.3268 15.4661 10.3268 14.7491L10.3268 14.7487C10.3279 13.7877 10.7093 12.8663 11.3875 12.1865C12.0657 11.5067 12.9853 11.1241 13.9448 11.1229ZM13.9455 11.812C13.1691 11.813 12.4245 12.1226 11.8753 12.6732C11.326 13.2237 11.0168 13.9704 11.0159 14.7493C11.0159 15.3303 11.1878 15.8982 11.5098 16.3812C11.8318 16.8642 12.2894 17.2406 12.8246 17.4628C13.3598 17.685 13.9487 17.7431 14.5168 17.6298C15.085 17.5166 15.6069 17.237 16.0167 16.8263C16.4265 16.4155 16.7056 15.8922 16.8187 15.3223C16.9318 14.7524 16.8737 14.1616 16.6519 13.6249C16.4301 13.0881 16.0545 12.6294 15.5727 12.3068C15.091 11.9841 14.5247 11.812 13.9455 11.812Z" fill="url(#paint23_linear_169_11410)"/>
  <path fill-rule="evenodd" clip-rule="evenodd" d="M13.9927 15.845C14.6309 15.845 15.1482 15.3277 15.1482 14.6895C15.1482 14.0513 14.6309 13.534 13.9927 13.534C13.3545 13.534 12.8372 14.0513 12.8372 14.6895C12.8372 15.3277 13.3545 15.845 13.9927 15.845ZM13.9927 16.7638C15.1383 16.7638 16.067 15.8351 16.067 14.6895C16.067 13.5439 15.1383 12.6152 13.9927 12.6152C12.8471 12.6152 11.9185 13.5439 11.9185 14.6895C11.9185 15.8351 12.8471 16.7638 13.9927 16.7638Z" fill="url(#paint24_linear_169_11410)"/>
  <path d="M3.30899 11.4744C3.30899 11.2841 3.46324 11.1299 3.65352 11.1299H4.91679C5.10707 11.1299 5.26132 11.2841 5.26132 11.4744V13.3119C5.26132 13.5022 5.10707 13.6564 4.91679 13.6564H3.65352C3.46324 13.6564 3.30899 13.5022 3.30899 13.3119V11.4744Z" fill="url(#paint25_linear_169_11410)"/>
  <path d="M3.30899 16.5262C3.30899 16.3359 3.46324 16.1816 3.65352 16.1816H4.91679C5.10707 16.1816 5.26132 16.3359 5.26132 16.5262V18.3637C5.26132 18.5539 5.10707 18.7082 4.91679 18.7082H3.65352C3.46324 18.7082 3.30899 18.5539 3.30899 18.3637V16.5262Z" fill="url(#paint26_linear_169_11410)"/>
  <defs>
    <filter id="filter0_b_169_11410" x="-5.06772" y="-0.923828" width="34.5569" height="31.2266" filterUnits="userSpaceOnUse" color-interpolation-filters="sRGB">
      <feFlood flood-opacity="0" result="BackgroundImageFix"/>
      <feGaussianBlur in="BackgroundImage" stdDeviation="3.5"/>
      <feComposite in2="SourceAlpha" operator="in" result="effect1_backgroundBlur_169_11410"/>
      <feBlend mode="normal" in="SourceGraphic" in2="effect1_backgroundBlur_169_11410" result="shape"/>
    </filter>
    <linearGradient id="paint0_linear_169_11410" x1="14.3993" y1="24.8149" x2="26.8214" y2="15.3481" gradientUnits="userSpaceOnUse">
      <stop stop-color="#CD9542"/>
      <stop offset="0.583333" stop-color="#FCE8A0"/>
      <stop offset="1" stop-color="#CD9542"/>
    </linearGradient>
    <linearGradient id="paint1_linear_169_11410" x1="0.166656" y1="2.69809" x2="0.890391" y2="2.69809" gradientUnits="userSpaceOnUse">
      <stop stop-color="#007067"/>
      <stop offset="1" stop-color="#00978C"/>
    </linearGradient>
    <linearGradient id="paint2_linear_169_11410" x1="2.95496" y1="0.527192" x2="3.67869" y2="0.527192" gradientUnits="userSpaceOnUse">
      <stop stop-color="#007067"/>
      <stop offset="1" stop-color="#00978C"/>
    </linearGradient>
    <linearGradient id="paint3_linear_169_11410" x1="5.74796" y1="0.527192" x2="6.47169" y2="0.527192" gradientUnits="userSpaceOnUse">
      <stop stop-color="#007067"/>
      <stop offset="1" stop-color="#00978C"/>
    </linearGradient>
    <linearGradient id="paint4_linear_169_11410" x1="8.53561" y1="2.69809" x2="9.25935" y2="2.69809" gradientUnits="userSpaceOnUse">
      <stop stop-color="#007067"/>
      <stop offset="1" stop-color="#00978C"/>
    </linearGradient>
    <linearGradient id="paint5_linear_169_11410" x1="0.166656" y1="4.86606" x2="0.890391" y2="4.86606" gradientUnits="userSpaceOnUse">
      <stop stop-color="#007067"/>
      <stop offset="1" stop-color="#00978C"/>
    </linearGradient>
    <linearGradient id="paint6_linear_169_11410" x1="2.95496" y1="2.69809" x2="3.67869" y2="2.69809" gradientUnits="userSpaceOnUse">
      <stop stop-color="#007067"/>
      <stop offset="1" stop-color="#00978C"/>
    </linearGradient>
    <linearGradient id="paint7_linear_169_11410" x1="5.74796" y1="2.69809" x2="6.47169" y2="2.69809" gradientUnits="userSpaceOnUse">
      <stop stop-color="#007067"/>
      <stop offset="1" stop-color="#00978C"/>
    </linearGradient>
    <linearGradient id="paint8_linear_169_11410" x1="8.53561" y1="4.86606" x2="9.25935" y2="4.86606" gradientUnits="userSpaceOnUse">
      <stop stop-color="#007067"/>
      <stop offset="1" stop-color="#00978C"/>
    </linearGradient>
    <linearGradient id="paint9_linear_169_11410" x1="0.166656" y1="7.035" x2="0.890391" y2="7.035" gradientUnits="userSpaceOnUse">
      <stop stop-color="#007067"/>
      <stop offset="1" stop-color="#00978C"/>
    </linearGradient>
    <linearGradient id="paint10_linear_169_11410" x1="2.95496" y1="4.86606" x2="3.67869" y2="4.86606" gradientUnits="userSpaceOnUse">
      <stop stop-color="#007067"/>
      <stop offset="1" stop-color="#00978C"/>
    </linearGradient>
    <linearGradient id="paint11_linear_169_11410" x1="2.95496" y1="9.20493" x2="3.67869" y2="9.20493" gradientUnits="userSpaceOnUse">
      <stop stop-color="#007067"/>
      <stop offset="1" stop-color="#00978C"/>
    </linearGradient>
    <linearGradient id="paint12_linear_169_11410" x1="5.74796" y1="4.86606" x2="6.47169" y2="4.86606" gradientUnits="userSpaceOnUse">
      <stop stop-color="#007067"/>
      <stop offset="1" stop-color="#00978C"/>
    </linearGradient>
    <linearGradient id="paint13_linear_169_11410" x1="5.74796" y1="9.20493" x2="6.47169" y2="9.20493" gradientUnits="userSpaceOnUse">
      <stop stop-color="#007067"/>
      <stop offset="1" stop-color="#00978C"/>
    </linearGradient>
    <linearGradient id="paint14_linear_169_11410" x1="8.53561" y1="7.035" x2="9.25935" y2="7.035" gradientUnits="userSpaceOnUse">
      <stop stop-color="#007067"/>
      <stop offset="1" stop-color="#00978C"/>
    </linearGradient>
    <linearGradient id="paint15_linear_169_11410" x1="0.166656" y1="9.20493" x2="0.890391" y2="9.20493" gradientUnits="userSpaceOnUse">
      <stop stop-color="#007067"/>
      <stop offset="1" stop-color="#00978C"/>
    </linearGradient>
    <linearGradient id="paint16_linear_169_11410" x1="2.95496" y1="7.035" x2="3.67869" y2="7.035" gradientUnits="userSpaceOnUse">
      <stop stop-color="#007067"/>
      <stop offset="1" stop-color="#00978C"/>
    </linearGradient>
    <linearGradient id="paint17_linear_169_11410" x1="2.95496" y1="11.3739" x2="3.67869" y2="11.3739" gradientUnits="userSpaceOnUse">
      <stop stop-color="#007067"/>
      <stop offset="1" stop-color="#00978C"/>
    </linearGradient>
    <linearGradient id="paint18_linear_169_11410" x1="5.74796" y1="7.035" x2="6.47169" y2="7.035" gradientUnits="userSpaceOnUse">
      <stop stop-color="#007067"/>
      <stop offset="1" stop-color="#00978C"/>
    </linearGradient>
    <linearGradient id="paint19_linear_169_11410" x1="5.74796" y1="11.3739" x2="6.47169" y2="11.3739" gradientUnits="userSpaceOnUse">
      <stop stop-color="#007067"/>
      <stop offset="1" stop-color="#00978C"/>
    </linearGradient>
    <linearGradient id="paint20_linear_169_11410" x1="8.53561" y1="9.20493" x2="9.25935" y2="9.20493" gradientUnits="userSpaceOnUse">
      <stop stop-color="#007067"/>
      <stop offset="1" stop-color="#00978C"/>
    </linearGradient>
    <linearGradient id="paint21_linear_169_11410" x1="12.2497" y1="6.07617" x2="12.2497" y2="23.3168" gradientUnits="userSpaceOnUse">
      <stop stop-color="#007067"/>
      <stop offset="1" stop-color="#00978C"/>
    </linearGradient>
    <linearGradient id="paint22_linear_169_11410" x1="8.93997" y1="14.7277" x2="18.9395" y2="14.7277" gradientUnits="userSpaceOnUse">
      <stop stop-color="#007067"/>
      <stop offset="1" stop-color="#00978C"/>
    </linearGradient>
    <linearGradient id="paint23_linear_169_11410" x1="8.59329" y1="14.7252" x2="19.2824" y2="14.7252" gradientUnits="userSpaceOnUse">
      <stop stop-color="#007067"/>
      <stop offset="1" stop-color="#00978C"/>
    </linearGradient>
    <linearGradient id="paint24_linear_169_11410" x1="11.9185" y1="14.6816" x2="16.0704" y2="14.6816" gradientUnits="userSpaceOnUse">
      <stop stop-color="#007067"/>
      <stop offset="1" stop-color="#00978C"/>
    </linearGradient>
    <linearGradient id="paint25_linear_169_11410" x1="3.30899" y1="12.3884" x2="5.26292" y2="12.3884" gradientUnits="userSpaceOnUse">
      <stop stop-color="#007067"/>
      <stop offset="1" stop-color="#00978C"/>
    </linearGradient>
    <linearGradient id="paint26_linear_169_11410" x1="3.30899" y1="17.4401" x2="5.26292" y2="17.4401" gradientUnits="userSpaceOnUse">
      <stop stop-color="#007067"/>
      <stop offset="1" stop-color="#00978C"/>
    </linearGradient>
  </defs>
</svg>
