<svg width="28" height="28" viewBox="0 0 28 28" fill="none" xmlns="http://www.w3.org/2000/svg">
  <path d="M1.88734 3.68866C1.88734 3.88777 1.7263 4.04919 1.52765 4.04919C1.32901 4.04919 1.16797 3.88777 1.16797 3.68866C1.16797 3.48954 1.32901 3.32812 1.52765 3.32812C1.7263 3.32812 1.88734 3.48954 1.88734 3.68866Z" fill="url(#paint0_linear_72_40103)"/>
  <path d="M4.66148 1.52655C4.66148 1.72566 4.50044 1.88708 4.30179 1.88708C4.10314 1.88708 3.94211 1.72566 3.94211 1.52655C3.94211 1.32743 4.10314 1.16602 4.30179 1.16602C4.50044 1.16602 4.66148 1.32743 4.66148 1.52655Z" fill="url(#paint1_linear_72_40103)"/>
  <path d="M7.43495 1.52655C7.43495 1.72566 7.27391 1.88708 7.07526 1.88708C6.87661 1.88708 6.71558 1.72566 6.71558 1.52655C6.71558 1.32743 6.87661 1.16602 7.07526 1.16602C7.27391 1.16602 7.43495 1.32743 7.43495 1.52655Z" fill="url(#paint2_linear_72_40103)"/>
  <path d="M10.2091 3.68866C10.2091 3.88777 10.048 4.04919 9.8494 4.04919C9.65075 4.04919 9.48972 3.88777 9.48972 3.68866C9.48972 3.48954 9.65075 3.32812 9.8494 3.32812C10.048 3.32812 10.2091 3.48954 10.2091 3.68866Z" fill="url(#paint3_linear_72_40103)"/>
  <path d="M1.88734 5.85467C1.88734 6.05379 1.7263 6.2152 1.52765 6.2152C1.32901 6.2152 1.16797 6.05379 1.16797 5.85467C1.16797 5.65556 1.32901 5.49414 1.52765 5.49414C1.7263 5.49414 1.88734 5.65556 1.88734 5.85467Z" fill="url(#paint4_linear_72_40103)"/>
  <path d="M4.66148 3.68866C4.66148 3.88777 4.50044 4.04919 4.30179 4.04919C4.10314 4.04919 3.94211 3.88777 3.94211 3.68866C3.94211 3.48954 4.10314 3.32812 4.30179 3.32812C4.50044 3.32812 4.66148 3.48954 4.66148 3.68866Z" fill="url(#paint5_linear_72_40103)"/>
  <path d="M7.43495 3.68866C7.43495 3.88777 7.27391 4.04919 7.07526 4.04919C6.87661 4.04919 6.71558 3.88777 6.71558 3.68866C6.71558 3.48954 6.87661 3.32812 7.07526 3.32812C7.27391 3.32812 7.43495 3.48954 7.43495 3.68866Z" fill="url(#paint6_linear_72_40103)"/>
  <path d="M10.2091 5.85467C10.2091 6.05379 10.048 6.2152 9.8494 6.2152C9.65075 6.2152 9.48972 6.05379 9.48972 5.85467C9.48972 5.65556 9.65075 5.49414 9.8494 5.49414C10.048 5.49414 10.2091 5.65556 10.2091 5.85467Z" fill="url(#paint7_linear_72_40103)"/>
  <path d="M1.88734 8.0158C1.88734 8.21492 1.7263 8.37634 1.52765 8.37634C1.32901 8.37634 1.16797 8.21492 1.16797 8.0158C1.16797 7.81669 1.32901 7.65527 1.52765 7.65527C1.7263 7.65527 1.88734 7.81669 1.88734 8.0158Z" fill="url(#paint8_linear_72_40103)"/>
  <path d="M4.66148 5.85467C4.66148 6.05379 4.50044 6.2152 4.30179 6.2152C4.10314 6.2152 3.94211 6.05379 3.94211 5.85467C3.94211 5.65556 4.10314 5.49414 4.30179 5.49414C4.50044 5.49414 4.66148 5.65556 4.66148 5.85467Z" fill="url(#paint9_linear_72_40103)"/>
  <path d="M4.66148 10.1789C4.66148 10.378 4.50044 10.5394 4.30179 10.5394C4.10314 10.5394 3.94211 10.378 3.94211 10.1789C3.94211 9.97977 4.10314 9.81836 4.30179 9.81836C4.50044 9.81836 4.66148 9.97977 4.66148 10.1789Z" fill="url(#paint10_linear_72_40103)"/>
  <path d="M7.43495 5.85467C7.43495 6.05379 7.27391 6.2152 7.07526 6.2152C6.87661 6.2152 6.71558 6.05379 6.71558 5.85467C6.71558 5.65556 6.87661 5.49414 7.07526 5.49414C7.27391 5.49414 7.43495 5.65556 7.43495 5.85467Z" fill="url(#paint11_linear_72_40103)"/>
  <path d="M7.43495 10.1789C7.43495 10.378 7.27391 10.5394 7.07526 10.5394C6.87661 10.5394 6.71558 10.378 6.71558 10.1789C6.71558 9.97977 6.87661 9.81836 7.07526 9.81836C7.27391 9.81836 7.43495 9.97977 7.43495 10.1789Z" fill="url(#paint12_linear_72_40103)"/>
  <path d="M10.2091 8.0158C10.2091 8.21492 10.048 8.37634 9.8494 8.37634C9.65075 8.37634 9.48972 8.21492 9.48972 8.0158C9.48972 7.81669 9.65075 7.65527 9.8494 7.65527C10.048 7.65527 10.2091 7.81669 10.2091 8.0158Z" fill="url(#paint13_linear_72_40103)"/>
  <path d="M1.88734 10.1789C1.88734 10.378 1.7263 10.5394 1.52765 10.5394C1.32901 10.5394 1.16797 10.378 1.16797 10.1789C1.16797 9.97977 1.32901 9.81836 1.52765 9.81836C1.7263 9.81836 1.88734 9.97977 1.88734 10.1789Z" fill="url(#paint14_linear_72_40103)"/>
  <path d="M4.66148 8.0158C4.66148 8.21492 4.50044 8.37634 4.30179 8.37634C4.10314 8.37634 3.94211 8.21492 3.94211 8.0158C3.94211 7.81669 4.10314 7.65527 4.30179 7.65527C4.50044 7.65527 4.66148 7.81669 4.66148 8.0158Z" fill="url(#paint15_linear_72_40103)"/>
  <path d="M4.66148 12.342C4.66148 12.5411 4.50044 12.7025 4.30179 12.7025C4.10314 12.7025 3.94211 12.5411 3.94211 12.342C3.94211 12.1429 4.10314 11.9814 4.30179 11.9814C4.50044 11.9814 4.66148 12.1429 4.66148 12.342Z" fill="url(#paint16_linear_72_40103)"/>
  <path d="M7.43495 8.0158C7.43495 8.21492 7.27391 8.37634 7.07526 8.37634C6.87661 8.37634 6.71558 8.21492 6.71558 8.0158C6.71558 7.81669 6.87661 7.65527 7.07526 7.65527C7.27391 7.65527 7.43495 7.81669 7.43495 8.0158Z" fill="url(#paint17_linear_72_40103)"/>
  <path d="M7.43495 12.342C7.43495 12.5411 7.27391 12.7025 7.07526 12.7025C6.87661 12.7025 6.71558 12.5411 6.71558 12.342C6.71558 12.1429 6.87661 11.9814 7.07526 11.9814C7.27391 11.9814 7.43495 12.1429 7.43495 12.342Z" fill="url(#paint18_linear_72_40103)"/>
  <path d="M10.2091 10.1789C10.2091 10.378 10.048 10.5394 9.8494 10.5394C9.65075 10.5394 9.48972 10.378 9.48972 10.1789C9.48972 9.97977 9.65075 9.81836 9.8494 9.81836C10.048 9.81836 10.2091 9.97977 10.2091 10.1789Z" fill="url(#paint19_linear_72_40103)"/>
  <path d="M27.4272 20.2226C27.4272 23.2947 24.9427 25.7851 21.8778 25.7851C18.813 25.7851 16.3284 23.2947 16.3284 20.2226C16.3284 17.1506 18.813 14.6602 21.8778 14.6602C24.9427 14.6602 27.4272 17.1506 27.4272 20.2226Z" fill="url(#paint20_linear_72_40103)"/>
  <g filter="url(#filter0_b_72_40103)">
    <path d="M23.6796 10.832L18.3655 4.76855H10.9256L9.86278 5.30357L9.33136 19.5705L10.2171 22.7806H22.9711L24.0339 21.7106L23.6796 10.832Z" fill="white" fill-opacity="0.15"/>
  </g>
  <path d="M11.949 10.4984C11.949 10.0462 12.3566 9.67969 12.8595 9.67969H14.6325C15.1353 9.67969 15.543 10.0462 15.543 10.4984C15.543 10.9506 15.1353 11.3171 14.6325 11.3171H12.8595C12.3566 11.3171 11.949 10.9506 11.949 10.4984Z" fill="url(#paint21_linear_72_40103)"/>
  <path d="M11.949 14.2667C11.949 13.724 12.3306 13.2842 12.8014 13.2842H18.6112C19.082 13.2842 19.4636 13.724 19.4636 14.2667C19.4636 14.8093 19.082 15.2491 18.6112 15.2491H12.8014C12.3306 15.2491 11.949 14.8093 11.949 14.2667Z" fill="url(#paint22_linear_72_40103)"/>
  <path fill-rule="evenodd" clip-rule="evenodd" d="M24.0955 10.4654L18.5371 4.48513C18.3431 4.27681 18.0695 4.1582 17.7805 4.1582H10.6335C9.19486 4.1582 8.02478 5.27652 8.02478 6.64999V21.6007C8.02478 22.9742 9.19486 24.0925 10.6335 24.0925H21.7512C23.1898 24.0925 24.3609 22.9742 24.3609 21.6007V11.1352C24.3609 10.887 24.266 10.6488 24.0955 10.4654ZM17.8273 6.28429L21.8205 10.5369H18.8671C18.2933 10.5369 17.8273 10.0008 17.8273 9.3408V6.28429ZM10.4304 22.2324H21.9599C22.285 22.2324 22.5486 22.0041 22.5486 21.7229V12.0437H19.0694C17.4843 12.0437 16.1957 10.7416 16.1957 9.13995V5.93052H10.4304C10.1064 5.93052 9.84276 6.15875 9.84276 6.43995V21.7229C9.84276 22.0041 10.1064 22.2324 10.4304 22.2324Z" fill="url(#paint23_linear_72_40103)"/>
  <defs>
    <filter id="filter0_b_72_40103" x="5.33136" y="0.768555" width="22.7025" height="26.0117" filterUnits="userSpaceOnUse" color-interpolation-filters="sRGB">
      <feFlood flood-opacity="0" result="BackgroundImageFix"/>
      <feGaussianBlur in="BackgroundImage" stdDeviation="2"/>
      <feComposite in2="SourceAlpha" operator="in" result="effect1_backgroundBlur_72_40103"/>
      <feBlend mode="normal" in="SourceGraphic" in2="effect1_backgroundBlur_72_40103" result="shape"/>
    </filter>
    <linearGradient id="paint0_linear_72_40103" x1="1.16797" y1="4.04645" x2="1.97029" y2="3.43645" gradientUnits="userSpaceOnUse">
      <stop stop-color="#CD9542"/>
      <stop offset="0.583333" stop-color="#FCE8A0"/>
      <stop offset="1" stop-color="#CD9542"/>
    </linearGradient>
    <linearGradient id="paint1_linear_72_40103" x1="3.94211" y1="1.88434" x2="4.74443" y2="1.27434" gradientUnits="userSpaceOnUse">
      <stop stop-color="#CD9542"/>
      <stop offset="0.583333" stop-color="#FCE8A0"/>
      <stop offset="1" stop-color="#CD9542"/>
    </linearGradient>
    <linearGradient id="paint2_linear_72_40103" x1="6.71558" y1="1.88434" x2="7.51789" y2="1.27434" gradientUnits="userSpaceOnUse">
      <stop stop-color="#CD9542"/>
      <stop offset="0.583333" stop-color="#FCE8A0"/>
      <stop offset="1" stop-color="#CD9542"/>
    </linearGradient>
    <linearGradient id="paint3_linear_72_40103" x1="9.48972" y1="4.04645" x2="10.292" y2="3.43645" gradientUnits="userSpaceOnUse">
      <stop stop-color="#CD9542"/>
      <stop offset="0.583333" stop-color="#FCE8A0"/>
      <stop offset="1" stop-color="#CD9542"/>
    </linearGradient>
    <linearGradient id="paint4_linear_72_40103" x1="1.16797" y1="6.21247" x2="1.97029" y2="5.60246" gradientUnits="userSpaceOnUse">
      <stop stop-color="#CD9542"/>
      <stop offset="0.583333" stop-color="#FCE8A0"/>
      <stop offset="1" stop-color="#CD9542"/>
    </linearGradient>
    <linearGradient id="paint5_linear_72_40103" x1="3.94211" y1="4.04645" x2="4.74443" y2="3.43645" gradientUnits="userSpaceOnUse">
      <stop stop-color="#CD9542"/>
      <stop offset="0.583333" stop-color="#FCE8A0"/>
      <stop offset="1" stop-color="#CD9542"/>
    </linearGradient>
    <linearGradient id="paint6_linear_72_40103" x1="6.71558" y1="4.04645" x2="7.51789" y2="3.43645" gradientUnits="userSpaceOnUse">
      <stop stop-color="#CD9542"/>
      <stop offset="0.583333" stop-color="#FCE8A0"/>
      <stop offset="1" stop-color="#CD9542"/>
    </linearGradient>
    <linearGradient id="paint7_linear_72_40103" x1="9.48972" y1="6.21247" x2="10.292" y2="5.60246" gradientUnits="userSpaceOnUse">
      <stop stop-color="#CD9542"/>
      <stop offset="0.583333" stop-color="#FCE8A0"/>
      <stop offset="1" stop-color="#CD9542"/>
    </linearGradient>
    <linearGradient id="paint8_linear_72_40103" x1="1.16797" y1="8.3736" x2="1.97029" y2="7.76359" gradientUnits="userSpaceOnUse">
      <stop stop-color="#CD9542"/>
      <stop offset="0.583333" stop-color="#FCE8A0"/>
      <stop offset="1" stop-color="#CD9542"/>
    </linearGradient>
    <linearGradient id="paint9_linear_72_40103" x1="3.94211" y1="6.21247" x2="4.74443" y2="5.60246" gradientUnits="userSpaceOnUse">
      <stop stop-color="#CD9542"/>
      <stop offset="0.583333" stop-color="#FCE8A0"/>
      <stop offset="1" stop-color="#CD9542"/>
    </linearGradient>
    <linearGradient id="paint10_linear_72_40103" x1="3.94211" y1="10.5367" x2="4.74442" y2="9.92668" gradientUnits="userSpaceOnUse">
      <stop stop-color="#CD9542"/>
      <stop offset="0.583333" stop-color="#FCE8A0"/>
      <stop offset="1" stop-color="#CD9542"/>
    </linearGradient>
    <linearGradient id="paint11_linear_72_40103" x1="6.71558" y1="6.21247" x2="7.51789" y2="5.60246" gradientUnits="userSpaceOnUse">
      <stop stop-color="#CD9542"/>
      <stop offset="0.583333" stop-color="#FCE8A0"/>
      <stop offset="1" stop-color="#CD9542"/>
    </linearGradient>
    <linearGradient id="paint12_linear_72_40103" x1="6.71558" y1="10.5367" x2="7.51789" y2="9.92668" gradientUnits="userSpaceOnUse">
      <stop stop-color="#CD9542"/>
      <stop offset="0.583333" stop-color="#FCE8A0"/>
      <stop offset="1" stop-color="#CD9542"/>
    </linearGradient>
    <linearGradient id="paint13_linear_72_40103" x1="9.48972" y1="8.3736" x2="10.292" y2="7.76359" gradientUnits="userSpaceOnUse">
      <stop stop-color="#CD9542"/>
      <stop offset="0.583333" stop-color="#FCE8A0"/>
      <stop offset="1" stop-color="#CD9542"/>
    </linearGradient>
    <linearGradient id="paint14_linear_72_40103" x1="1.16797" y1="10.5367" x2="1.97029" y2="9.92668" gradientUnits="userSpaceOnUse">
      <stop stop-color="#CD9542"/>
      <stop offset="0.583333" stop-color="#FCE8A0"/>
      <stop offset="1" stop-color="#CD9542"/>
    </linearGradient>
    <linearGradient id="paint15_linear_72_40103" x1="3.94211" y1="8.3736" x2="4.74443" y2="7.7636" gradientUnits="userSpaceOnUse">
      <stop stop-color="#CD9542"/>
      <stop offset="0.583333" stop-color="#FCE8A0"/>
      <stop offset="1" stop-color="#CD9542"/>
    </linearGradient>
    <linearGradient id="paint16_linear_72_40103" x1="3.94211" y1="12.6998" x2="4.74443" y2="12.0898" gradientUnits="userSpaceOnUse">
      <stop stop-color="#CD9542"/>
      <stop offset="0.583333" stop-color="#FCE8A0"/>
      <stop offset="1" stop-color="#CD9542"/>
    </linearGradient>
    <linearGradient id="paint17_linear_72_40103" x1="6.71558" y1="8.3736" x2="7.51789" y2="7.76359" gradientUnits="userSpaceOnUse">
      <stop stop-color="#CD9542"/>
      <stop offset="0.583333" stop-color="#FCE8A0"/>
      <stop offset="1" stop-color="#CD9542"/>
    </linearGradient>
    <linearGradient id="paint18_linear_72_40103" x1="6.71558" y1="12.6998" x2="7.51789" y2="12.0898" gradientUnits="userSpaceOnUse">
      <stop stop-color="#CD9542"/>
      <stop offset="0.583333" stop-color="#FCE8A0"/>
      <stop offset="1" stop-color="#CD9542"/>
    </linearGradient>
    <linearGradient id="paint19_linear_72_40103" x1="9.48972" y1="10.5367" x2="10.292" y2="9.92668" gradientUnits="userSpaceOnUse">
      <stop stop-color="#CD9542"/>
      <stop offset="0.583333" stop-color="#FCE8A0"/>
      <stop offset="1" stop-color="#CD9542"/>
    </linearGradient>
    <linearGradient id="paint20_linear_72_40103" x1="16.3284" y1="25.7429" x2="28.707" y2="16.3314" gradientUnits="userSpaceOnUse">
      <stop stop-color="#CD9542"/>
      <stop offset="0.583333" stop-color="#FCE8A0"/>
      <stop offset="1" stop-color="#CD9542"/>
    </linearGradient>
    <linearGradient id="paint21_linear_72_40103" x1="11.949" y1="10.4953" x2="15.5459" y2="10.4953" gradientUnits="userSpaceOnUse">
      <stop stop-color="#007067"/>
      <stop offset="1" stop-color="#00978C"/>
    </linearGradient>
    <linearGradient id="paint22_linear_72_40103" x1="11.949" y1="14.2629" x2="19.4698" y2="14.2629" gradientUnits="userSpaceOnUse">
      <stop stop-color="#007067"/>
      <stop offset="1" stop-color="#00978C"/>
    </linearGradient>
    <linearGradient id="paint23_linear_72_40103" x1="8.02478" y1="14.0876" x2="24.3743" y2="14.0876" gradientUnits="userSpaceOnUse">
      <stop stop-color="#007067"/>
      <stop offset="1" stop-color="#00978C"/>
    </linearGradient>
  </defs>
</svg>
