<svg width="28" height="28" viewBox="0 0 28 28" fill="none" xmlns="http://www.w3.org/2000/svg">
  <path d="M1.9192 2.64332C1.9192 2.85192 1.75103 3.02102 1.54358 3.02102C1.33614 3.02102 1.16797 2.85192 1.16797 2.64332C1.16797 2.43473 1.33614 2.26562 1.54358 2.26562C1.75103 2.26562 1.9192 2.43473 1.9192 2.64332Z" fill="url(#paint0_linear_72_40064)"/>
  <path d="M4.81727 0.377699C4.81727 0.586297 4.6491 0.755399 4.44165 0.755399C4.23421 0.755399 4.06604 0.586297 4.06604 0.377699C4.06604 0.169102 4.23421 0 4.44165 0C4.6491 0 4.81727 0.169102 4.81727 0.377699Z" fill="url(#paint1_linear_72_40064)"/>
  <path d="M7.71058 0.377699C7.71058 0.586297 7.54241 0.755399 7.33496 0.755399C7.12752 0.755399 6.95935 0.586297 6.95935 0.377699C6.95935 0.169102 7.12752 0 7.33496 0C7.54241 0 7.71058 0.169102 7.71058 0.377699Z" fill="url(#paint2_linear_72_40064)"/>
  <path d="M10.6086 2.64332C10.6086 2.85192 10.4405 3.02102 10.233 3.02102C10.0256 3.02102 9.85742 2.85192 9.85742 2.64332C9.85742 2.43473 10.0256 2.26562 10.233 2.26562C10.4405 2.26562 10.6086 2.43473 10.6086 2.64332Z" fill="url(#paint3_linear_72_40064)"/>
  <path d="M1.9192 4.91286C1.9192 5.12145 1.75103 5.29056 1.54358 5.29056C1.33614 5.29056 1.16797 5.12145 1.16797 4.91286C1.16797 4.70426 1.33614 4.53516 1.54358 4.53516C1.75103 4.53516 1.9192 4.70426 1.9192 4.91286Z" fill="url(#paint4_linear_72_40064)"/>
  <path d="M4.81727 2.64332C4.81727 2.85192 4.6491 3.02102 4.44165 3.02102C4.23421 3.02102 4.06604 2.85192 4.06604 2.64332C4.06604 2.43473 4.23421 2.26562 4.44165 2.26562C4.6491 2.26562 4.81727 2.43473 4.81727 2.64332Z" fill="url(#paint5_linear_72_40064)"/>
  <path d="M7.71058 2.64332C7.71058 2.85192 7.54241 3.02102 7.33496 3.02102C7.12752 3.02102 6.95935 2.85192 6.95935 2.64332C6.95935 2.43473 7.12752 2.26562 7.33496 2.26562C7.54241 2.26562 7.71058 2.43473 7.71058 2.64332Z" fill="url(#paint6_linear_72_40064)"/>
  <path d="M10.6086 4.91286C10.6086 5.12145 10.4405 5.29056 10.233 5.29056C10.0256 5.29056 9.85742 5.12145 9.85742 4.91286C9.85742 4.70426 10.0256 4.53516 10.233 4.53516C10.4405 4.53516 10.6086 4.70426 10.6086 4.91286Z" fill="url(#paint7_linear_72_40064)"/>
  <path d="M1.9192 7.17653C1.9192 7.38513 1.75103 7.55423 1.54358 7.55423C1.33614 7.55423 1.16797 7.38513 1.16797 7.17653C1.16797 6.96793 1.33614 6.79883 1.54358 6.79883C1.75103 6.79883 1.9192 6.96793 1.9192 7.17653Z" fill="url(#paint8_linear_72_40064)"/>
  <path d="M4.81727 4.91286C4.81727 5.12145 4.6491 5.29056 4.44165 5.29056C4.23421 5.29056 4.06604 5.12145 4.06604 4.91286C4.06604 4.70426 4.23421 4.53516 4.44165 4.53516C4.6491 4.53516 4.81727 4.70426 4.81727 4.91286Z" fill="url(#paint9_linear_72_40064)"/>
  <path d="M4.81727 9.44215C4.81727 9.65075 4.6491 9.81985 4.44165 9.81985C4.23421 9.81985 4.06604 9.65075 4.06604 9.44215C4.06604 9.23355 4.23421 9.06445 4.44165 9.06445C4.6491 9.06445 4.81727 9.23355 4.81727 9.44215Z" fill="url(#paint10_linear_72_40064)"/>
  <path d="M7.71058 4.91286C7.71058 5.12145 7.54241 5.29056 7.33496 5.29056C7.12752 5.29056 6.95935 5.12145 6.95935 4.91286C6.95935 4.70426 7.12752 4.53516 7.33496 4.53516C7.54241 4.53516 7.71058 4.70426 7.71058 4.91286Z" fill="url(#paint11_linear_72_40064)"/>
  <path d="M7.71058 9.44215C7.71058 9.65075 7.54241 9.81985 7.33496 9.81985C7.12752 9.81985 6.95935 9.65075 6.95935 9.44215C6.95935 9.23355 7.12752 9.06445 7.33496 9.06445C7.54241 9.06445 7.71058 9.23355 7.71058 9.44215Z" fill="url(#paint12_linear_72_40064)"/>
  <path d="M10.6086 7.17653C10.6086 7.38513 10.4405 7.55423 10.233 7.55423C10.0256 7.55423 9.85742 7.38513 9.85742 7.17653C9.85742 6.96793 10.0256 6.79883 10.233 6.79883C10.4405 6.79883 10.6086 6.96793 10.6086 7.17653Z" fill="url(#paint13_linear_72_40064)"/>
  <path d="M1.9192 9.44215C1.9192 9.65075 1.75103 9.81985 1.54358 9.81985C1.33614 9.81985 1.16797 9.65075 1.16797 9.44215C1.16797 9.23355 1.33614 9.06445 1.54358 9.06445C1.75103 9.06445 1.9192 9.23355 1.9192 9.44215Z" fill="url(#paint14_linear_72_40064)"/>
  <path d="M4.81727 7.17653C4.81727 7.38513 4.6491 7.55423 4.44165 7.55423C4.23421 7.55423 4.06604 7.38513 4.06604 7.17653C4.06604 6.96793 4.23421 6.79883 4.44165 6.79883C4.6491 6.79883 4.81727 6.96793 4.81727 7.17653Z" fill="url(#paint15_linear_72_40064)"/>
  <path d="M4.81727 11.7068C4.81727 11.9154 4.6491 12.0845 4.44165 12.0845C4.23421 12.0845 4.06604 11.9154 4.06604 11.7068C4.06604 11.4982 4.23421 11.3291 4.44165 11.3291C4.6491 11.3291 4.81727 11.4982 4.81727 11.7068Z" fill="url(#paint16_linear_72_40064)"/>
  <path d="M7.71058 7.17653C7.71058 7.38513 7.54241 7.55423 7.33496 7.55423C7.12752 7.55423 6.95935 7.38513 6.95935 7.17653C6.95935 6.96793 7.12752 6.79883 7.33496 6.79883C7.54241 6.79883 7.71058 6.96793 7.71058 7.17653Z" fill="url(#paint17_linear_72_40064)"/>
  <path d="M7.71058 11.7068C7.71058 11.9154 7.54241 12.0845 7.33496 12.0845C7.12752 12.0845 6.95935 11.9154 6.95935 11.7068C6.95935 11.4982 7.12752 11.3291 7.33496 11.3291C7.54241 11.3291 7.71058 11.4982 7.71058 11.7068Z" fill="url(#paint18_linear_72_40064)"/>
  <path d="M10.6086 9.44215C10.6086 9.65075 10.4405 9.81985 10.233 9.81985C10.0256 9.81985 9.85742 9.65075 9.85742 9.44215C9.85742 9.23355 10.0256 9.06445 10.233 9.06445C10.4405 9.06445 10.6086 9.23355 10.6086 9.44215Z" fill="url(#paint19_linear_72_40064)"/>
  <path d="M24.86 19.7513C24.86 22.7426 22.435 25.1676 19.4437 25.1676C16.4523 25.1676 14.0273 22.7426 14.0273 19.7513C14.0273 16.7599 16.4523 14.335 19.4437 14.335C22.435 14.335 24.86 16.7599 24.86 19.7513Z" fill="url(#paint20_linear_72_40064)"/>
  <g filter="url(#filter0_b_72_40064)">
    <path d="M23.3333 14.0003C23.3333 19.155 19.1546 23.3337 14 23.3337C8.84533 23.3337 4.66666 19.155 4.66666 14.0003C4.66666 8.84567 8.84533 4.66699 14 4.66699C19.1546 4.66699 23.3333 8.84567 23.3333 14.0003Z" fill="white" fill-opacity="0.15"/>
  </g>
  <path fill-rule="evenodd" clip-rule="evenodd" d="M16.5451 21.3416C17.5649 19.8852 18.6256 17.7434 18.8376 14.9716H21.7105C21.3381 17.9388 19.2906 20.3868 16.5451 21.3416ZM6.28935 14.9716H9.19824C9.39852 17.7541 10.4456 19.8871 11.4791 21.3503C8.72088 20.4004 6.66366 17.9475 6.28935 14.9716ZM11.5092 6.63856C10.4864 8.09495 9.41602 10.2436 9.20213 13.027H6.28935C6.66463 10.0404 8.73644 7.57967 11.5092 6.63856ZM11.1606 13.0276C11.4581 9.84646 13.0856 7.63174 14.0258 6.60799C14.998 7.64924 16.6002 9.84355 16.8773 13.0276H11.1606ZM11.1616 14.9716H16.8803C16.5828 18.1575 14.9514 20.3722 14.0122 21.396C12.9943 20.3168 11.4329 18.1527 11.1616 14.9716ZM21.7106 13.0273H18.8406C18.6413 10.2575 17.6059 8.13123 16.5773 6.66998C19.3073 7.63248 21.3402 10.0718 21.7106 13.0273ZM23.7227 13.9996C23.7227 8.64846 19.3759 4.29484 14.0277 4.27929C14.0238 4.27929 14.0199 4.27832 14.0151 4.27832C14.0112 4.27832 14.0053 4.27734 14.0005 4.27734C8.63965 4.27734 4.27826 8.63971 4.27826 13.9996C4.27826 19.3604 8.63965 23.7218 14.0005 23.7218C14.0063 23.7218 14.0112 23.7208 14.0151 23.7208C14.017 23.7208 14.018 23.7218 14.0199 23.7218C14.0228 23.7218 14.0258 23.7198 14.0277 23.7198C19.3759 23.7053 23.7227 19.3507 23.7227 13.9996Z" fill="url(#paint21_linear_72_40064)"/>
  <mask id="mask0_72_40064" style="mask-type:alpha" maskUnits="userSpaceOnUse" x="4" y="4" width="20" height="20">
    <path fill-rule="evenodd" clip-rule="evenodd" d="M16.5451 21.3416C17.5649 19.8852 18.6256 17.7434 18.8376 14.9716H21.7105C21.3381 17.9388 19.2906 20.3868 16.5451 21.3416ZM6.28935 14.9716H9.19824C9.39852 17.7541 10.4456 19.8871 11.4791 21.3503C8.72088 20.4004 6.66366 17.9475 6.28935 14.9716ZM11.5092 6.63856C10.4864 8.09495 9.41602 10.2436 9.20213 13.027H6.28935C6.66463 10.0404 8.73644 7.57967 11.5092 6.63856ZM11.1606 13.0276C11.4581 9.84646 13.0856 7.63174 14.0258 6.60799C14.998 7.64924 16.6002 9.84355 16.8773 13.0276H11.1606ZM11.1616 14.9716H16.8803C16.5828 18.1575 14.9514 20.3722 14.0122 21.396C12.9943 20.3168 11.4329 18.1527 11.1616 14.9716ZM21.7106 13.0273H18.8406C18.6413 10.2575 17.6059 8.13123 16.5773 6.66998C19.3073 7.63248 21.3402 10.0718 21.7106 13.0273ZM23.7227 13.9996C23.7227 8.64846 19.3759 4.29484 14.0277 4.27929C14.0238 4.27929 14.0199 4.27832 14.0151 4.27832C14.0112 4.27832 14.0053 4.27734 14.0005 4.27734C8.63965 4.27734 4.27826 8.63971 4.27826 13.9996C4.27826 19.3604 8.63965 23.7218 14.0005 23.7218C14.0063 23.7218 14.0112 23.7208 14.0151 23.7208C14.017 23.7208 14.018 23.7218 14.0199 23.7218C14.0228 23.7218 14.0258 23.7198 14.0277 23.7198C19.3759 23.7053 23.7227 19.3507 23.7227 13.9996Z" fill="white"/>
  </mask>
  <g mask="url(#mask0_72_40064)">
    <rect x="2.33334" y="2.33301" width="23.3333" height="23.3333" fill="url(#paint22_linear_72_40064)"/>
  </g>
  <defs>
    <filter id="filter0_b_72_40064" x="0.666656" y="0.666992" width="26.6667" height="26.667" filterUnits="userSpaceOnUse" color-interpolation-filters="sRGB">
      <feFlood flood-opacity="0" result="BackgroundImageFix"/>
      <feGaussianBlur in="BackgroundImage" stdDeviation="2"/>
      <feComposite in2="SourceAlpha" operator="in" result="effect1_backgroundBlur_72_40064"/>
      <feBlend mode="normal" in="SourceGraphic" in2="effect1_backgroundBlur_72_40064" result="shape"/>
    </filter>
    <linearGradient id="paint0_linear_72_40064" x1="1.16797" y1="3.01816" x2="2.00777" y2="2.38168" gradientUnits="userSpaceOnUse">
      <stop stop-color="#CD9542"/>
      <stop offset="0.583333" stop-color="#FCE8A0"/>
      <stop offset="1" stop-color="#CD9542"/>
    </linearGradient>
    <linearGradient id="paint1_linear_72_40064" x1="4.06604" y1="0.752535" x2="4.90584" y2="0.11606" gradientUnits="userSpaceOnUse">
      <stop stop-color="#CD9542"/>
      <stop offset="0.583333" stop-color="#FCE8A0"/>
      <stop offset="1" stop-color="#CD9542"/>
    </linearGradient>
    <linearGradient id="paint2_linear_72_40064" x1="6.95935" y1="0.752535" x2="7.79915" y2="0.116059" gradientUnits="userSpaceOnUse">
      <stop stop-color="#CD9542"/>
      <stop offset="0.583333" stop-color="#FCE8A0"/>
      <stop offset="1" stop-color="#CD9542"/>
    </linearGradient>
    <linearGradient id="paint3_linear_72_40064" x1="9.85742" y1="3.01816" x2="10.6972" y2="2.38168" gradientUnits="userSpaceOnUse">
      <stop stop-color="#CD9542"/>
      <stop offset="0.583333" stop-color="#FCE8A0"/>
      <stop offset="1" stop-color="#CD9542"/>
    </linearGradient>
    <linearGradient id="paint4_linear_72_40064" x1="1.16797" y1="5.28769" x2="2.00777" y2="4.65122" gradientUnits="userSpaceOnUse">
      <stop stop-color="#CD9542"/>
      <stop offset="0.583333" stop-color="#FCE8A0"/>
      <stop offset="1" stop-color="#CD9542"/>
    </linearGradient>
    <linearGradient id="paint5_linear_72_40064" x1="4.06604" y1="3.01816" x2="4.90584" y2="2.38168" gradientUnits="userSpaceOnUse">
      <stop stop-color="#CD9542"/>
      <stop offset="0.583333" stop-color="#FCE8A0"/>
      <stop offset="1" stop-color="#CD9542"/>
    </linearGradient>
    <linearGradient id="paint6_linear_72_40064" x1="6.95935" y1="3.01816" x2="7.79915" y2="2.38168" gradientUnits="userSpaceOnUse">
      <stop stop-color="#CD9542"/>
      <stop offset="0.583333" stop-color="#FCE8A0"/>
      <stop offset="1" stop-color="#CD9542"/>
    </linearGradient>
    <linearGradient id="paint7_linear_72_40064" x1="9.85742" y1="5.28769" x2="10.6972" y2="4.65122" gradientUnits="userSpaceOnUse">
      <stop stop-color="#CD9542"/>
      <stop offset="0.583333" stop-color="#FCE8A0"/>
      <stop offset="1" stop-color="#CD9542"/>
    </linearGradient>
    <linearGradient id="paint8_linear_72_40064" x1="1.16797" y1="7.55136" x2="2.00777" y2="6.91489" gradientUnits="userSpaceOnUse">
      <stop stop-color="#CD9542"/>
      <stop offset="0.583333" stop-color="#FCE8A0"/>
      <stop offset="1" stop-color="#CD9542"/>
    </linearGradient>
    <linearGradient id="paint9_linear_72_40064" x1="4.06604" y1="5.28769" x2="4.90584" y2="4.65122" gradientUnits="userSpaceOnUse">
      <stop stop-color="#CD9542"/>
      <stop offset="0.583333" stop-color="#FCE8A0"/>
      <stop offset="1" stop-color="#CD9542"/>
    </linearGradient>
    <linearGradient id="paint10_linear_72_40064" x1="4.06604" y1="9.81699" x2="4.90584" y2="9.18051" gradientUnits="userSpaceOnUse">
      <stop stop-color="#CD9542"/>
      <stop offset="0.583333" stop-color="#FCE8A0"/>
      <stop offset="1" stop-color="#CD9542"/>
    </linearGradient>
    <linearGradient id="paint11_linear_72_40064" x1="6.95935" y1="5.28769" x2="7.79915" y2="4.65122" gradientUnits="userSpaceOnUse">
      <stop stop-color="#CD9542"/>
      <stop offset="0.583333" stop-color="#FCE8A0"/>
      <stop offset="1" stop-color="#CD9542"/>
    </linearGradient>
    <linearGradient id="paint12_linear_72_40064" x1="6.95935" y1="9.81699" x2="7.79915" y2="9.18051" gradientUnits="userSpaceOnUse">
      <stop stop-color="#CD9542"/>
      <stop offset="0.583333" stop-color="#FCE8A0"/>
      <stop offset="1" stop-color="#CD9542"/>
    </linearGradient>
    <linearGradient id="paint13_linear_72_40064" x1="9.85742" y1="7.55136" x2="10.6972" y2="6.91489" gradientUnits="userSpaceOnUse">
      <stop stop-color="#CD9542"/>
      <stop offset="0.583333" stop-color="#FCE8A0"/>
      <stop offset="1" stop-color="#CD9542"/>
    </linearGradient>
    <linearGradient id="paint14_linear_72_40064" x1="1.16797" y1="9.81699" x2="2.00777" y2="9.18051" gradientUnits="userSpaceOnUse">
      <stop stop-color="#CD9542"/>
      <stop offset="0.583333" stop-color="#FCE8A0"/>
      <stop offset="1" stop-color="#CD9542"/>
    </linearGradient>
    <linearGradient id="paint15_linear_72_40064" x1="4.06604" y1="7.55136" x2="4.90584" y2="6.91489" gradientUnits="userSpaceOnUse">
      <stop stop-color="#CD9542"/>
      <stop offset="0.583333" stop-color="#FCE8A0"/>
      <stop offset="1" stop-color="#CD9542"/>
    </linearGradient>
    <linearGradient id="paint16_linear_72_40064" x1="4.06604" y1="12.0816" x2="4.90584" y2="11.4452" gradientUnits="userSpaceOnUse">
      <stop stop-color="#CD9542"/>
      <stop offset="0.583333" stop-color="#FCE8A0"/>
      <stop offset="1" stop-color="#CD9542"/>
    </linearGradient>
    <linearGradient id="paint17_linear_72_40064" x1="6.95935" y1="7.55136" x2="7.79915" y2="6.91489" gradientUnits="userSpaceOnUse">
      <stop stop-color="#CD9542"/>
      <stop offset="0.583333" stop-color="#FCE8A0"/>
      <stop offset="1" stop-color="#CD9542"/>
    </linearGradient>
    <linearGradient id="paint18_linear_72_40064" x1="6.95935" y1="12.0816" x2="7.79915" y2="11.4452" gradientUnits="userSpaceOnUse">
      <stop stop-color="#CD9542"/>
      <stop offset="0.583333" stop-color="#FCE8A0"/>
      <stop offset="1" stop-color="#CD9542"/>
    </linearGradient>
    <linearGradient id="paint19_linear_72_40064" x1="9.85742" y1="9.81699" x2="10.6972" y2="9.18051" gradientUnits="userSpaceOnUse">
      <stop stop-color="#CD9542"/>
      <stop offset="0.583333" stop-color="#FCE8A0"/>
      <stop offset="1" stop-color="#CD9542"/>
    </linearGradient>
    <linearGradient id="paint20_linear_72_40064" x1="14.0273" y1="25.1265" x2="26.0882" y2="15.935" gradientUnits="userSpaceOnUse">
      <stop stop-color="#CD9542"/>
      <stop offset="0.583333" stop-color="#FCE8A0"/>
      <stop offset="1" stop-color="#CD9542"/>
    </linearGradient>
    <linearGradient id="paint21_linear_72_40064" x1="4.27826" y1="13.9627" x2="23.7387" y2="13.9627" gradientUnits="userSpaceOnUse">
      <stop stop-color="#007067"/>
      <stop offset="1" stop-color="#00978C"/>
    </linearGradient>
    <linearGradient id="paint22_linear_72_40064" x1="2.33334" y1="13.9554" x2="25.6858" y2="13.9554" gradientUnits="userSpaceOnUse">
      <stop stop-color="#007067"/>
      <stop offset="1" stop-color="#00978C"/>
    </linearGradient>
  </defs>
</svg>
