<svg width="494" height="507" viewBox="0 0 494 507" fill="none" xmlns="http://www.w3.org/2000/svg">
  <path d="M315.245 62.3584C313.457 63.3082 311.704 64.3283 309.915 65.3132C309.039 65.8057 308.092 66.2982 307.216 66.8258C298.731 71.7857 290.491 77.3436 282.602 83.5698C264.615 97.6755 249.398 114.349 237.056 132.676C232.603 139.324 228.571 146.184 224.924 153.254C196.243 140.767 164.687 134.576 132.149 135.736C127.977 135.877 123.874 136.229 119.737 136.581C120.754 142.525 122.086 148.4 123.664 154.31C126.714 154.028 129.73 153.782 132.78 153.676C162.443 152.586 191.229 158.214 217.316 169.506C222.855 171.863 228.22 174.466 233.444 177.35C235.653 171.792 238.213 166.375 241.053 161.063C253.535 136.827 271.312 115.123 293.611 97.57C303.99 89.4091 315 82.4441 326.465 76.64C327.236 76.2531 328.043 75.9365 328.814 75.5847L328.919 75.831C330.287 78.9969 334.529 89.0221 336.107 93.3137C346.871 122.756 351.184 153.325 348.975 184.315C377.972 189.908 405.145 201.165 429.864 217.803C440.944 225.26 451.112 233.738 460.509 242.849V242.813C460.544 242.849 460.544 242.849 460.544 242.849C469.8 232.014 477.233 216.959 483.194 200.039C510.788 121.807 446.624 40.9712 364.367 49.4487C356.654 50.2226 349.22 51.4186 342.208 52.9663C342.138 52.9663 342.103 53.0015 342.033 53.0015C338.982 53.6698 336.037 54.4086 333.127 55.2528C332.951 55.288 332.776 55.3231 332.601 55.3935C332.531 55.3935 332.496 55.4287 332.426 55.4638C329.515 56.3433 326.745 57.293 324.046 58.3483C323.66 58.489 323.274 58.6297 322.924 58.8056C320.294 59.9312 317.664 61.0921 315.245 62.3584Z" fill="#EFFDF7"/>
  <path d="M323.485 442.791C324.011 441.771 324.467 440.715 324.993 439.695C325.028 439.66 325.028 439.66 325.063 439.625C325.168 439.414 325.238 439.203 325.343 438.992C326.465 436.74 327.552 434.489 328.569 432.168C329.165 430.796 329.726 429.424 330.322 428.087C333.688 420.032 336.668 411.765 339.088 403.182C347.643 373.212 349.361 342.468 344.943 312.884C375.377 306.025 404.584 292.412 430.18 272.22C433.511 269.617 436.631 266.909 439.752 264.165C435.439 259.979 430.916 256.004 426.253 252.17C423.904 254.175 421.624 256.18 419.205 258.08C395.854 276.406 369.346 288.859 341.542 295.12C335.687 296.422 329.831 297.477 323.941 298.251C325.343 304.09 326.5 309.965 327.307 315.945C331.374 342.96 329.691 370.961 321.872 398.222C318.261 410.956 313.457 423.092 307.602 434.56C307.216 435.333 306.76 436.072 306.304 436.811L306.059 436.635C297.784 431.745 292.56 428.509 290.035 426.821C263.984 409.268 242.526 387.071 226.222 360.759C199.609 373.317 171.034 380.212 141.266 381.338C133.938 381.584 126.68 381.443 119.492 380.951L119.527 380.88C113.496 380.529 107.641 379.86 101.75 378.981C101.33 384.257 101.47 389.886 102.066 395.725C102.066 395.83 102.066 395.936 102.066 396.006C102.066 396.112 102.101 396.252 102.136 396.358C102.452 399.418 102.872 402.549 103.433 405.68V405.785C104.31 410.851 105.467 416.022 106.869 421.263C129.239 505.123 234.006 535.129 297.083 475.716C308.338 465.233 317.7 454.047 323.485 442.791Z" fill="#EFFDF7"/>
  <path d="M342.629 189.31C345.645 158.109 341.788 126.134 330.568 95.4246C329.095 91.4848 327.553 87.6858 325.905 83.8516C320.61 86.7009 315.421 89.726 310.337 93.0326C311.529 95.8467 312.756 98.6608 313.773 101.51C323.941 129.405 327.518 158.601 324.853 187.024C324.292 193.004 323.45 198.984 322.363 204.894C328.324 205.316 334.285 206.054 340.175 207.11C367.033 211.647 393.049 221.849 416.576 237.713C427.551 245.1 437.579 253.437 446.625 262.618C447.256 263.286 447.782 263.92 448.378 264.553L448.168 264.729C446.415 266.241 437.509 274.015 433.792 276.97C409.283 296.282 381.654 309.93 351.5 317.493C355.182 346.795 352.903 376.168 344.768 404.871C342.77 411.907 340.421 418.766 337.756 425.555C335.512 431.113 333.128 436.636 330.498 441.947C330.498 441.947 330.533 441.983 330.533 441.947C330.463 442.123 330.393 442.299 330.323 442.475C335.231 444.515 340.666 446.133 346.416 447.4C354.937 449.229 363.211 450.003 371.311 450.073H371.346C459.458 455.033 520.361 365.122 482.599 285.096C476.288 271.694 468.995 259.909 460.58 251.291C450.412 240.809 439.052 231.276 426.604 222.869C400.728 205.386 372.082 194.235 342.629 189.31Z" fill="#EFFDF7"/>
  <path d="M97.5423 147.803C97.6475 148.225 97.7176 148.647 97.8227 149.104C98.2435 151.18 98.7694 153.185 99.2603 155.26C99.4707 156.069 99.6461 156.878 99.8564 157.652C101.61 164.406 103.678 171.16 106.098 177.808C116.757 207.11 133.411 233.035 154.343 254.422C148.137 261.422 142.457 268.809 137.268 276.619C124.961 294.981 115.389 315.488 109.113 337.544C107.991 341.554 107.044 345.599 106.203 349.645C112.093 350.489 118.089 351.087 124.155 351.368C124.856 348.378 125.522 345.459 126.364 342.469C134.463 313.835 148.663 288.121 167.492 266.734C171.419 262.161 175.591 257.834 179.939 253.824C175.381 249.92 170.998 245.839 166.861 241.548C147.787 222.06 132.745 198.457 122.928 171.758C118.404 159.411 115.214 146.782 113.25 134.119C113.11 133.099 113.04 132.149 112.935 131.164H113.11C117.318 130.777 127.661 129.968 131.974 129.827C163.179 128.702 193.543 134.049 222.26 145.692C225.345 140.029 228.676 134.576 232.147 129.405C245.05 110.129 260.828 93.1384 278.956 78.892C289.474 70.6255 300.659 63.5199 312.23 57.3992L312.195 57.364C311.949 56.9771 311.599 56.555 311.353 56.168C310.021 54.0223 308.548 51.9469 306.936 49.8363C306.059 48.6755 305.077 47.5498 304.13 46.389C303.429 45.5448 302.833 44.7005 302.062 43.8915C301.606 43.3638 301.115 42.9065 300.624 42.4141C299.362 41.0422 298.1 39.7055 296.732 38.3688C295.961 37.6301 295.225 36.9266 294.488 36.1878C290.316 32.1777 285.898 28.2732 281.095 24.4389C217.281 -26.1447 122.647 5.61955 102.1 84.5554C98.3487 99.0129 95.8242 112.767 95.3684 124.621C95.3334 124.868 95.3333 125.114 95.3333 125.36C95.2281 127.893 95.2632 130.32 95.3684 132.677C95.3684 132.817 95.4035 132.958 95.3684 133.099C95.5087 135.561 95.719 137.988 96.1047 140.24C96.5255 142.737 97.0514 145.27 97.5423 147.803Z" fill="#EFFDF7"/>
  <path d="M228.431 353.091C244.279 380.142 266.193 403.674 293.261 421.931C296.732 424.253 300.238 426.398 303.78 428.509C306.444 423.127 308.864 417.569 311.003 411.906C308.408 410.323 305.708 408.74 303.219 407.016C278.605 390.413 258.619 368.955 244.139 344.367C241.018 339.196 238.213 333.92 235.688 328.467C230.604 331.668 225.415 334.588 219.98 337.261C195.682 349.433 168.614 356.503 140.284 357.523C127.1 358.016 114.092 357.171 101.4 355.096C100.558 354.955 99.7515 354.744 98.91 354.568L98.9451 354.357C99.7515 350.488 102.066 340.322 103.293 335.925C109.674 313.482 119.422 292.447 132.219 273.311C136.567 266.768 141.265 260.542 146.174 254.667C125.978 232.999 110.621 207.883 100.418 179.917C97.8933 173.058 95.7895 166.128 94.0364 159.058C94.0714 159.058 94.1065 159.058 94.1416 159.023C92.6689 153.219 91.4067 147.379 90.4249 141.575C90.3899 141.575 90.3197 141.61 90.2847 141.61V141.575C89.5834 141.751 88.8822 141.997 88.216 142.208C87.2343 142.49 86.2876 142.736 85.3059 143.053C82.5009 143.967 79.6257 144.987 76.6804 146.289C65.6708 151.143 56.0287 157.299 47.6488 164.37C47.5436 164.475 47.4384 164.51 47.3332 164.616C-20.793 214.637 -14.3415 318.899 59.9908 359.001C71.912 365.438 83.6578 370.151 94.5272 372.121C99.4359 373.036 104.38 373.669 109.359 374.232C110.586 374.373 111.813 374.478 113.04 374.584C122.226 375.428 131.483 375.78 140.88 375.428C172.015 374.267 201.713 366.493 228.431 353.091Z" fill="#EFFDF7"/>
</svg>
