<svg width="28" height="28" viewBox="0 0 28 28" fill="none" xmlns="http://www.w3.org/2000/svg">
  <path d="M1.88734 3.68866C1.88734 3.88777 1.7263 4.04919 1.52765 4.04919C1.32901 4.04919 1.16797 3.88777 1.16797 3.68866C1.16797 3.48954 1.32901 3.32812 1.52765 3.32812C1.7263 3.32812 1.88734 3.48954 1.88734 3.68866Z" fill="url(#paint0_linear_72_40061)"/>
  <path d="M4.66148 1.52655C4.66148 1.72566 4.50044 1.88708 4.30179 1.88708C4.10314 1.88708 3.94211 1.72566 3.94211 1.52655C3.94211 1.32743 4.10314 1.16602 4.30179 1.16602C4.50044 1.16602 4.66148 1.32743 4.66148 1.52655Z" fill="url(#paint1_linear_72_40061)"/>
  <path d="M7.43495 1.52655C7.43495 1.72566 7.27391 1.88708 7.07526 1.88708C6.87661 1.88708 6.71558 1.72566 6.71558 1.52655C6.71558 1.32743 6.87661 1.16602 7.07526 1.16602C7.27391 1.16602 7.43495 1.32743 7.43495 1.52655Z" fill="url(#paint2_linear_72_40061)"/>
  <path d="M10.2091 3.68866C10.2091 3.88777 10.048 4.04919 9.8494 4.04919C9.65075 4.04919 9.48972 3.88777 9.48972 3.68866C9.48972 3.48954 9.65075 3.32812 9.8494 3.32812C10.048 3.32812 10.2091 3.48954 10.2091 3.68866Z" fill="url(#paint3_linear_72_40061)"/>
  <path d="M1.88734 5.85467C1.88734 6.05379 1.7263 6.2152 1.52765 6.2152C1.32901 6.2152 1.16797 6.05379 1.16797 5.85467C1.16797 5.65556 1.32901 5.49414 1.52765 5.49414C1.7263 5.49414 1.88734 5.65556 1.88734 5.85467Z" fill="url(#paint4_linear_72_40061)"/>
  <path d="M4.66148 3.68866C4.66148 3.88777 4.50044 4.04919 4.30179 4.04919C4.10314 4.04919 3.94211 3.88777 3.94211 3.68866C3.94211 3.48954 4.10314 3.32812 4.30179 3.32812C4.50044 3.32812 4.66148 3.48954 4.66148 3.68866Z" fill="url(#paint5_linear_72_40061)"/>
  <path d="M7.43495 3.68866C7.43495 3.88777 7.27391 4.04919 7.07526 4.04919C6.87661 4.04919 6.71558 3.88777 6.71558 3.68866C6.71558 3.48954 6.87661 3.32812 7.07526 3.32812C7.27391 3.32812 7.43495 3.48954 7.43495 3.68866Z" fill="url(#paint6_linear_72_40061)"/>
  <path d="M10.2091 5.85467C10.2091 6.05379 10.048 6.2152 9.8494 6.2152C9.65075 6.2152 9.48972 6.05379 9.48972 5.85467C9.48972 5.65556 9.65075 5.49414 9.8494 5.49414C10.048 5.49414 10.2091 5.65556 10.2091 5.85467Z" fill="url(#paint7_linear_72_40061)"/>
  <path d="M1.88734 8.0158C1.88734 8.21492 1.7263 8.37634 1.52765 8.37634C1.32901 8.37634 1.16797 8.21492 1.16797 8.0158C1.16797 7.81669 1.32901 7.65527 1.52765 7.65527C1.7263 7.65527 1.88734 7.81669 1.88734 8.0158Z" fill="url(#paint8_linear_72_40061)"/>
  <path d="M4.66148 5.85467C4.66148 6.05379 4.50044 6.2152 4.30179 6.2152C4.10314 6.2152 3.94211 6.05379 3.94211 5.85467C3.94211 5.65556 4.10314 5.49414 4.30179 5.49414C4.50044 5.49414 4.66148 5.65556 4.66148 5.85467Z" fill="url(#paint9_linear_72_40061)"/>
  <path d="M4.66148 10.1789C4.66148 10.378 4.50044 10.5394 4.30179 10.5394C4.10314 10.5394 3.94211 10.378 3.94211 10.1789C3.94211 9.97977 4.10314 9.81836 4.30179 9.81836C4.50044 9.81836 4.66148 9.97977 4.66148 10.1789Z" fill="url(#paint10_linear_72_40061)"/>
  <path d="M7.43495 5.85467C7.43495 6.05379 7.27391 6.2152 7.07526 6.2152C6.87661 6.2152 6.71558 6.05379 6.71558 5.85467C6.71558 5.65556 6.87661 5.49414 7.07526 5.49414C7.27391 5.49414 7.43495 5.65556 7.43495 5.85467Z" fill="url(#paint11_linear_72_40061)"/>
  <path d="M7.43495 10.1789C7.43495 10.378 7.27391 10.5394 7.07526 10.5394C6.87661 10.5394 6.71558 10.378 6.71558 10.1789C6.71558 9.97977 6.87661 9.81836 7.07526 9.81836C7.27391 9.81836 7.43495 9.97977 7.43495 10.1789Z" fill="url(#paint12_linear_72_40061)"/>
  <path d="M10.2091 8.0158C10.2091 8.21492 10.048 8.37634 9.8494 8.37634C9.65075 8.37634 9.48972 8.21492 9.48972 8.0158C9.48972 7.81669 9.65075 7.65527 9.8494 7.65527C10.048 7.65527 10.2091 7.81669 10.2091 8.0158Z" fill="url(#paint13_linear_72_40061)"/>
  <path d="M1.88734 10.1789C1.88734 10.378 1.7263 10.5394 1.52765 10.5394C1.32901 10.5394 1.16797 10.378 1.16797 10.1789C1.16797 9.97977 1.32901 9.81836 1.52765 9.81836C1.7263 9.81836 1.88734 9.97977 1.88734 10.1789Z" fill="url(#paint14_linear_72_40061)"/>
  <path d="M4.66148 8.0158C4.66148 8.21492 4.50044 8.37634 4.30179 8.37634C4.10314 8.37634 3.94211 8.21492 3.94211 8.0158C3.94211 7.81669 4.10314 7.65527 4.30179 7.65527C4.50044 7.65527 4.66148 7.81669 4.66148 8.0158Z" fill="url(#paint15_linear_72_40061)"/>
  <path d="M4.66148 12.342C4.66148 12.5411 4.50044 12.7025 4.30179 12.7025C4.10314 12.7025 3.94211 12.5411 3.94211 12.342C3.94211 12.1429 4.10314 11.9814 4.30179 11.9814C4.50044 11.9814 4.66148 12.1429 4.66148 12.342Z" fill="url(#paint16_linear_72_40061)"/>
  <path d="M7.43495 8.0158C7.43495 8.21492 7.27391 8.37634 7.07526 8.37634C6.87661 8.37634 6.71558 8.21492 6.71558 8.0158C6.71558 7.81669 6.87661 7.65527 7.07526 7.65527C7.27391 7.65527 7.43495 7.81669 7.43495 8.0158Z" fill="url(#paint17_linear_72_40061)"/>
  <path d="M7.43495 12.342C7.43495 12.5411 7.27391 12.7025 7.07526 12.7025C6.87661 12.7025 6.71558 12.5411 6.71558 12.342C6.71558 12.1429 6.87661 11.9814 7.07526 11.9814C7.27391 11.9814 7.43495 12.1429 7.43495 12.342Z" fill="url(#paint18_linear_72_40061)"/>
  <path d="M10.2091 10.1789C10.2091 10.378 10.048 10.5394 9.8494 10.5394C9.65075 10.5394 9.48972 10.378 9.48972 10.1789C9.48972 9.97977 9.65075 9.81836 9.8494 9.81836C10.048 9.81836 10.2091 9.97977 10.2091 10.1789Z" fill="url(#paint19_linear_72_40061)"/>
  <path d="M27.4261 20.2236C27.4261 23.2957 24.9415 25.7861 21.8767 25.7861C18.8118 25.7861 16.3272 23.2957 16.3272 20.2236C16.3272 17.1515 18.8118 14.6611 21.8767 14.6611C24.9415 14.6611 27.4261 17.1515 27.4261 20.2236Z" fill="url(#paint20_linear_72_40061)"/>
  <g filter="url(#filter0_b_72_40061)">
    <path d="M7.70001 9.19343C7.70001 6.41633 9.94602 4.16504 12.7166 4.16504H19.4054C22.176 4.16504 24.422 6.41633 24.422 9.19343V19.2502C24.422 22.0273 22.176 24.2786 19.4054 24.2786H12.7166C9.94602 24.2786 7.70001 22.0273 7.70001 19.2502V9.19343Z" fill="white" fill-opacity="0.15"/>
  </g>
  <path d="M12.3074 9.99041C12.3074 9.52756 12.6817 9.15234 13.1435 9.15234H14.7717C15.2334 9.15234 15.6078 9.52756 15.6078 9.99041C15.6078 10.4533 15.2334 10.8285 14.7717 10.8285H13.1435C12.6817 10.8285 12.3074 10.4533 12.3074 9.99041Z" fill="url(#paint21_linear_72_40061)"/>
  <path d="M12.3074 13.4553C12.3074 12.9924 12.6817 12.6172 13.1435 12.6172H18.8421C19.3039 12.6172 19.6782 12.9924 19.6782 13.4553C19.6782 13.9181 19.3039 14.2933 18.8421 14.2933H13.1435C12.6817 14.2933 12.3074 13.9181 12.3074 13.4553Z" fill="url(#paint22_linear_72_40061)"/>
  <path fill-rule="evenodd" clip-rule="evenodd" d="M19.305 5.84117H12.4855C10.6023 5.84117 9.07575 7.34203 9.07575 9.19343V19.2502C9.07575 21.1016 10.6023 22.6025 12.4855 22.6025H19.305C21.1881 22.6025 22.7147 21.1016 22.7147 19.2502V9.19343C22.7147 7.34203 21.1881 5.84117 19.305 5.84117ZM12.4855 4.16504C9.66077 4.16504 7.37088 6.41633 7.37088 9.19343V19.2502C7.37088 22.0273 9.66077 24.2786 12.4855 24.2786H19.305C22.1297 24.2786 24.4196 22.0273 24.4196 19.2502V9.19343C24.4196 6.41633 22.1297 4.16504 19.305 4.16504H12.4855Z" fill="url(#paint23_linear_72_40061)"/>
  <rect x="12.5974" y="3.11426" width="6.80264" height="3.40932" rx="1.70466" fill="url(#paint24_linear_72_40061)"/>
  <defs>
    <filter id="filter0_b_72_40061" x="3.70001" y="0.165039" width="24.722" height="28.1133" filterUnits="userSpaceOnUse" color-interpolation-filters="sRGB">
      <feFlood flood-opacity="0" result="BackgroundImageFix"/>
      <feGaussianBlur in="BackgroundImage" stdDeviation="2"/>
      <feComposite in2="SourceAlpha" operator="in" result="effect1_backgroundBlur_72_40061"/>
      <feBlend mode="normal" in="SourceGraphic" in2="effect1_backgroundBlur_72_40061" result="shape"/>
    </filter>
    <linearGradient id="paint0_linear_72_40061" x1="1.16797" y1="4.04645" x2="1.97029" y2="3.43645" gradientUnits="userSpaceOnUse">
      <stop stop-color="#CD9542"/>
      <stop offset="0.583333" stop-color="#FCE8A0"/>
      <stop offset="1" stop-color="#CD9542"/>
    </linearGradient>
    <linearGradient id="paint1_linear_72_40061" x1="3.94211" y1="1.88434" x2="4.74443" y2="1.27434" gradientUnits="userSpaceOnUse">
      <stop stop-color="#CD9542"/>
      <stop offset="0.583333" stop-color="#FCE8A0"/>
      <stop offset="1" stop-color="#CD9542"/>
    </linearGradient>
    <linearGradient id="paint2_linear_72_40061" x1="6.71558" y1="1.88434" x2="7.51789" y2="1.27434" gradientUnits="userSpaceOnUse">
      <stop stop-color="#CD9542"/>
      <stop offset="0.583333" stop-color="#FCE8A0"/>
      <stop offset="1" stop-color="#CD9542"/>
    </linearGradient>
    <linearGradient id="paint3_linear_72_40061" x1="9.48972" y1="4.04645" x2="10.292" y2="3.43645" gradientUnits="userSpaceOnUse">
      <stop stop-color="#CD9542"/>
      <stop offset="0.583333" stop-color="#FCE8A0"/>
      <stop offset="1" stop-color="#CD9542"/>
    </linearGradient>
    <linearGradient id="paint4_linear_72_40061" x1="1.16797" y1="6.21247" x2="1.97029" y2="5.60246" gradientUnits="userSpaceOnUse">
      <stop stop-color="#CD9542"/>
      <stop offset="0.583333" stop-color="#FCE8A0"/>
      <stop offset="1" stop-color="#CD9542"/>
    </linearGradient>
    <linearGradient id="paint5_linear_72_40061" x1="3.94211" y1="4.04645" x2="4.74443" y2="3.43645" gradientUnits="userSpaceOnUse">
      <stop stop-color="#CD9542"/>
      <stop offset="0.583333" stop-color="#FCE8A0"/>
      <stop offset="1" stop-color="#CD9542"/>
    </linearGradient>
    <linearGradient id="paint6_linear_72_40061" x1="6.71558" y1="4.04645" x2="7.51789" y2="3.43645" gradientUnits="userSpaceOnUse">
      <stop stop-color="#CD9542"/>
      <stop offset="0.583333" stop-color="#FCE8A0"/>
      <stop offset="1" stop-color="#CD9542"/>
    </linearGradient>
    <linearGradient id="paint7_linear_72_40061" x1="9.48972" y1="6.21247" x2="10.292" y2="5.60246" gradientUnits="userSpaceOnUse">
      <stop stop-color="#CD9542"/>
      <stop offset="0.583333" stop-color="#FCE8A0"/>
      <stop offset="1" stop-color="#CD9542"/>
    </linearGradient>
    <linearGradient id="paint8_linear_72_40061" x1="1.16797" y1="8.3736" x2="1.97029" y2="7.76359" gradientUnits="userSpaceOnUse">
      <stop stop-color="#CD9542"/>
      <stop offset="0.583333" stop-color="#FCE8A0"/>
      <stop offset="1" stop-color="#CD9542"/>
    </linearGradient>
    <linearGradient id="paint9_linear_72_40061" x1="3.94211" y1="6.21247" x2="4.74443" y2="5.60246" gradientUnits="userSpaceOnUse">
      <stop stop-color="#CD9542"/>
      <stop offset="0.583333" stop-color="#FCE8A0"/>
      <stop offset="1" stop-color="#CD9542"/>
    </linearGradient>
    <linearGradient id="paint10_linear_72_40061" x1="3.94211" y1="10.5367" x2="4.74442" y2="9.92668" gradientUnits="userSpaceOnUse">
      <stop stop-color="#CD9542"/>
      <stop offset="0.583333" stop-color="#FCE8A0"/>
      <stop offset="1" stop-color="#CD9542"/>
    </linearGradient>
    <linearGradient id="paint11_linear_72_40061" x1="6.71558" y1="6.21247" x2="7.51789" y2="5.60246" gradientUnits="userSpaceOnUse">
      <stop stop-color="#CD9542"/>
      <stop offset="0.583333" stop-color="#FCE8A0"/>
      <stop offset="1" stop-color="#CD9542"/>
    </linearGradient>
    <linearGradient id="paint12_linear_72_40061" x1="6.71558" y1="10.5367" x2="7.51789" y2="9.92668" gradientUnits="userSpaceOnUse">
      <stop stop-color="#CD9542"/>
      <stop offset="0.583333" stop-color="#FCE8A0"/>
      <stop offset="1" stop-color="#CD9542"/>
    </linearGradient>
    <linearGradient id="paint13_linear_72_40061" x1="9.48972" y1="8.3736" x2="10.292" y2="7.76359" gradientUnits="userSpaceOnUse">
      <stop stop-color="#CD9542"/>
      <stop offset="0.583333" stop-color="#FCE8A0"/>
      <stop offset="1" stop-color="#CD9542"/>
    </linearGradient>
    <linearGradient id="paint14_linear_72_40061" x1="1.16797" y1="10.5367" x2="1.97029" y2="9.92668" gradientUnits="userSpaceOnUse">
      <stop stop-color="#CD9542"/>
      <stop offset="0.583333" stop-color="#FCE8A0"/>
      <stop offset="1" stop-color="#CD9542"/>
    </linearGradient>
    <linearGradient id="paint15_linear_72_40061" x1="3.94211" y1="8.3736" x2="4.74443" y2="7.7636" gradientUnits="userSpaceOnUse">
      <stop stop-color="#CD9542"/>
      <stop offset="0.583333" stop-color="#FCE8A0"/>
      <stop offset="1" stop-color="#CD9542"/>
    </linearGradient>
    <linearGradient id="paint16_linear_72_40061" x1="3.94211" y1="12.6998" x2="4.74443" y2="12.0898" gradientUnits="userSpaceOnUse">
      <stop stop-color="#CD9542"/>
      <stop offset="0.583333" stop-color="#FCE8A0"/>
      <stop offset="1" stop-color="#CD9542"/>
    </linearGradient>
    <linearGradient id="paint17_linear_72_40061" x1="6.71558" y1="8.3736" x2="7.51789" y2="7.76359" gradientUnits="userSpaceOnUse">
      <stop stop-color="#CD9542"/>
      <stop offset="0.583333" stop-color="#FCE8A0"/>
      <stop offset="1" stop-color="#CD9542"/>
    </linearGradient>
    <linearGradient id="paint18_linear_72_40061" x1="6.71558" y1="12.6998" x2="7.51789" y2="12.0898" gradientUnits="userSpaceOnUse">
      <stop stop-color="#CD9542"/>
      <stop offset="0.583333" stop-color="#FCE8A0"/>
      <stop offset="1" stop-color="#CD9542"/>
    </linearGradient>
    <linearGradient id="paint19_linear_72_40061" x1="9.48972" y1="10.5367" x2="10.292" y2="9.92668" gradientUnits="userSpaceOnUse">
      <stop stop-color="#CD9542"/>
      <stop offset="0.583333" stop-color="#FCE8A0"/>
      <stop offset="1" stop-color="#CD9542"/>
    </linearGradient>
    <linearGradient id="paint20_linear_72_40061" x1="16.3272" y1="25.7439" x2="28.7059" y2="16.3324" gradientUnits="userSpaceOnUse">
      <stop stop-color="#CD9542"/>
      <stop offset="0.583333" stop-color="#FCE8A0"/>
      <stop offset="1" stop-color="#CD9542"/>
    </linearGradient>
    <linearGradient id="paint21_linear_72_40061" x1="12.3074" y1="9.98723" x2="15.6105" y2="9.98723" gradientUnits="userSpaceOnUse">
      <stop stop-color="#007067"/>
      <stop offset="1" stop-color="#00978C"/>
    </linearGradient>
    <linearGradient id="paint22_linear_72_40061" x1="12.3074" y1="13.4521" x2="19.6843" y2="13.4521" gradientUnits="userSpaceOnUse">
      <stop stop-color="#007067"/>
      <stop offset="1" stop-color="#00978C"/>
    </linearGradient>
    <linearGradient id="paint23_linear_72_40061" x1="7.37088" y1="14.1837" x2="24.4336" y2="14.1837" gradientUnits="userSpaceOnUse">
      <stop stop-color="#007067"/>
      <stop offset="1" stop-color="#00978C"/>
    </linearGradient>
    <linearGradient id="paint24_linear_72_40061" x1="12.5974" y1="4.81246" x2="19.4056" y2="4.81246" gradientUnits="userSpaceOnUse">
      <stop stop-color="#007067"/>
      <stop offset="1" stop-color="#00978C"/>
    </linearGradient>
  </defs>
</svg>
