<svg width="29" height="42" viewBox="0 0 29 42" fill="none" xmlns="http://www.w3.org/2000/svg">
  <path d="M9.38992 24.8355V21.3066C9.38992 20.2653 9.5304 19.4843 9.81722 18.9636C10.104 18.443 10.6074 18.0264 11.3274 17.7198C11.6962 17.5578 12.3284 17.3785 13.2239 17.1876C14.1195 16.9967 14.7927 16.8 15.2317 16.5975C16.3029 16.1983 17.0989 15.6198 17.6258 14.8736C18.1526 14.1273 18.416 13.2017 18.416 12.1083C18.416 11.1017 18.0296 10.2339 17.2511 9.50496C16.4726 8.77603 15.5419 8.41157 14.4532 8.41157C13.4756 8.41157 12.5859 8.60826 11.7957 9.00165C10.9996 9.39504 10.145 10.0835 9.22017 11.0669C9.10895 11.1769 8.93335 11.362 8.69335 11.6165C7.15974 13.2942 5.80174 14.1331 4.61934 14.1331C3.56571 14.1331 2.68769 13.7512 1.98527 12.9818C1.28871 12.2124 0.9375 11.2347 0.9375 10.0488C0.9375 7.49174 2.27795 5.17769 4.95298 3.10661C7.63387 1.03554 10.8006 0 14.459 0C18.3574 0 21.6003 1.20331 24.1816 3.59835C26.7689 5.99917 28.0625 8.97273 28.0625 12.5132C28.0625 15.562 27.1669 18.1421 25.3758 20.2595C23.5846 22.3769 21.173 23.719 18.1467 24.2859V24.4479C18.1467 26.1661 17.7487 27.5083 16.9585 28.486C16.1624 29.4636 15.0853 29.9496 13.7156 29.9496C12.3459 29.9496 11.2864 29.5041 10.5313 28.619C9.76454 27.7455 9.38992 26.4785 9.38992 24.8355ZM8.78116 37.0769C8.78116 35.7058 9.26699 34.5545 10.2328 33.6116C11.2045 32.6744 12.381 32.2 13.7625 32.2C15.1322 32.2 16.2912 32.6744 17.2511 33.6231C18.2111 34.5719 18.6911 35.7231 18.6911 37.0711C18.6911 38.4248 18.2052 39.5818 17.2336 40.5479C16.2619 41.514 15.1029 42 13.7566 42C12.3869 42 11.2162 41.514 10.2387 40.5479C9.26699 39.5876 8.78116 38.4306 8.78116 37.0769Z" fill="url(#paint0_linear_169_10666)"/>
  <defs>
    <linearGradient id="paint0_linear_169_10666" x1="0.863954" y1="24.2134" x2="28.0115" y2="24.1516" gradientUnits="userSpaceOnUse">
      <stop stop-color="#CD9542"/>
      <stop offset="0.583333" stop-color="#FCE8A0"/>
      <stop offset="1" stop-color="#CD9542"/>
    </linearGradient>
  </defs>
</svg>
