<svg width="40" height="40" viewBox="0 0 40 40" fill="none" xmlns="http://www.w3.org/2000/svg">
  <rect width="40" height="40" rx="4" fill="#F8FBFF"/>
  <path fill-rule="evenodd" clip-rule="evenodd" d="M21.4948 11.6821C20.6992 10.787 19.3006 10.787 18.505 11.6821L16.9411 13.4417C16.6547 13.7639 16.2718 13.985 15.8495 14.0719L13.5436 14.5465C12.3707 14.788 11.6714 15.9992 12.0488 17.1357L12.7906 19.3699C12.9265 19.7791 12.9265 20.2213 12.7906 20.6305L12.0488 22.8647C11.6714 24.0012 12.3707 25.2124 13.5436 25.4539L15.8495 25.9285C16.2718 26.0154 16.6547 26.2365 16.9411 26.5588L18.505 28.3183C19.3006 29.2134 20.6992 29.2134 21.4948 28.3183L23.0587 26.5588C23.3452 26.2365 23.7281 26.0154 24.1504 25.9285L26.4562 25.4539C27.6292 25.2124 28.3285 24.0012 27.9511 22.8647L27.2092 20.6305C27.0733 20.2213 27.0733 19.7791 27.2092 19.3699L27.9511 17.1357C28.3285 15.9992 27.6292 14.788 26.4562 14.5465L24.1504 14.0719C23.7281 13.985 23.3452 13.7639 23.0587 13.4417L21.4948 11.6821ZM19.9999 22.0002C21.1045 22.0002 21.9999 21.1048 21.9999 20.0002C21.9999 18.8956 21.1045 18.0002 19.9999 18.0002C18.8953 18.0002 17.9999 18.8956 17.9999 20.0002C17.9999 21.1048 18.8953 22.0002 19.9999 22.0002Z" fill="#A3B3C0"/>
</svg>
