<svg width="84" height="84" viewBox="0 0 84 84" fill="none" xmlns="http://www.w3.org/2000/svg">
  <g filter="url(#filter0_d_72_15164)">
    <circle cx="42" cy="39" r="12" fill="#EDFFFB"/>
  </g>
  <path fill-rule="evenodd" clip-rule="evenodd" d="M36.3021 38.7165C37.1391 39.0038 37.8058 39.7043 38.0848 40.5923L38.1148 40.6823C38.4343 41.6243 38.3046 42.6383 37.7691 43.3988C37.6716 43.5368 37.6933 43.7018 37.7961 43.7798L39.3501 44.9603C39.4048 45.0015 39.4581 45.0015 39.4911 44.9978C39.5286 44.9918 39.5833 44.9715 39.6276 44.9085L39.8008 44.6625C40.3176 43.9298 41.1501 43.4775 42.0291 43.452C43.0161 43.4318 43.9026 43.884 44.4546 44.6813L44.5431 44.8095C44.5873 44.8725 44.6413 44.8935 44.6796 44.8995C44.7126 44.9063 44.7666 44.904 44.8206 44.862L46.3663 43.6958C46.4743 43.6148 46.4983 43.4415 46.4181 43.3253L46.2231 43.044C45.7206 42.318 45.5713 41.376 45.8241 40.5248C46.0986 39.5978 46.7968 38.8643 47.6931 38.5643L47.8438 38.5133C47.9646 38.4735 48.0298 38.3235 47.9871 38.1855L47.3968 36.2948C47.3691 36.2063 47.3121 36.1665 47.2806 36.15C47.2356 36.1267 47.1868 36.123 47.1403 36.1388L46.8853 36.2235C46.0131 36.5138 45.0508 36.3563 44.3121 35.8005L44.2311 35.7398C43.5291 35.2118 43.1113 34.3605 43.1143 33.4635L43.1158 33.2535C43.1158 33.1538 43.0686 33.0915 43.0401 33.063C43.0131 33.0352 42.9673 33.0022 42.9028 33.0022L40.9926 33C40.8756 33 40.7803 33.1118 40.7796 33.2498L40.7788 33.4312C40.7751 34.3425 40.3483 35.2095 39.6373 35.7517L39.5406 35.8253C38.7583 36.42 37.7383 36.588 36.8143 36.273C36.7791 36.261 36.7461 36.2633 36.7146 36.2798C36.6906 36.2918 36.6471 36.3225 36.6261 36.3908L36.0133 38.3378C35.9691 38.4795 36.0418 38.6273 36.1791 38.6745L36.3021 38.7165ZM39.4603 46.5C39.0958 46.5 38.7418 46.3815 38.4433 46.1542L36.8893 44.9745C36.1468 44.412 35.9826 43.3297 36.5226 42.5625C36.8031 42.165 36.8608 41.6542 36.6958 41.1697L36.6546 41.0437C36.5173 40.6072 36.2038 40.2682 35.8161 40.1355H35.8153L35.6931 40.0927C34.7796 39.78 34.2921 38.8117 34.5823 37.8877L35.1943 35.9415C35.3331 35.5012 35.6323 35.1457 36.0373 34.941C36.4333 34.7415 36.8811 34.7107 37.2996 34.854C37.7488 35.007 38.2476 34.9237 38.6323 34.6312L38.7291 34.5577C39.0711 34.2967 39.2773 33.873 39.2788 33.4252L39.2796 33.2445C39.2833 32.2815 40.0521 31.5 40.9918 31.5H40.9948L42.9051 31.5022C43.3566 31.503 43.7826 31.6815 44.1036 32.0047C44.4358 32.3385 44.6173 32.7847 44.6158 33.261L44.6143 33.4702C44.6128 33.8947 44.8071 34.296 45.1348 34.542L45.2151 34.6027C45.5593 34.8615 46.0078 34.9357 46.4106 34.8007L46.6648 34.716C47.0976 34.572 47.5581 34.6072 47.9638 34.815C48.3801 35.028 48.6876 35.3947 48.8286 35.8485L49.4188 37.7392C49.7038 38.6527 49.2103 39.6382 48.3201 39.936L48.1693 39.9862C47.7373 40.1317 47.3976 40.4917 47.2618 40.9507C47.1373 41.3715 47.2093 41.8342 47.4561 42.1897L47.6511 42.471C48.1866 43.245 48.0156 44.331 47.2701 44.8927L45.7243 46.0597C45.3531 46.3402 44.8978 46.4535 44.4411 46.3807C43.9806 46.3065 43.5786 46.0515 43.3093 45.663L43.2208 45.534C42.9583 45.156 42.5383 44.9265 42.0981 44.9512C41.6571 44.9632 41.2761 45.1725 41.0271 45.5265L40.8538 45.7725C40.5823 46.1572 40.1796 46.4085 39.7213 46.4805C39.6336 46.494 39.5466 46.5 39.4603 46.5ZM42 37.8749C41.3798 37.8749 40.875 38.3796 40.875 38.9999C40.875 39.6201 41.3798 40.1249 42 40.1249C42.6203 40.1249 43.125 39.6201 43.125 38.9999C43.125 38.3796 42.6203 37.8749 42 37.8749ZM42 41.6249C40.5525 41.6249 39.375 40.4474 39.375 38.9999C39.375 37.5524 40.5525 36.3749 42 36.3749C43.4475 36.3749 44.625 37.5524 44.625 38.9999C44.625 40.4474 43.4475 41.6249 42 41.6249Z" fill="#00978C"/>
  <mask id="mask0_72_15164" style="mask-type:alpha" maskUnits="userSpaceOnUse" x="34" y="31" width="16" height="16">
    <path fill-rule="evenodd" clip-rule="evenodd" d="M36.3021 38.7165C37.1391 39.0038 37.8058 39.7043 38.0848 40.5923L38.1148 40.6823C38.4343 41.6243 38.3046 42.6383 37.7691 43.3988C37.6716 43.5368 37.6933 43.7018 37.7961 43.7798L39.3501 44.9603C39.4048 45.0015 39.4581 45.0015 39.4911 44.9978C39.5286 44.9918 39.5833 44.9715 39.6276 44.9085L39.8008 44.6625C40.3176 43.9298 41.1501 43.4775 42.0291 43.452C43.0161 43.4318 43.9026 43.884 44.4546 44.6813L44.5431 44.8095C44.5873 44.8725 44.6413 44.8935 44.6796 44.8995C44.7126 44.9063 44.7666 44.904 44.8206 44.862L46.3663 43.6958C46.4743 43.6148 46.4983 43.4415 46.4181 43.3253L46.2231 43.044C45.7206 42.318 45.5713 41.376 45.8241 40.5248C46.0986 39.5978 46.7968 38.8643 47.6931 38.5643L47.8438 38.5133C47.9646 38.4735 48.0298 38.3235 47.9871 38.1855L47.3968 36.2948C47.3691 36.2063 47.3121 36.1665 47.2806 36.15C47.2356 36.1267 47.1868 36.123 47.1403 36.1388L46.8853 36.2235C46.0131 36.5138 45.0508 36.3563 44.3121 35.8005L44.2311 35.7398C43.5291 35.2118 43.1113 34.3605 43.1143 33.4635L43.1158 33.2535C43.1158 33.1538 43.0686 33.0915 43.0401 33.063C43.0131 33.0352 42.9673 33.0022 42.9028 33.0022L40.9926 33C40.8756 33 40.7803 33.1118 40.7796 33.2498L40.7788 33.4312C40.7751 34.3425 40.3483 35.2095 39.6373 35.7517L39.5406 35.8253C38.7583 36.42 37.7383 36.588 36.8143 36.273C36.7791 36.261 36.7461 36.2633 36.7146 36.2798C36.6906 36.2918 36.6471 36.3225 36.6261 36.3908L36.0133 38.3378C35.9691 38.4795 36.0418 38.6273 36.1791 38.6745L36.3021 38.7165ZM39.4603 46.5C39.0958 46.5 38.7418 46.3815 38.4433 46.1542L36.8893 44.9745C36.1468 44.412 35.9826 43.3297 36.5226 42.5625C36.8031 42.165 36.8608 41.6542 36.6958 41.1697L36.6546 41.0437C36.5173 40.6072 36.2038 40.2682 35.8161 40.1355H35.8153L35.6931 40.0927C34.7796 39.78 34.2921 38.8117 34.5823 37.8877L35.1943 35.9415C35.3331 35.5012 35.6323 35.1457 36.0373 34.941C36.4333 34.7415 36.8811 34.7107 37.2996 34.854C37.7488 35.007 38.2476 34.9237 38.6323 34.6312L38.7291 34.5577C39.0711 34.2967 39.2773 33.873 39.2788 33.4252L39.2796 33.2445C39.2833 32.2815 40.0521 31.5 40.9918 31.5H40.9948L42.9051 31.5022C43.3566 31.503 43.7826 31.6815 44.1036 32.0047C44.4358 32.3385 44.6173 32.7847 44.6158 33.261L44.6143 33.4702C44.6128 33.8947 44.8071 34.296 45.1348 34.542L45.2151 34.6027C45.5593 34.8615 46.0078 34.9357 46.4106 34.8007L46.6648 34.716C47.0976 34.572 47.5581 34.6072 47.9638 34.815C48.3801 35.028 48.6876 35.3947 48.8286 35.8485L49.4188 37.7392C49.7038 38.6527 49.2103 39.6382 48.3201 39.936L48.1693 39.9862C47.7373 40.1317 47.3976 40.4917 47.2618 40.9507C47.1373 41.3715 47.2093 41.8342 47.4561 42.1897L47.6511 42.471C48.1866 43.245 48.0156 44.331 47.2701 44.8927L45.7243 46.0597C45.3531 46.3402 44.8978 46.4535 44.4411 46.3807C43.9806 46.3065 43.5786 46.0515 43.3093 45.663L43.2208 45.534C42.9583 45.156 42.5383 44.9265 42.0981 44.9512C41.6571 44.9632 41.2761 45.1725 41.0271 45.5265L40.8538 45.7725C40.5823 46.1572 40.1796 46.4085 39.7213 46.4805C39.6336 46.494 39.5466 46.5 39.4603 46.5ZM42 37.8749C41.3798 37.8749 40.875 38.3796 40.875 38.9999C40.875 39.6201 41.3798 40.1249 42 40.1249C42.6203 40.1249 43.125 39.6201 43.125 38.9999C43.125 38.3796 42.6203 37.8749 42 37.8749ZM42 41.6249C40.5525 41.6249 39.375 40.4474 39.375 38.9999C39.375 37.5524 40.5525 36.3749 42 36.3749C43.4475 36.3749 44.625 37.5524 44.625 38.9999C44.625 40.4474 43.4475 41.6249 42 41.6249Z" fill="white"/>
  </mask>
  <g mask="url(#mask0_72_15164)">
    <rect x="33" y="30" width="18" height="18" fill="#00978C"/>
  </g>
  <defs>
    <filter id="filter0_d_72_15164" x="0" y="0" width="84" height="84" filterUnits="userSpaceOnUse" color-interpolation-filters="sRGB">
      <feFlood flood-opacity="0" result="BackgroundImageFix"/>
      <feColorMatrix in="SourceAlpha" type="matrix" values="0 0 0 0 0 0 0 0 0 0 0 0 0 0 0 0 0 0 127 0" result="hardAlpha"/>
      <feOffset dy="3"/>
      <feGaussianBlur stdDeviation="15"/>
      <feColorMatrix type="matrix" values="0 0 0 0 0 0 0 0 0 0 0 0 0 0 0 0 0 0 0.06 0"/>
      <feBlend mode="normal" in2="BackgroundImageFix" result="effect1_dropShadow_72_15164"/>
      <feBlend mode="normal" in="SourceGraphic" in2="effect1_dropShadow_72_15164" result="shape"/>
    </filter>
  </defs>
</svg>
