<svg width="28" height="28" viewBox="0 0 28 28" fill="none" xmlns="http://www.w3.org/2000/svg">
  <path d="M1.89003 4.86106C1.89003 5.06047 1.72839 5.22212 1.529 5.22212C1.32961 5.22212 1.16797 5.06047 1.16797 4.86106C1.16797 4.66165 1.32961 4.5 1.529 4.5C1.72839 4.5 1.89003 4.66165 1.89003 4.86106Z" fill="url(#paint0_linear_72_40058)"/>
  <path d="M4.6736 2.69505C4.6736 2.89446 4.51196 3.05611 4.31257 3.05611C4.11318 3.05611 3.95154 2.89446 3.95154 2.69505C3.95154 2.49564 4.11318 2.33398 4.31257 2.33398C4.51196 2.33398 4.6736 2.49564 4.6736 2.69505Z" fill="url(#paint1_linear_72_40058)"/>
  <path d="M7.4619 2.69505C7.4619 2.89446 7.30026 3.05611 7.10087 3.05611C6.90148 3.05611 6.73984 2.89446 6.73984 2.69505C6.73984 2.49564 6.90148 2.33398 7.10087 2.33398C7.30026 2.33398 7.4619 2.49564 7.4619 2.69505Z" fill="url(#paint2_linear_72_40058)"/>
  <path d="M10.2448 4.86106C10.2448 5.06047 10.0832 5.22212 9.8838 5.22212C9.6844 5.22212 9.52277 5.06047 9.52277 4.86106C9.52277 4.66165 9.6844 4.5 9.8838 4.5C10.0832 4.5 10.2448 4.66165 10.2448 4.86106Z" fill="url(#paint3_linear_72_40058)"/>
  <path d="M1.89003 7.02805C1.89003 7.22746 1.72839 7.38912 1.529 7.38912C1.32961 7.38912 1.16797 7.22746 1.16797 7.02805C1.16797 6.82865 1.32961 6.66699 1.529 6.66699C1.72839 6.66699 1.89003 6.82865 1.89003 7.02805Z" fill="url(#paint4_linear_72_40058)"/>
  <path d="M4.6736 4.86106C4.6736 5.06047 4.51196 5.22212 4.31257 5.22212C4.11318 5.22212 3.95154 5.06047 3.95154 4.86106C3.95154 4.66165 4.11318 4.5 4.31257 4.5C4.51196 4.5 4.6736 4.66165 4.6736 4.86106Z" fill="url(#paint5_linear_72_40058)"/>
  <path d="M7.4619 4.86106C7.4619 5.06047 7.30026 5.22212 7.10087 5.22212C6.90148 5.22212 6.73984 5.06047 6.73984 4.86106C6.73984 4.66165 6.90148 4.5 7.10087 4.5C7.30026 4.5 7.4619 4.66165 7.4619 4.86106Z" fill="url(#paint6_linear_72_40058)"/>
  <path d="M10.2448 7.02805C10.2448 7.22746 10.0832 7.38912 9.8838 7.38912C9.6844 7.38912 9.52277 7.22746 9.52277 7.02805C9.52277 6.82865 9.6844 6.66699 9.8838 6.66699C10.0832 6.66699 10.2448 6.82865 10.2448 7.02805Z" fill="url(#paint7_linear_72_40058)"/>
  <path d="M1.89003 9.19309C1.89003 9.3925 1.72839 9.55416 1.529 9.55416C1.32961 9.55416 1.16797 9.3925 1.16797 9.19309C1.16797 8.99368 1.32961 8.83203 1.529 8.83203C1.72839 8.83203 1.89003 8.99368 1.89003 9.19309Z" fill="url(#paint8_linear_72_40058)"/>
  <path d="M4.6736 7.02805C4.6736 7.22746 4.51196 7.38912 4.31257 7.38912C4.11318 7.38912 3.95154 7.22746 3.95154 7.02805C3.95154 6.82865 4.11318 6.66699 4.31257 6.66699C4.51196 6.66699 4.6736 6.82865 4.6736 7.02805Z" fill="url(#paint9_linear_72_40058)"/>
  <path d="M4.6736 11.3611C4.6736 11.5605 4.51196 11.7221 4.31257 11.7221C4.11318 11.7221 3.95154 11.5605 3.95154 11.3611C3.95154 11.1617 4.11318 11 4.31257 11C4.51196 11 4.6736 11.1617 4.6736 11.3611Z" fill="url(#paint10_linear_72_40058)"/>
  <path d="M7.4619 7.02805C7.4619 7.22746 7.30026 7.38912 7.10087 7.38912C6.90148 7.38912 6.73984 7.22746 6.73984 7.02805C6.73984 6.82865 6.90148 6.66699 7.10087 6.66699C7.30026 6.66699 7.4619 6.82865 7.4619 7.02805Z" fill="url(#paint11_linear_72_40058)"/>
  <path d="M7.4619 11.3611C7.4619 11.5605 7.30026 11.7221 7.10087 11.7221C6.90148 11.7221 6.73984 11.5605 6.73984 11.3611C6.73984 11.1617 6.90148 11 7.10087 11C7.30026 11 7.4619 11.1617 7.4619 11.3611Z" fill="url(#paint12_linear_72_40058)"/>
  <path d="M10.2448 9.19309C10.2448 9.3925 10.0832 9.55416 9.8838 9.55416C9.6844 9.55416 9.52277 9.3925 9.52277 9.19309C9.52277 8.99368 9.6844 8.83203 9.8838 8.83203C10.0832 8.83203 10.2448 8.99368 10.2448 9.19309Z" fill="url(#paint13_linear_72_40058)"/>
  <path d="M1.89003 11.3611C1.89003 11.5605 1.72839 11.7221 1.529 11.7221C1.32961 11.7221 1.16797 11.5605 1.16797 11.3611C1.16797 11.1617 1.32961 11 1.529 11C1.72839 11 1.89003 11.1617 1.89003 11.3611Z" fill="url(#paint14_linear_72_40058)"/>
  <path d="M4.6736 9.19309C4.6736 9.3925 4.51196 9.55416 4.31257 9.55416C4.11318 9.55416 3.95154 9.3925 3.95154 9.19309C3.95154 8.99368 4.11318 8.83203 4.31257 8.83203C4.51196 8.83203 4.6736 8.99368 4.6736 9.19309Z" fill="url(#paint15_linear_72_40058)"/>
  <path d="M4.6736 13.5261C4.6736 13.7255 4.51196 13.8872 4.31257 13.8872C4.11318 13.8872 3.95154 13.7255 3.95154 13.5261C3.95154 13.3267 4.11318 13.165 4.31257 13.165C4.51196 13.165 4.6736 13.3267 4.6736 13.5261Z" fill="url(#paint16_linear_72_40058)"/>
  <path d="M7.4619 9.19309C7.4619 9.3925 7.30026 9.55416 7.10087 9.55416C6.90148 9.55416 6.73984 9.3925 6.73984 9.19309C6.73984 8.99368 6.90148 8.83203 7.10087 8.83203C7.30026 8.83203 7.4619 8.99368 7.4619 9.19309Z" fill="url(#paint17_linear_72_40058)"/>
  <path d="M7.4619 13.5261C7.4619 13.7255 7.30026 13.8872 7.10087 13.8872C6.90148 13.8872 6.73984 13.7255 6.73984 13.5261C6.73984 13.3267 6.90148 13.165 7.10087 13.165C7.30026 13.165 7.4619 13.3267 7.4619 13.5261Z" fill="url(#paint18_linear_72_40058)"/>
  <path d="M10.2448 11.3611C10.2448 11.5605 10.0832 11.7221 9.8838 11.7221C9.6844 11.7221 9.52277 11.5605 9.52277 11.3611C9.52277 11.1617 9.6844 11 9.8838 11C10.0832 11 10.2448 11.1617 10.2448 11.3611Z" fill="url(#paint19_linear_72_40058)"/>
  <path d="M26.4369 20.3978C26.4369 23.4744 23.943 25.9685 20.8667 25.9685C17.7904 25.9685 15.2965 23.4744 15.2965 20.3978C15.2965 17.3212 17.7904 14.8271 20.8667 14.8271C23.943 14.8271 26.4369 17.3212 26.4369 20.3978Z" fill="url(#paint20_linear_72_40058)"/>
  <g filter="url(#filter0_b_72_40058)">
    <path d="M7.5197 14.3405C8.54667 11.8746 12.0591 10.0756 13.3111 9.60134C12.3602 8.46327 11.9425 7.33429 12.0217 6.97068C12.3454 5.48464 13.6721 5.52658 15.0647 5.52647C16.4572 5.52642 17.4123 6.19501 17.6467 6.5634C18.0045 7.12556 17.8052 7.89262 17.6467 8.20876L16.6119 9.60134C17.3726 9.90484 18.8936 10.7927 19.2423 11.0457C20.9443 11.8709 23.1338 15.063 22.801 18.5248C22.4682 21.9866 19.7862 23.0187 17.409 23.4454C15.0317 23.8722 10.6577 23.6351 8.61323 21.9754C6.5688 20.3156 6.23599 17.4229 7.5197 14.3405Z" fill="white" fill-opacity="0.15"/>
  </g>
  <path fill-rule="evenodd" clip-rule="evenodd" d="M14.5648 4.62814C14.6147 4.62824 14.6638 4.62834 14.7119 4.62834C15.5517 4.62831 16.2692 4.8288 16.821 5.0934C17.3454 5.34488 17.7928 5.69055 18.0215 6.04791C18.3287 6.52786 18.3747 7.05684 18.3407 7.46633C18.3067 7.8755 18.1868 8.2486 18.0614 8.49751L18.0304 8.55902L17.5052 9.26183C17.7349 9.38082 17.9681 9.50738 18.1864 9.62934C18.6744 9.90199 19.1487 10.1859 19.3925 10.3528C20.4431 10.8833 21.5161 12.0384 22.2844 13.4567C23.0783 14.9224 23.6034 16.7703 23.4153 18.7163C23.2234 20.7012 22.3357 22.0468 21.123 22.9359C19.9449 23.7997 18.5087 24.1977 17.2504 24.4224C15.9452 24.6554 14.1362 24.7027 12.3814 24.4765C10.6489 24.2531 8.82991 23.746 7.61236 22.763C5.14212 20.7687 4.87453 17.3932 6.26169 14.0809C6.87368 12.6196 8.18294 11.4287 9.41367 10.5686C10.2141 10.0092 11.0272 9.55818 11.6918 9.23731C11.4646 8.89197 11.2815 8.55832 11.1423 8.2533C11.0181 7.98146 10.9232 7.72019 10.865 7.48407C10.8134 7.27495 10.7654 6.9901 10.8252 6.71741C10.9329 6.22587 11.1365 5.8094 11.4462 5.47995C11.7547 5.15173 12.1271 4.95383 12.5034 4.83374C13.1566 4.62527 13.9292 4.62684 14.5648 4.62814ZM12.3825 7.00742C12.3847 7.02501 12.3899 7.05793 12.4024 7.10884C12.4319 7.22835 12.4895 7.39599 12.5837 7.60231C12.7714 8.0135 13.0828 8.53021 13.5252 9.05684L14.2386 9.90591L13.1982 10.2978C12.6159 10.5171 11.4564 11.0652 10.3238 11.8568C9.17479 12.6598 8.16183 13.6386 7.72308 14.6863C6.48341 17.6464 6.89685 20.1574 8.6101 21.5406C9.48429 22.2464 10.9488 22.7042 12.5849 22.9151C14.1988 23.1231 15.8436 23.0739 16.9707 22.8727C18.1447 22.6631 19.2966 22.319 20.1837 21.6686C21.0363 21.0435 21.6908 20.1029 21.8395 18.5656C21.9918 16.9894 21.5671 15.4522 20.8907 14.2035C20.2035 12.9347 19.3124 12.0633 18.641 11.7395L18.5781 11.7092L18.5215 11.6684C18.3842 11.5693 17.9422 11.2988 17.4111 11.002C16.8828 10.7069 16.3384 10.4264 16.0018 10.2928L15.0459 9.91356L16.6684 7.74209C16.7043 7.65337 16.7491 7.5039 16.763 7.3367C16.78 7.13255 16.7449 6.98531 16.686 6.89329C16.6864 6.89395 16.6862 6.89368 16.6853 6.89254C16.6791 6.88486 16.6408 6.83739 16.5481 6.76428C16.4493 6.68625 16.3104 6.59644 16.1334 6.51161C15.7805 6.34238 15.297 6.20276 14.712 6.20278L14.6811 6.20278C13.9331 6.20281 13.3946 6.20283 12.9871 6.33289C12.8045 6.39115 12.6864 6.46609 12.6027 6.55513C12.525 6.63779 12.4404 6.77135 12.3825 7.00742Z" fill="url(#paint21_linear_72_40058)"/>
  <path d="M19.9737 19.3489C20.6751 18.1935 20.4379 16.5979 20.2316 15.9446C20.1456 15.7554 19.819 15.4081 19.2001 15.5319C18.5812 15.6557 18.7015 16.5119 18.8391 16.9246C18.9628 17.9562 18.6843 18.4204 18.5296 18.5236L17.8075 19.3489C17.2402 20.3804 18.1342 20.7415 18.5296 20.6899C19.1898 20.4836 19.7674 19.7099 19.9737 19.3489Z" fill="url(#paint22_linear_72_40058)"/>
  <path d="M12.3298 15.6487C12.4363 16.4948 13.0518 17.0575 13.9238 17.1068C14.4446 17.1355 14.8431 17.5586 14.8431 18.0925C14.8431 18.6183 14.4486 19.0578 13.9475 19.0783C13.4188 19.103 12.9966 18.7128 12.9492 18.1583C12.9256 17.8954 12.8072 17.7598 12.6099 17.7763C12.4087 17.7927 12.3022 17.9447 12.3219 18.2034C12.3653 18.7169 12.5784 19.1358 12.9848 19.4274C13.1584 19.5507 13.3635 19.6328 13.5766 19.7437C13.5766 19.9244 13.5766 20.1298 13.5766 20.3311C13.5805 20.5816 13.691 20.7171 13.8883 20.7171C14.0895 20.7171 14.2 20.5857 14.204 20.3352C14.2079 20.1257 14.204 19.9162 14.204 19.7108C14.2829 19.6862 14.3381 19.6657 14.3933 19.6492C15.1509 19.374 15.5889 18.5813 15.431 17.7598C15.289 17.0164 14.6735 16.4866 13.912 16.4537C13.3635 16.4291 12.969 16.0512 12.9453 15.5213C12.9216 14.9792 13.3122 14.5191 13.8291 14.4822C14.3618 14.4452 14.7958 14.8559 14.8392 15.4351C14.8589 15.6856 14.9694 15.8047 15.1746 15.7965C15.3758 15.7883 15.4823 15.6487 15.4665 15.3981C15.4271 14.7943 15.1588 14.3343 14.6498 14.0345C14.5157 13.9564 14.3618 13.9071 14.2079 13.8373C14.2079 13.6237 14.2118 13.406 14.2079 13.1884C14.2 12.9625 14.0737 12.831 13.8804 12.8392C13.695 12.8474 13.5845 12.9707 13.5805 13.1966C13.5766 13.4143 13.5805 13.632 13.5805 13.8496C13.545 13.8661 13.5214 13.8743 13.4937 13.8825C12.7007 14.1577 12.2311 14.8683 12.3298 15.6487Z" fill="url(#paint23_linear_72_40058)" stroke="url(#paint24_linear_72_40058)" stroke-width="0.8"/>
  <defs>
    <filter id="filter0_b_72_40058" x="-0.239014" y="-1.47363" width="30.0739" height="32.1045" filterUnits="userSpaceOnUse" color-interpolation-filters="sRGB">
      <feFlood flood-opacity="0" result="BackgroundImageFix"/>
      <feGaussianBlur in="BackgroundImage" stdDeviation="3.5"/>
      <feComposite in2="SourceAlpha" operator="in" result="effect1_backgroundBlur_72_40058"/>
      <feBlend mode="normal" in="SourceGraphic" in2="effect1_backgroundBlur_72_40058" result="shape"/>
    </filter>
    <linearGradient id="paint0_linear_72_40058" x1="1.16797" y1="5.21939" x2="1.97195" y2="4.60673" gradientUnits="userSpaceOnUse">
      <stop stop-color="#CD9542"/>
      <stop offset="0.583333" stop-color="#FCE8A0"/>
      <stop offset="1" stop-color="#CD9542"/>
    </linearGradient>
    <linearGradient id="paint1_linear_72_40058" x1="3.95154" y1="3.05337" x2="4.75552" y2="2.44071" gradientUnits="userSpaceOnUse">
      <stop stop-color="#CD9542"/>
      <stop offset="0.583333" stop-color="#FCE8A0"/>
      <stop offset="1" stop-color="#CD9542"/>
    </linearGradient>
    <linearGradient id="paint2_linear_72_40058" x1="6.73984" y1="3.05337" x2="7.54382" y2="2.44071" gradientUnits="userSpaceOnUse">
      <stop stop-color="#CD9542"/>
      <stop offset="0.583333" stop-color="#FCE8A0"/>
      <stop offset="1" stop-color="#CD9542"/>
    </linearGradient>
    <linearGradient id="paint3_linear_72_40058" x1="9.52277" y1="5.21939" x2="10.3267" y2="4.60673" gradientUnits="userSpaceOnUse">
      <stop stop-color="#CD9542"/>
      <stop offset="0.583333" stop-color="#FCE8A0"/>
      <stop offset="1" stop-color="#CD9542"/>
    </linearGradient>
    <linearGradient id="paint4_linear_72_40058" x1="1.16797" y1="7.38638" x2="1.97195" y2="6.77372" gradientUnits="userSpaceOnUse">
      <stop stop-color="#CD9542"/>
      <stop offset="0.583333" stop-color="#FCE8A0"/>
      <stop offset="1" stop-color="#CD9542"/>
    </linearGradient>
    <linearGradient id="paint5_linear_72_40058" x1="3.95154" y1="5.21939" x2="4.75552" y2="4.60673" gradientUnits="userSpaceOnUse">
      <stop stop-color="#CD9542"/>
      <stop offset="0.583333" stop-color="#FCE8A0"/>
      <stop offset="1" stop-color="#CD9542"/>
    </linearGradient>
    <linearGradient id="paint6_linear_72_40058" x1="6.73984" y1="5.21939" x2="7.54382" y2="4.60673" gradientUnits="userSpaceOnUse">
      <stop stop-color="#CD9542"/>
      <stop offset="0.583333" stop-color="#FCE8A0"/>
      <stop offset="1" stop-color="#CD9542"/>
    </linearGradient>
    <linearGradient id="paint7_linear_72_40058" x1="9.52277" y1="7.38638" x2="10.3267" y2="6.77372" gradientUnits="userSpaceOnUse">
      <stop stop-color="#CD9542"/>
      <stop offset="0.583333" stop-color="#FCE8A0"/>
      <stop offset="1" stop-color="#CD9542"/>
    </linearGradient>
    <linearGradient id="paint8_linear_72_40058" x1="1.16797" y1="9.55142" x2="1.97195" y2="8.93876" gradientUnits="userSpaceOnUse">
      <stop stop-color="#CD9542"/>
      <stop offset="0.583333" stop-color="#FCE8A0"/>
      <stop offset="1" stop-color="#CD9542"/>
    </linearGradient>
    <linearGradient id="paint9_linear_72_40058" x1="3.95154" y1="7.38638" x2="4.75552" y2="6.77372" gradientUnits="userSpaceOnUse">
      <stop stop-color="#CD9542"/>
      <stop offset="0.583333" stop-color="#FCE8A0"/>
      <stop offset="1" stop-color="#CD9542"/>
    </linearGradient>
    <linearGradient id="paint10_linear_72_40058" x1="3.95154" y1="11.7194" x2="4.75552" y2="11.1067" gradientUnits="userSpaceOnUse">
      <stop stop-color="#CD9542"/>
      <stop offset="0.583333" stop-color="#FCE8A0"/>
      <stop offset="1" stop-color="#CD9542"/>
    </linearGradient>
    <linearGradient id="paint11_linear_72_40058" x1="6.73984" y1="7.38638" x2="7.54382" y2="6.77372" gradientUnits="userSpaceOnUse">
      <stop stop-color="#CD9542"/>
      <stop offset="0.583333" stop-color="#FCE8A0"/>
      <stop offset="1" stop-color="#CD9542"/>
    </linearGradient>
    <linearGradient id="paint12_linear_72_40058" x1="6.73984" y1="11.7194" x2="7.54382" y2="11.1067" gradientUnits="userSpaceOnUse">
      <stop stop-color="#CD9542"/>
      <stop offset="0.583333" stop-color="#FCE8A0"/>
      <stop offset="1" stop-color="#CD9542"/>
    </linearGradient>
    <linearGradient id="paint13_linear_72_40058" x1="9.52277" y1="9.55142" x2="10.3267" y2="8.93876" gradientUnits="userSpaceOnUse">
      <stop stop-color="#CD9542"/>
      <stop offset="0.583333" stop-color="#FCE8A0"/>
      <stop offset="1" stop-color="#CD9542"/>
    </linearGradient>
    <linearGradient id="paint14_linear_72_40058" x1="1.16797" y1="11.7194" x2="1.97195" y2="11.1067" gradientUnits="userSpaceOnUse">
      <stop stop-color="#CD9542"/>
      <stop offset="0.583333" stop-color="#FCE8A0"/>
      <stop offset="1" stop-color="#CD9542"/>
    </linearGradient>
    <linearGradient id="paint15_linear_72_40058" x1="3.95154" y1="9.55142" x2="4.75552" y2="8.93876" gradientUnits="userSpaceOnUse">
      <stop stop-color="#CD9542"/>
      <stop offset="0.583333" stop-color="#FCE8A0"/>
      <stop offset="1" stop-color="#CD9542"/>
    </linearGradient>
    <linearGradient id="paint16_linear_72_40058" x1="3.95154" y1="13.8844" x2="4.75552" y2="13.2718" gradientUnits="userSpaceOnUse">
      <stop stop-color="#CD9542"/>
      <stop offset="0.583333" stop-color="#FCE8A0"/>
      <stop offset="1" stop-color="#CD9542"/>
    </linearGradient>
    <linearGradient id="paint17_linear_72_40058" x1="6.73984" y1="9.55142" x2="7.54382" y2="8.93876" gradientUnits="userSpaceOnUse">
      <stop stop-color="#CD9542"/>
      <stop offset="0.583333" stop-color="#FCE8A0"/>
      <stop offset="1" stop-color="#CD9542"/>
    </linearGradient>
    <linearGradient id="paint18_linear_72_40058" x1="6.73984" y1="13.8844" x2="7.54382" y2="13.2718" gradientUnits="userSpaceOnUse">
      <stop stop-color="#CD9542"/>
      <stop offset="0.583333" stop-color="#FCE8A0"/>
      <stop offset="1" stop-color="#CD9542"/>
    </linearGradient>
    <linearGradient id="paint19_linear_72_40058" x1="9.52277" y1="11.7194" x2="10.3267" y2="11.1067" gradientUnits="userSpaceOnUse">
      <stop stop-color="#CD9542"/>
      <stop offset="0.583333" stop-color="#FCE8A0"/>
      <stop offset="1" stop-color="#CD9542"/>
    </linearGradient>
    <linearGradient id="paint20_linear_72_40058" x1="15.2965" y1="25.9263" x2="27.7008" y2="16.4738" gradientUnits="userSpaceOnUse">
      <stop stop-color="#CD9542"/>
      <stop offset="0.583333" stop-color="#FCE8A0"/>
      <stop offset="1" stop-color="#CD9542"/>
    </linearGradient>
    <linearGradient id="paint21_linear_72_40058" x1="5.42621" y1="14.5879" x2="23.4684" y2="14.5879" gradientUnits="userSpaceOnUse">
      <stop stop-color="#007067"/>
      <stop offset="1" stop-color="#00978C"/>
    </linearGradient>
    <linearGradient id="paint22_linear_72_40058" x1="17.6241" y1="18.0905" x2="20.4454" y2="18.0905" gradientUnits="userSpaceOnUse">
      <stop stop-color="#007067"/>
      <stop offset="1" stop-color="#00978C"/>
    </linearGradient>
    <linearGradient id="paint23_linear_72_40058" x1="12.3168" y1="16.7631" x2="15.4707" y2="16.7631" gradientUnits="userSpaceOnUse">
      <stop stop-color="#007067"/>
      <stop offset="1" stop-color="#00978C"/>
    </linearGradient>
    <linearGradient id="paint24_linear_72_40058" x1="12.3168" y1="16.7631" x2="15.4707" y2="16.7631" gradientUnits="userSpaceOnUse">
      <stop stop-color="#007067"/>
      <stop offset="1" stop-color="#00978C"/>
    </linearGradient>
  </defs>
</svg>
