<svg width="28" height="28" viewBox="0 0 28 28" fill="none" xmlns="http://www.w3.org/2000/svg">
  <path d="M0.751226 3.64332C0.751226 3.85192 0.583059 4.02102 0.375613 4.02102C0.168168 4.02102 0 3.85192 0 3.64332C0 3.43473 0.168168 3.26562 0.375613 3.26562C0.583059 3.26562 0.751226 3.43473 0.751226 3.64332Z" fill="url(#paint0_linear_72_40097)"/>
  <path d="M3.6493 1.3777C3.6493 1.5863 3.48113 1.7554 3.27368 1.7554C3.06624 1.7554 2.89807 1.5863 2.89807 1.3777C2.89807 1.1691 3.06624 1 3.27368 1C3.48113 1 3.6493 1.1691 3.6493 1.3777Z" fill="url(#paint1_linear_72_40097)"/>
  <path d="M6.54261 1.3777C6.54261 1.5863 6.37444 1.7554 6.167 1.7554C5.95955 1.7554 5.79138 1.5863 5.79138 1.3777C5.79138 1.1691 5.95955 1 6.167 1C6.37444 1 6.54261 1.1691 6.54261 1.3777Z" fill="url(#paint2_linear_72_40097)"/>
  <path d="M9.44068 3.64332C9.44068 3.85192 9.27251 4.02102 9.06507 4.02102C8.85762 4.02102 8.68945 3.85192 8.68945 3.64332C8.68945 3.43473 8.85762 3.26562 9.06507 3.26562C9.27251 3.26562 9.44068 3.43473 9.44068 3.64332Z" fill="url(#paint3_linear_72_40097)"/>
  <path d="M0.751226 5.91286C0.751226 6.12145 0.583059 6.29055 0.375613 6.29055C0.168168 6.29055 0 6.12145 0 5.91286C0 5.70426 0.168168 5.53516 0.375613 5.53516C0.583059 5.53516 0.751226 5.70426 0.751226 5.91286Z" fill="url(#paint4_linear_72_40097)"/>
  <path d="M3.6493 3.64332C3.6493 3.85192 3.48113 4.02102 3.27368 4.02102C3.06624 4.02102 2.89807 3.85192 2.89807 3.64332C2.89807 3.43473 3.06624 3.26562 3.27368 3.26562C3.48113 3.26562 3.6493 3.43473 3.6493 3.64332Z" fill="url(#paint5_linear_72_40097)"/>
  <path d="M6.54261 3.64332C6.54261 3.85192 6.37444 4.02102 6.167 4.02102C5.95955 4.02102 5.79138 3.85192 5.79138 3.64332C5.79138 3.43473 5.95955 3.26562 6.167 3.26562C6.37444 3.26562 6.54261 3.43473 6.54261 3.64332Z" fill="url(#paint6_linear_72_40097)"/>
  <path d="M9.44068 5.91286C9.44068 6.12145 9.27251 6.29055 9.06507 6.29055C8.85762 6.29055 8.68945 6.12145 8.68945 5.91286C8.68945 5.70426 8.85762 5.53516 9.06507 5.53516C9.27251 5.53516 9.44068 5.70426 9.44068 5.91286Z" fill="url(#paint7_linear_72_40097)"/>
  <path d="M0.751226 8.17653C0.751226 8.38513 0.583059 8.55423 0.375613 8.55423C0.168168 8.55423 0 8.38513 0 8.17653C0 7.96793 0.168168 7.79883 0.375613 7.79883C0.583059 7.79883 0.751226 7.96793 0.751226 8.17653Z" fill="url(#paint8_linear_72_40097)"/>
  <path d="M3.6493 5.91286C3.6493 6.12145 3.48113 6.29055 3.27368 6.29055C3.06624 6.29055 2.89807 6.12145 2.89807 5.91286C2.89807 5.70426 3.06624 5.53516 3.27368 5.53516C3.48113 5.53516 3.6493 5.70426 3.6493 5.91286Z" fill="url(#paint9_linear_72_40097)"/>
  <path d="M3.6493 10.4422C3.6493 10.6508 3.48113 10.8199 3.27368 10.8199C3.06624 10.8199 2.89807 10.6508 2.89807 10.4422C2.89807 10.2336 3.06624 10.0645 3.27368 10.0645C3.48113 10.0645 3.6493 10.2336 3.6493 10.4422Z" fill="url(#paint10_linear_72_40097)"/>
  <path d="M6.54261 5.91286C6.54261 6.12145 6.37444 6.29055 6.167 6.29055C5.95955 6.29055 5.79138 6.12145 5.79138 5.91286C5.79138 5.70426 5.95955 5.53516 6.167 5.53516C6.37444 5.53516 6.54261 5.70426 6.54261 5.91286Z" fill="url(#paint11_linear_72_40097)"/>
  <path d="M6.54261 10.4422C6.54261 10.6508 6.37444 10.8199 6.167 10.8199C5.95955 10.8199 5.79138 10.6508 5.79138 10.4422C5.79138 10.2336 5.95955 10.0645 6.167 10.0645C6.37444 10.0645 6.54261 10.2336 6.54261 10.4422Z" fill="url(#paint12_linear_72_40097)"/>
  <path d="M9.44068 8.17653C9.44068 8.38513 9.27251 8.55423 9.06507 8.55423C8.85762 8.55423 8.68945 8.38513 8.68945 8.17653C8.68945 7.96793 8.85762 7.79883 9.06507 7.79883C9.27251 7.79883 9.44068 7.96793 9.44068 8.17653Z" fill="url(#paint13_linear_72_40097)"/>
  <path d="M0.751226 10.4422C0.751226 10.6508 0.583059 10.8199 0.375613 10.8199C0.168168 10.8199 0 10.6508 0 10.4422C0 10.2336 0.168168 10.0645 0.375613 10.0645C0.583059 10.0645 0.751226 10.2336 0.751226 10.4422Z" fill="url(#paint14_linear_72_40097)"/>
  <path d="M3.6493 8.17653C3.6493 8.38513 3.48113 8.55423 3.27368 8.55423C3.06624 8.55423 2.89807 8.38513 2.89807 8.17653C2.89807 7.96793 3.06624 7.79883 3.27368 7.79883C3.48113 7.79883 3.6493 7.96793 3.6493 8.17653Z" fill="url(#paint15_linear_72_40097)"/>
  <path d="M3.6493 12.7068C3.6493 12.9154 3.48113 13.0845 3.27368 13.0845C3.06624 13.0845 2.89807 12.9154 2.89807 12.7068C2.89807 12.4982 3.06624 12.3291 3.27368 12.3291C3.48113 12.3291 3.6493 12.4982 3.6493 12.7068Z" fill="url(#paint16_linear_72_40097)"/>
  <path d="M6.54261 8.17653C6.54261 8.38513 6.37444 8.55423 6.167 8.55423C5.95955 8.55423 5.79138 8.38513 5.79138 8.17653C5.79138 7.96793 5.95955 7.79883 6.167 7.79883C6.37444 7.79883 6.54261 7.96793 6.54261 8.17653Z" fill="url(#paint17_linear_72_40097)"/>
  <path d="M6.54261 12.7068C6.54261 12.9154 6.37444 13.0845 6.167 13.0845C5.95955 13.0845 5.79138 12.9154 5.79138 12.7068C5.79138 12.4982 5.95955 12.3291 6.167 12.3291C6.37444 12.3291 6.54261 12.4982 6.54261 12.7068Z" fill="url(#paint18_linear_72_40097)"/>
  <path d="M9.44068 10.4422C9.44068 10.6508 9.27251 10.8199 9.06507 10.8199C8.85762 10.8199 8.68945 10.6508 8.68945 10.4422C8.68945 10.2336 8.85762 10.0645 9.06507 10.0645C9.27251 10.0645 9.44068 10.2336 9.44068 10.4422Z" fill="url(#paint19_linear_72_40097)"/>
  <path d="M24.8326 22.4163C24.8326 25.4077 22.4077 27.8326 19.4163 27.8326C16.425 27.8326 14 25.4077 14 22.4163C14 19.425 16.425 17 19.4163 17C22.4077 17 24.8326 19.425 24.8326 22.4163Z" fill="url(#paint20_linear_72_40097)"/>
  <g filter="url(#filter0_b_72_40097)">
    <path d="M6 16.6027C6 15.9717 6.2978 15.3776 6.80342 15.0001L12.468 10.7705C13.0965 10.3013 13.9412 10.2427 14.6285 10.6207L22.0915 14.7253C22.9141 15.1778 23.3113 16.1415 23.0464 17.0421L21.4223 22.5643C21.1719 23.4155 20.3907 24 19.5035 24H8C6.89543 24 6 23.1046 6 22V16.6027Z" fill="white" fill-opacity="0.15"/>
  </g>
  <path d="M25.5626 8.48268L25.5626 8.48278L25.5631 8.50552L25.5631 8.50565L25.5633 8.52011C25.6171 11.3334 25.6848 14.8764 24.4931 18.0995C23.8352 19.8791 22.8379 21.4279 21.5286 22.7009C20.0378 24.1502 18.0908 25.2944 15.7479 26.1065M25.5626 8.48268L15.6824 25.9176M25.5626 8.48268L25.5626 8.48058C25.5513 7.88263 25.5406 7.32012 25.5406 6.77926C25.5406 5.84512 24.781 5.08549 23.8468 5.08549C20.7041 5.08549 18.3378 4.19204 16.374 2.28258C15.7125 1.63919 14.6739 1.63911 14.0124 2.28252C12.0486 4.19204 9.68264 5.08549 6.54035 5.08549C5.60622 5.08549 4.84659 5.84512 4.84659 6.77926C4.84659 7.33236 4.83571 7.90117 4.82412 8.50598L4.82412 8.50599L4.82385 8.52059C4.7701 11.3339 4.70242 14.8768 5.89396 18.0997C6.55183 19.8792 7.54895 21.428 8.85824 22.701C10.3489 24.1502 12.2957 25.2945 14.6383 26.1065M25.5626 8.48268L14.7038 25.9175M15.7479 26.1065L15.6824 25.9176M15.7479 26.1065C15.7479 26.1065 15.7479 26.1065 15.748 26.1065L15.6824 25.9176M15.7479 26.1065C15.5694 26.1685 15.3825 26.2 15.1931 26.2C15.0039 26.2 14.8172 26.1685 14.6383 26.1065M15.6824 25.9176C15.5249 25.9722 15.3602 26 15.1931 26C15.0262 26 14.8616 25.9723 14.7038 25.9175M14.6383 26.1065L14.7038 25.9175M14.6383 26.1065C14.6383 26.1065 14.6383 26.1065 14.6383 26.1065L14.7038 25.9175M23.7573 8.53977L23.7573 8.53992C23.8118 11.3907 23.8703 14.5758 22.7991 17.4732C21.5846 20.7579 19.1087 23.0213 15.1931 24.3873C11.278 23.0215 8.80219 20.7581 7.5879 17.4735C6.51682 14.5762 6.57535 11.3912 6.6298 8.54048C6.64074 7.96951 6.65116 7.42613 6.65247 6.89123C10.1788 6.86992 12.9057 5.84094 15.1931 3.65286C17.4807 5.84093 20.2079 6.86993 23.7346 6.89123C23.7359 7.41513 23.7461 7.95242 23.7569 8.51694L23.7573 8.53977ZM15.2302 24.4002L15.2299 24.4001L15.2302 24.4002Z" fill="url(#paint21_linear_72_40097)" stroke="url(#paint22_linear_72_40097)" stroke-width="0.4"/>
  <path d="M19.5647 11.6088H17.3525V9.3964C17.3525 8.98052 17.0154 8.64336 16.5995 8.64336H13.7936C13.3778 8.64336 13.0406 8.98052 13.0406 9.3964V11.6088H10.828C10.4122 11.6088 10.075 11.946 10.075 12.3619V15.1677C10.075 15.5836 10.4122 15.9208 10.828 15.9208H13.0406V18.1331C13.0406 18.549 13.3778 18.8862 13.7936 18.8862H16.5995C17.0154 18.8862 17.3525 18.549 17.3525 18.1331V15.9208H19.5647C19.9806 15.9208 20.3178 15.5836 20.3178 15.1677V12.3619C20.3177 11.9459 19.9806 11.6088 19.5647 11.6088ZM18.8117 14.4147H16.5995C16.1836 14.4147 15.8465 14.7518 15.8465 15.1677V17.3801H14.5467V15.1677C14.5467 14.7518 14.2095 14.4147 13.7936 14.4147H11.5811V13.1149H13.7936C14.2095 13.1149 14.5467 12.7777 14.5467 12.3619V10.1494H15.8465V12.3619C15.8465 12.7777 16.1836 13.1149 16.5995 13.1149H18.8117V14.4147Z" fill="url(#paint23_linear_72_40097)" stroke="url(#paint24_linear_72_40097)" stroke-width="0.1"/>
  <defs>
    <filter id="filter0_b_72_40097" x="2" y="6.37305" width="25.1279" height="21.627" filterUnits="userSpaceOnUse" color-interpolation-filters="sRGB">
      <feFlood flood-opacity="0" result="BackgroundImageFix"/>
      <feGaussianBlur in="BackgroundImage" stdDeviation="2"/>
      <feComposite in2="SourceAlpha" operator="in" result="effect1_backgroundBlur_72_40097"/>
      <feBlend mode="normal" in="SourceGraphic" in2="effect1_backgroundBlur_72_40097" result="shape"/>
    </filter>
    <linearGradient id="paint0_linear_72_40097" x1="1.67624e-08" y1="4.01816" x2="0.839803" y2="3.38168" gradientUnits="userSpaceOnUse">
      <stop stop-color="#CD9542"/>
      <stop offset="0.583333" stop-color="#FCE8A0"/>
      <stop offset="1" stop-color="#CD9542"/>
    </linearGradient>
    <linearGradient id="paint1_linear_72_40097" x1="2.89807" y1="1.75254" x2="3.73787" y2="1.11606" gradientUnits="userSpaceOnUse">
      <stop stop-color="#CD9542"/>
      <stop offset="0.583333" stop-color="#FCE8A0"/>
      <stop offset="1" stop-color="#CD9542"/>
    </linearGradient>
    <linearGradient id="paint2_linear_72_40097" x1="5.79138" y1="1.75254" x2="6.63118" y2="1.11606" gradientUnits="userSpaceOnUse">
      <stop stop-color="#CD9542"/>
      <stop offset="0.583333" stop-color="#FCE8A0"/>
      <stop offset="1" stop-color="#CD9542"/>
    </linearGradient>
    <linearGradient id="paint3_linear_72_40097" x1="8.68945" y1="4.01816" x2="9.52926" y2="3.38168" gradientUnits="userSpaceOnUse">
      <stop stop-color="#CD9542"/>
      <stop offset="0.583333" stop-color="#FCE8A0"/>
      <stop offset="1" stop-color="#CD9542"/>
    </linearGradient>
    <linearGradient id="paint4_linear_72_40097" x1="1.67624e-08" y1="6.28769" x2="0.839802" y2="5.65121" gradientUnits="userSpaceOnUse">
      <stop stop-color="#CD9542"/>
      <stop offset="0.583333" stop-color="#FCE8A0"/>
      <stop offset="1" stop-color="#CD9542"/>
    </linearGradient>
    <linearGradient id="paint5_linear_72_40097" x1="2.89807" y1="4.01816" x2="3.73787" y2="3.38168" gradientUnits="userSpaceOnUse">
      <stop stop-color="#CD9542"/>
      <stop offset="0.583333" stop-color="#FCE8A0"/>
      <stop offset="1" stop-color="#CD9542"/>
    </linearGradient>
    <linearGradient id="paint6_linear_72_40097" x1="5.79138" y1="4.01816" x2="6.63119" y2="3.38168" gradientUnits="userSpaceOnUse">
      <stop stop-color="#CD9542"/>
      <stop offset="0.583333" stop-color="#FCE8A0"/>
      <stop offset="1" stop-color="#CD9542"/>
    </linearGradient>
    <linearGradient id="paint7_linear_72_40097" x1="8.68945" y1="6.28769" x2="9.52926" y2="5.65121" gradientUnits="userSpaceOnUse">
      <stop stop-color="#CD9542"/>
      <stop offset="0.583333" stop-color="#FCE8A0"/>
      <stop offset="1" stop-color="#CD9542"/>
    </linearGradient>
    <linearGradient id="paint8_linear_72_40097" x1="1.67624e-08" y1="8.55136" x2="0.839804" y2="7.91489" gradientUnits="userSpaceOnUse">
      <stop stop-color="#CD9542"/>
      <stop offset="0.583333" stop-color="#FCE8A0"/>
      <stop offset="1" stop-color="#CD9542"/>
    </linearGradient>
    <linearGradient id="paint9_linear_72_40097" x1="2.89807" y1="6.28769" x2="3.73787" y2="5.65121" gradientUnits="userSpaceOnUse">
      <stop stop-color="#CD9542"/>
      <stop offset="0.583333" stop-color="#FCE8A0"/>
      <stop offset="1" stop-color="#CD9542"/>
    </linearGradient>
    <linearGradient id="paint10_linear_72_40097" x1="2.89807" y1="10.817" x2="3.73787" y2="10.1805" gradientUnits="userSpaceOnUse">
      <stop stop-color="#CD9542"/>
      <stop offset="0.583333" stop-color="#FCE8A0"/>
      <stop offset="1" stop-color="#CD9542"/>
    </linearGradient>
    <linearGradient id="paint11_linear_72_40097" x1="5.79138" y1="6.28769" x2="6.63118" y2="5.65121" gradientUnits="userSpaceOnUse">
      <stop stop-color="#CD9542"/>
      <stop offset="0.583333" stop-color="#FCE8A0"/>
      <stop offset="1" stop-color="#CD9542"/>
    </linearGradient>
    <linearGradient id="paint12_linear_72_40097" x1="5.79138" y1="10.817" x2="6.63118" y2="10.1805" gradientUnits="userSpaceOnUse">
      <stop stop-color="#CD9542"/>
      <stop offset="0.583333" stop-color="#FCE8A0"/>
      <stop offset="1" stop-color="#CD9542"/>
    </linearGradient>
    <linearGradient id="paint13_linear_72_40097" x1="8.68945" y1="8.55136" x2="9.52926" y2="7.91489" gradientUnits="userSpaceOnUse">
      <stop stop-color="#CD9542"/>
      <stop offset="0.583333" stop-color="#FCE8A0"/>
      <stop offset="1" stop-color="#CD9542"/>
    </linearGradient>
    <linearGradient id="paint14_linear_72_40097" x1="1.67624e-08" y1="10.817" x2="0.839803" y2="10.1805" gradientUnits="userSpaceOnUse">
      <stop stop-color="#CD9542"/>
      <stop offset="0.583333" stop-color="#FCE8A0"/>
      <stop offset="1" stop-color="#CD9542"/>
    </linearGradient>
    <linearGradient id="paint15_linear_72_40097" x1="2.89807" y1="8.55136" x2="3.73787" y2="7.91489" gradientUnits="userSpaceOnUse">
      <stop stop-color="#CD9542"/>
      <stop offset="0.583333" stop-color="#FCE8A0"/>
      <stop offset="1" stop-color="#CD9542"/>
    </linearGradient>
    <linearGradient id="paint16_linear_72_40097" x1="2.89807" y1="13.0816" x2="3.73787" y2="12.4452" gradientUnits="userSpaceOnUse">
      <stop stop-color="#CD9542"/>
      <stop offset="0.583333" stop-color="#FCE8A0"/>
      <stop offset="1" stop-color="#CD9542"/>
    </linearGradient>
    <linearGradient id="paint17_linear_72_40097" x1="5.79138" y1="8.55136" x2="6.63119" y2="7.91489" gradientUnits="userSpaceOnUse">
      <stop stop-color="#CD9542"/>
      <stop offset="0.583333" stop-color="#FCE8A0"/>
      <stop offset="1" stop-color="#CD9542"/>
    </linearGradient>
    <linearGradient id="paint18_linear_72_40097" x1="5.79138" y1="13.0816" x2="6.63118" y2="12.4452" gradientUnits="userSpaceOnUse">
      <stop stop-color="#CD9542"/>
      <stop offset="0.583333" stop-color="#FCE8A0"/>
      <stop offset="1" stop-color="#CD9542"/>
    </linearGradient>
    <linearGradient id="paint19_linear_72_40097" x1="8.68945" y1="10.817" x2="9.52926" y2="10.1805" gradientUnits="userSpaceOnUse">
      <stop stop-color="#CD9542"/>
      <stop offset="0.583333" stop-color="#FCE8A0"/>
      <stop offset="1" stop-color="#CD9542"/>
    </linearGradient>
    <linearGradient id="paint20_linear_72_40097" x1="14" y1="27.7916" x2="26.0609" y2="18.6" gradientUnits="userSpaceOnUse">
      <stop stop-color="#CD9542"/>
      <stop offset="0.583333" stop-color="#FCE8A0"/>
      <stop offset="1" stop-color="#CD9542"/>
    </linearGradient>
    <linearGradient id="paint21_linear_72_40097" x1="5" y1="13.9545" x2="25.4039" y2="13.9545" gradientUnits="userSpaceOnUse">
      <stop stop-color="#007067"/>
      <stop offset="1" stop-color="#00978C"/>
    </linearGradient>
    <linearGradient id="paint22_linear_72_40097" x1="5" y1="13.9545" x2="25.4039" y2="13.9545" gradientUnits="userSpaceOnUse">
      <stop stop-color="#007067"/>
      <stop offset="1" stop-color="#00978C"/>
    </linearGradient>
    <linearGradient id="paint23_linear_72_40097" x1="10.125" y1="13.7455" x2="20.2761" y2="13.7455" gradientUnits="userSpaceOnUse">
      <stop stop-color="#007067"/>
      <stop offset="1" stop-color="#00978C"/>
    </linearGradient>
    <linearGradient id="paint24_linear_72_40097" x1="10.125" y1="13.7455" x2="20.2761" y2="13.7455" gradientUnits="userSpaceOnUse">
      <stop stop-color="#007067"/>
      <stop offset="1" stop-color="#00978C"/>
    </linearGradient>
  </defs>
</svg>
