<svg width="24" height="24" viewBox="0 0 24 24" fill="none" xmlns="http://www.w3.org/2000/svg">
  <mask id="mask0_71_23231" style="mask-type:alpha" maskUnits="userSpaceOnUse" x="5" y="5" width="15" height="14">
    <path fill-rule="evenodd" clip-rule="evenodd" d="M13.9513 5.37325L18.7793 11.3732C19.0783 11.7442 19.0733 12.2742 18.7683 12.6402L13.7683 18.6402C13.5703 18.8772 13.2863 19.0002 12.9993 19.0002C12.7743 19.0002 12.5473 18.9242 12.3603 18.7682C11.9353 18.4152 11.8783 17.7842 12.2323 17.3602L16.7083 11.9892L12.3923 6.62725C12.0463 6.19725 12.1143 5.56725 12.5453 5.22125C12.9753 4.87425 13.6043 4.94325 13.9513 5.37325ZM5.54517 5.22125C5.97517 4.87525 6.60417 4.94325 6.95117 5.37325L11.7792 11.3732C12.0772 11.7442 12.0732 12.2742 11.7682 12.6402L6.76817 18.6402C6.57017 18.8772 6.28617 19.0002 5.99917 19.0002C5.77417 19.0002 5.54717 18.9242 5.36017 18.7682C4.93517 18.4152 4.87817 17.7842 5.23217 17.3602L9.70717 11.9892L5.39217 6.62725C5.04617 6.19725 5.11517 5.56725 5.54517 5.22125Z" fill="white"/>
  </mask>
  <g mask="url(#mask0_71_23231)">
    <rect width="24" height="24" fill="#949BA1"/>
  </g>
</svg>
