<svg width="94" height="30" viewBox="0 0 94 30" fill="none" xmlns="http://www.w3.org/2000/svg">
  <path fill-rule="evenodd" clip-rule="evenodd" d="M21.9293 29.9993H25.5238C25.906 29.9993 26.2136 29.6889 26.2136 29.3073V7.97132C26.2136 7.58788 25.9042 7.2793 25.5238 7.2793H21.9293C21.5471 7.2793 21.2395 7.5897 21.2395 7.97132V29.3055C21.2395 29.6889 21.5489 29.9993 21.9293 29.9993Z" fill="white"/>
  <path fill-rule="evenodd" clip-rule="evenodd" d="M56.8536 22.0128C56.364 20.6999 52.3017 10.0438 51.4172 7.72487C51.3153 7.45646 51.0586 7.28117 50.7729 7.28117H46.3939C46.1228 7.28117 45.9353 7.55506 46.0318 7.80886L54.3347 29.5557C54.4366 29.8241 54.6932 30.0012 54.9789 30.0012H58.7227C59.0085 30.0012 59.2651 29.8241 59.367 29.5557C59.367 29.5557 65.7243 12.863 66.0646 11.8716C66.9346 9.32803 68.8183 8.06266 69.8303 7.5441C69.9759 7.46924 69.9194 7.25195 69.7575 7.25195L62.8778 7.28117C62.5902 7.28117 62.3354 7.45828 62.2335 7.72669C61.389 9.94885 57.6362 19.8454 56.8536 22.0128Z" fill="white"/>
  <path fill-rule="evenodd" clip-rule="evenodd" d="M43.9278 9.50876C41.8329 7.89464 39.2776 7.2793 34.7822 7.2793H29.435C29.0546 7.2793 28.7452 7.5897 28.7452 7.97132V29.3055C28.7452 29.6889 29.0546 29.9975 29.435 29.9975H34.4583C38.9082 29.9975 41.2414 29.5465 43.2708 28.2647C46.1682 26.4041 47.6734 23.0407 47.6734 18.6019C47.6734 14.5319 46.4121 11.4242 43.9278 9.50876ZM39.9765 25.2501C38.8226 26.0626 37.0445 26.4826 34.5711 26.4826H34.4037C34.0233 26.4826 33.7139 26.1722 33.7139 25.7906V11.4954C33.7139 11.1119 34.0233 10.8033 34.4037 10.8033C37.6742 10.8052 38.8081 11.0535 40.0675 11.9592C41.7165 13.2099 42.6811 15.6329 42.6811 18.6439C42.6829 21.6384 41.691 24.0669 39.9765 25.2501Z" fill="white"/>
  <path fill-rule="evenodd" clip-rule="evenodd" d="M13.9941 18.3133C16.8042 17.5299 18.2092 15.8373 18.191 13.2883C18.1983 11.0735 17.0007 9.15806 14.9641 8.25422C13.2461 7.45264 11.4461 7.19336 7.60219 7.19336H0.689785C0.307582 7.19336 0 7.50377 0 7.88539V29.2287C0 29.6121 0.309402 29.9207 0.689785 29.9207H8.49218C12.0849 29.9207 13.8958 29.6285 15.5338 28.7996C17.6341 27.7004 18.7916 25.8178 18.7916 23.5683C18.808 20.8111 17.1664 19.0418 13.9941 18.3133ZM4.99957 11.4679C4.99957 11.0844 5.30898 10.7758 5.68936 10.7758H6.55387C9.10916 10.7758 10.8291 10.6827 11.7755 11.183C12.6655 11.6231 13.2024 12.2439 13.2024 13.4636C13.2024 14.5792 12.7037 15.2055 11.8228 15.6949C11.0384 16.1112 9.06548 16.312 6.75407 16.312H5.68936C5.30716 16.312 4.99957 16.0016 4.99957 15.62V11.4679V11.4679ZM12.0248 26.0954C11.1148 26.4971 9.60785 26.4478 6.96519 26.4478H5.68572C5.30352 26.4478 4.99593 26.1374 4.99593 25.7557V21.2749C4.99593 20.8933 5.30534 20.5829 5.68572 20.5829H7.00705C9.1219 20.5829 10.8382 20.6651 11.8847 20.9828C13.1441 21.3753 13.7957 22.1842 13.7957 23.5263C13.7957 25.0783 13.0622 25.6444 12.0248 26.0954Z" fill="white"/>
  <path d="M84.7216 3.23908C84.6288 3.28838 84.5378 3.34133 84.445 3.39246C84.3995 3.41802 84.3503 3.44359 84.3048 3.47097C83.8644 3.72843 83.4367 4.01693 83.0272 4.34012C82.0935 5.07231 81.3037 5.9378 80.663 6.88911C80.4319 7.23421 80.2226 7.59027 80.0333 7.95728C78.5445 7.30908 76.9065 6.98771 75.2175 7.04797C75.0009 7.05527 74.788 7.07353 74.5732 7.09179C74.626 7.40037 74.6952 7.7053 74.7771 8.01206C74.9354 7.99745 75.0919 7.98467 75.2503 7.97919C76.79 7.92259 78.2842 8.21474 79.6383 8.80086C79.9259 8.9232 80.2044 9.05832 80.4755 9.20804C80.5902 8.91955 80.7231 8.63835 80.8705 8.36264C81.5184 7.10457 82.4412 5.97797 83.5987 5.06684C84.1374 4.64322 84.7089 4.28169 85.304 3.98041C85.3441 3.96032 85.3859 3.94389 85.426 3.92563L85.4314 3.93841C85.5024 4.10275 85.7226 4.62314 85.8045 4.8459C86.3633 6.3742 86.5871 7.96093 86.4725 9.56958C87.9776 9.8599 89.3881 10.4442 90.6713 11.3079C91.2464 11.695 91.7742 12.135 92.2619 12.6079V12.6061C92.2638 12.6079 92.2638 12.6079 92.2638 12.6079C92.7442 12.0455 93.1301 11.264 93.4395 10.3858C94.8718 6.3249 91.5412 2.12892 87.2715 2.56897C86.8711 2.60914 86.4852 2.67122 86.1212 2.75156C86.1176 2.75156 86.1158 2.75338 86.1121 2.75338C85.9538 2.78808 85.8009 2.82642 85.6498 2.87024C85.6407 2.87207 85.6316 2.8739 85.6225 2.87755C85.6189 2.87755 85.6171 2.87937 85.6134 2.8812C85.4624 2.92685 85.3186 2.97615 85.1785 3.03093C85.1584 3.03823 85.1384 3.04553 85.1202 3.05466C84.9837 3.11309 84.8472 3.17335 84.7216 3.23908Z" fill="url(#paint0_linear_2_3)"/>
  <path d="M85.1493 22.9865C85.1766 22.9335 85.2002 22.8788 85.2275 22.8258C85.2294 22.824 85.2294 22.824 85.2312 22.8222C85.2366 22.8112 85.2403 22.8003 85.2457 22.7893C85.304 22.6724 85.3604 22.5556 85.4132 22.4351C85.4441 22.3639 85.4732 22.2926 85.5042 22.2233C85.6789 21.8051 85.8336 21.376 85.9592 20.9305C86.4033 19.3748 86.4925 17.779 86.2631 16.2433C87.8429 15.8873 89.359 15.1807 90.6876 14.1326C90.8605 13.9975 91.0225 13.8569 91.1844 13.7144C90.9606 13.4972 90.7258 13.2908 90.4837 13.0918C90.3618 13.1959 90.2435 13.3 90.1179 13.3986C88.9058 14.3499 87.5299 14.9962 86.0866 15.3213C85.7826 15.3888 85.4787 15.4436 85.1729 15.4838C85.2457 15.7869 85.3058 16.0918 85.3477 16.4022C85.5588 17.8045 85.4714 19.258 85.0656 20.6731C84.8781 21.334 84.6288 21.964 84.3248 22.5592C84.3048 22.5994 84.2811 22.6377 84.2575 22.6761L84.2447 22.667C83.8152 22.4132 83.544 22.2452 83.413 22.1575C82.0607 21.2464 80.9469 20.0942 80.1006 18.7284C78.7192 19.3803 77.2359 19.7382 75.6907 19.7966C75.3103 19.8094 74.9336 19.8021 74.5605 19.7765L74.5623 19.7729C74.2492 19.7546 73.9453 19.7199 73.6395 19.6743C73.6177 19.9482 73.625 20.2403 73.6559 20.5434C73.6559 20.5489 73.6559 20.5544 73.6559 20.558C73.6559 20.5635 73.6577 20.5708 73.6596 20.5763C73.6759 20.7351 73.6978 20.8976 73.7269 21.0601V21.0656C73.7724 21.3286 73.8325 21.597 73.9053 21.869C75.0664 26.222 80.5046 27.7796 83.7788 24.6956C84.363 24.1514 84.849 23.5708 85.1493 22.9865Z" fill="url(#paint1_linear_2_3)"/>
  <path d="M86.143 9.82863C86.2996 8.20903 86.0994 6.54926 85.5169 4.95522C85.4405 4.75072 85.3604 4.55352 85.2749 4.35449C85.0001 4.50239 84.7307 4.65942 84.4668 4.83106C84.5287 4.97713 84.5924 5.12321 84.6452 5.27111C85.173 6.71907 85.3586 8.23459 85.2203 9.70994C85.1912 10.0203 85.1475 10.3308 85.0911 10.6375C85.4005 10.6594 85.7099 10.6978 86.0156 10.7525C87.4098 10.9881 88.7602 11.5176 89.9814 12.3411C90.5511 12.7245 91.0716 13.1573 91.5412 13.6339C91.574 13.6686 91.6013 13.7014 91.6322 13.7343L91.6213 13.7434C91.5303 13.8219 91.068 14.2255 90.8751 14.3788C89.6029 15.3813 88.1687 16.0897 86.6035 16.4823C86.7946 18.0033 86.6763 19.528 86.2541 21.0179C86.1503 21.3831 86.0284 21.7392 85.8901 22.0916C85.7736 22.3801 85.6498 22.6667 85.5133 22.9424C85.5133 22.9424 85.5151 22.9443 85.5151 22.9424C85.5115 22.9516 85.5078 22.9607 85.5042 22.9698C85.759 23.0757 86.0411 23.1597 86.3396 23.2255C86.7819 23.3204 87.2114 23.3606 87.6318 23.3642H87.6336C92.2073 23.6217 95.3687 18.9546 93.4085 14.8006C93.0809 14.1049 92.7024 13.4933 92.2656 13.0459C91.7378 12.5018 91.1481 12.007 90.502 11.5706C89.1588 10.6631 87.6718 10.0843 86.143 9.82863Z" fill="url(#paint2_linear_2_3)"/>
  <path d="M73.4212 7.67405C73.4266 7.69596 73.4303 7.71788 73.4357 7.74161C73.4576 7.84934 73.4849 7.95342 73.5104 8.06115C73.5213 8.10315 73.5304 8.14514 73.5413 8.18531C73.6323 8.53589 73.7397 8.88647 73.8653 9.23157C74.4185 10.7526 75.2831 12.0983 76.3696 13.2084C76.0475 13.5718 75.7526 13.9552 75.4833 14.3606C74.8444 15.3137 74.3476 16.3783 74.0218 17.5231C73.9635 17.7313 73.9144 17.9412 73.8707 18.1512C74.1765 18.195 74.4877 18.2261 74.8026 18.2407C74.839 18.0855 74.8736 17.9339 74.9172 17.7787C75.3377 16.2924 76.0748 14.9577 77.0521 13.8475C77.256 13.6101 77.4725 13.3856 77.6982 13.1774C77.4616 12.9747 77.2341 12.7629 77.0194 12.5401C76.0293 11.5286 75.2485 10.3034 74.7389 8.91751C74.5041 8.27661 74.3385 7.6211 74.2365 6.96377C74.2293 6.91081 74.2256 6.86151 74.2202 6.81039H74.2293C74.4477 6.7903 74.9846 6.74831 75.2084 6.741C76.8283 6.68257 78.4044 6.96011 79.895 7.5645C80.0551 7.27052 80.228 6.9875 80.4082 6.71909C81.078 5.71848 81.897 4.83656 82.8379 4.09706C83.3839 3.66797 83.9645 3.29913 84.5651 2.98142L84.5633 2.97959C84.5506 2.95951 84.5324 2.9376 84.5196 2.91751C84.4505 2.80613 84.374 2.6984 84.2903 2.58884C84.2448 2.52859 84.1939 2.47016 84.1447 2.4099C84.1083 2.36608 84.0774 2.32226 84.0373 2.28026C84.0137 2.25287 83.9882 2.22914 83.9627 2.20357C83.8972 2.13236 83.8317 2.06298 83.7607 1.99359C83.7206 1.95525 83.6824 1.91873 83.6442 1.88038C83.4276 1.67223 83.1983 1.46955 82.949 1.27052C79.6365 -1.35516 74.7243 0.293651 73.6578 4.39103C73.463 5.14149 73.332 5.85543 73.3083 6.47077C73.3065 6.48355 73.3065 6.49633 73.3065 6.50911C73.3011 6.64058 73.3029 6.76657 73.3083 6.8889C73.3083 6.89621 73.3102 6.90351 73.3083 6.91081C73.3156 7.03863 73.3265 7.16462 73.3466 7.28148C73.3684 7.41112 73.3957 7.54259 73.4212 7.67405Z" fill="url(#paint3_linear_2_3)"/>
  <path d="M80.2152 18.3299C81.0379 19.734 82.1754 20.9556 83.5804 21.9032C83.7606 22.0237 83.9426 22.1351 84.1264 22.2447C84.2648 21.9653 84.3903 21.6768 84.5014 21.3828C84.3667 21.3007 84.2265 21.2185 84.0973 21.129C82.8197 20.2672 81.7823 19.1534 81.0306 17.8771C80.8686 17.6087 80.723 17.3348 80.592 17.0517C80.3281 17.2179 80.0587 17.3695 79.7766 17.5082C78.5153 18.14 77.1103 18.507 75.6397 18.56C74.9554 18.5855 74.2802 18.5417 73.6213 18.434C73.5777 18.4267 73.5358 18.4157 73.4921 18.4066L73.4939 18.3956C73.5358 18.1948 73.6559 17.6671 73.7196 17.4388C74.0508 16.2739 74.5568 15.182 75.2211 14.1887C75.4468 13.8491 75.6907 13.5259 75.9455 13.2209C74.8972 12.0962 74.1 10.7925 73.5704 9.34085C73.4393 8.98479 73.3301 8.62508 73.2391 8.25807C73.2409 8.25807 73.2428 8.25807 73.2446 8.25625C73.1681 7.95497 73.1026 7.65186 73.0517 7.35059C73.0498 7.35059 73.0462 7.35241 73.0444 7.35241V7.35059C73.008 7.35972 72.9716 7.3725 72.937 7.38345C72.886 7.39806 72.8369 7.41084 72.7859 7.42728C72.6403 7.47475 72.4911 7.5277 72.3382 7.59526C71.7667 7.84724 71.2662 8.16678 70.8313 8.53379C70.8258 8.53927 70.8203 8.54109 70.8149 8.54657C67.2786 11.143 67.6135 16.5551 71.4719 18.6366C72.0907 18.9708 72.7004 19.2155 73.2646 19.3177C73.5194 19.3652 73.776 19.3981 74.0345 19.4273C74.0982 19.4346 74.1619 19.4401 74.2256 19.4455C74.7024 19.4894 75.1829 19.5076 75.6707 19.4894C77.2868 19.4291 78.8284 19.0256 80.2152 18.3299Z" fill="url(#paint4_linear_2_3)"/>
  <defs>
    <linearGradient id="paint0_linear_2_3" x1="74.5212" y1="8.34303" x2="93.74" y2="8.21373" gradientUnits="userSpaceOnUse">
      <stop stop-color="#CD9542"/>
      <stop offset="0.583333" stop-color="#FCE8A0"/>
      <stop offset="1" stop-color="#CD9542"/>
    </linearGradient>
    <linearGradient id="paint1_linear_2_3" x1="73.5793" y1="20.711" x2="91.1512" y2="20.6286" gradientUnits="userSpaceOnUse">
      <stop stop-color="#CD9542"/>
      <stop offset="0.583333" stop-color="#FCE8A0"/>
      <stop offset="1" stop-color="#CD9542"/>
    </linearGradient>
    <linearGradient id="paint2_linear_2_3" x1="84.4409" y1="15.3197" x2="93.9824" y2="15.3028" gradientUnits="userSpaceOnUse">
      <stop stop-color="#CD9542"/>
      <stop offset="0.583333" stop-color="#FCE8A0"/>
      <stop offset="1" stop-color="#CD9542"/>
    </linearGradient>
    <linearGradient id="paint3_linear_2_3" x1="73.2727" y1="10.5168" x2="84.544" y2="10.4922" gradientUnits="userSpaceOnUse">
      <stop stop-color="#CD9542"/>
      <stop offset="0.583333" stop-color="#FCE8A0"/>
      <stop offset="1" stop-color="#CD9542"/>
    </linearGradient>
    <linearGradient id="paint4_linear_2_3" x1="68.3141" y1="15.9372" x2="84.4709" y2="15.8754" gradientUnits="userSpaceOnUse">
      <stop stop-color="#CD9542"/>
      <stop offset="0.583333" stop-color="#FCE8A0"/>
      <stop offset="1" stop-color="#CD9542"/>
    </linearGradient>
  </defs>
</svg>
